<svg width="530" height="427" viewBox="0 0 530 427" fill="none" xmlns="http://www.w3.org/2000/svg">
<g clip-path="url(#clip0_2131_1813)">
<rect x="-56" y="-91" width="586" height="542" rx="20" fill="#FCEDE9"/>
<g clip-path="url(#clip1_2131_1813)">
<path d="M386.397 114.203C386.639 114.505 386.397 115.05 386.155 115.292C385.792 115.716 385.187 116.018 384.763 116.26C384.4 116.502 384.158 116.623 384.763 116.866C385.368 117.108 387.063 116.684 387.547 116.623C388.091 116.502 389.423 116.26 389.786 116.2C390.149 116.139 390.754 115.958 390.875 116.563C390.996 117.168 389.847 117.289 389.604 117.41C389.362 117.531 388.636 117.652 388.334 117.713C388.031 117.834 386.578 118.076 386.578 118.379C386.578 118.681 387.728 118.56 388.152 118.621C388.576 118.621 389.483 118.681 389.786 118.742C390.089 118.802 390.633 118.802 390.996 118.863C391.299 118.863 391.723 119.044 391.662 119.468C391.662 119.891 391.299 119.952 391.117 119.952C390.936 119.952 390.27 119.891 389.968 119.891C389.665 119.891 388.878 119.891 388.455 119.891C388.031 119.891 387.002 119.891 386.7 119.831C386.397 119.77 386.215 120.073 386.457 120.194C386.699 120.315 388.273 120.981 388.576 121.102C388.878 121.223 389.604 121.404 390.149 121.647C390.694 121.889 390.754 122.131 390.633 122.373C390.512 122.615 390.27 122.736 390.089 122.675C389.846 122.615 388.878 122.252 388.394 122.131C387.97 122.01 387.063 121.707 386.7 121.586C386.336 121.465 385.792 121.344 385.731 121.526C385.61 121.647 386.034 121.949 386.336 122.191C386.639 122.433 387.486 123.099 387.91 123.402C388.394 123.704 388.394 124.067 388.273 124.249C388.152 124.43 387.91 124.491 387.486 124.309C387.123 124.128 386.276 123.523 385.913 123.281C385.61 123.039 384.642 122.433 384.642 122.433C384.158 122.373 383.916 122.252 383.492 122.191C383.189 122.131 382.645 121.889 382.221 121.828C381.132 121.768 380.466 120.799 380.042 120.194L376.048 120.134V117.773C376.048 117.773 380.224 117.652 380.284 117.652C380.224 117.652 381.253 116.563 381.374 116.442C381.797 116.079 382.342 115.655 382.887 115.413C383.129 115.292 383.674 115.292 383.976 115.05C384.279 114.808 385.247 114.445 385.55 114.263C386.034 114.203 386.155 113.9 386.397 114.203Z" fill="#FFE9D5"/>
<path d="M346.273 117.107L326.362 103.793C319.886 95.0783 310.808 93.3232 310.808 93.3232L315.226 110.511L341.915 122.736C342.944 123.22 344.094 123.401 345.183 123.341L379.8 120.86V117.228H346.273V117.107Z" fill="#132B56"/>
<path d="M541.327 334.977C513.004 334.977 489.099 353.678 481.231 379.399C476.813 376.433 471.487 374.678 465.738 374.678C451.576 374.678 439.836 385.269 438.081 399.007C433.36 395.618 427.55 393.621 421.317 393.621C412.844 393.621 405.279 397.252 400.014 403.062C399.227 388.598 387.305 377.099 372.659 377.099C367.757 377.099 363.158 378.37 359.163 380.67C356.924 361.364 340.584 346.416 320.673 346.416C311.05 346.416 302.214 349.926 295.436 355.796C292.652 345.992 283.635 338.851 272.923 338.851C268.989 338.851 265.298 339.819 262.03 341.513C261.485 339.456 260.698 337.519 259.669 335.764C273.044 335.764 283.938 325.173 284.482 311.919C296.768 310.406 306.269 299.997 306.269 287.288C306.269 273.611 295.134 262.475 281.456 262.475C278.491 262.475 275.707 263.02 273.044 263.928C272.863 262.233 272.499 260.538 272.015 258.965C276.312 255.697 279.096 250.553 279.096 244.743C279.096 234.878 271.107 226.89 261.243 226.89C252.286 226.89 244.842 233.486 243.571 242.141C233.101 244.198 224.992 252.792 223.721 263.504C219.303 259.328 213.311 256.786 206.775 256.786C199.755 256.786 193.401 259.691 188.922 264.351C185.049 261.567 180.328 259.933 175.245 259.933C163.322 259.933 153.458 268.83 151.945 280.328C141.475 283.233 133.789 292.856 133.789 304.233C133.789 307.925 134.576 311.375 136.028 314.522C132.276 318.879 130.037 324.508 130.037 330.68C130.037 331.588 130.097 332.436 130.158 333.283C121.443 333.646 113.878 338.487 109.763 345.568C107.221 344.963 104.618 344.6 101.895 344.6C84.0419 344.6 69.5172 359.125 69.5172 376.978C69.5172 378.491 69.6382 379.943 69.8198 381.396C59.0473 383.938 50.3325 391.926 46.7619 402.214C42.3439 393.439 34.1133 386.903 24.1881 384.906C24.4907 382.909 24.6117 380.912 24.6117 378.854C24.6117 355.191 5.42708 335.946 -18.2965 335.946C-26.4062 335.946 -33.9711 338.185 -40.4467 342.119C-44.2594 336.006 -49.5246 330.862 -55.8186 327.352V530.939H595.552V365.721C584.356 347.323 564.264 334.977 541.327 334.977Z" fill="#F9DED7"/>
<path d="M278.781 241.454L246.71 271.038L267.924 294.035L299.995 264.451L278.781 241.454Z" fill="white"/>
<path d="M278.745 241.454L246.673 271.038L251.966 276.776L284.038 247.192L278.745 241.454Z" fill="#EBBB10"/>
<path d="M294.653 258.71L262.582 288.294L267.875 294.032L299.947 264.448L294.653 258.71Z" fill="#EBBB10"/>
<path d="M595.371 366.932C584.719 357.188 570.497 351.257 554.944 351.257C521.84 351.257 494.969 378.128 494.969 411.232C494.969 411.474 494.969 411.656 494.969 411.898C488.07 407.117 479.718 404.272 470.64 404.272C453.574 404.272 438.807 414.318 432.029 428.783C425.13 414.5 410.484 404.635 393.599 404.635C389.968 404.635 386.397 405.119 383.068 405.967C379.861 400.581 374.051 396.949 367.333 396.949C359.224 396.949 352.385 402.215 349.964 409.477C345.849 408.145 341.431 407.419 336.832 407.419C322.852 407.419 310.385 414.137 302.578 424.607C302.033 410.808 290.655 399.733 276.736 399.733C271.592 399.733 266.871 401.246 262.816 403.788C260.577 401.004 257.793 398.583 254.646 396.828C256.159 393.5 256.946 389.808 256.946 385.935C256.946 377.22 252.77 369.474 246.355 364.571C251.983 359.669 255.554 352.407 255.554 344.358C255.554 340.969 254.949 337.761 253.799 334.796C261.303 332.799 266.871 325.96 266.871 317.85C266.871 317.669 266.871 317.427 266.811 317.245C268.263 317.669 269.837 317.911 271.41 317.911C281.093 317.911 288.961 310.043 288.961 300.36C288.961 290.677 281.093 282.81 271.41 282.81C269.837 282.81 268.263 283.052 266.811 283.415C269.11 280.449 270.502 276.697 270.502 272.642C270.502 262.959 262.635 255.092 252.952 255.092C246.113 255.092 240.243 258.965 237.338 264.654C235.341 263.867 233.101 263.383 230.802 263.383C221.118 263.383 213.251 271.25 213.251 280.934C213.251 282.81 213.553 284.565 214.098 286.259C213.432 286.199 212.767 286.199 212.162 286.199C204.899 286.199 198.242 289.104 193.461 293.824C188.498 288.377 181.297 284.867 173.369 284.867C158.541 284.867 146.559 296.85 146.559 311.677C146.559 319.242 149.706 326.081 154.729 330.923C154.063 330.862 153.458 330.862 152.792 330.862C138.267 330.862 126.466 342.663 126.466 357.188C126.466 357.793 126.466 358.459 126.527 359.064C119.506 360.456 113.515 364.753 109.884 370.684C106.858 369.413 103.59 368.747 100.14 368.747C86.0996 368.747 74.7219 380.125 74.7219 394.165C74.7219 394.468 74.7219 394.831 74.7219 395.134C68.0648 397.373 62.5575 402.154 59.2895 408.327C52.2087 410.082 46.2173 414.621 42.5256 420.734C38.7129 410.324 28.6666 402.88 16.9258 402.88C9.78455 402.88 3.30898 405.664 -1.5931 410.143C-11.8209 402.699 -24.4089 398.281 -38.0258 398.281C-39.0546 398.281 -40.0835 398.281 -41.1123 398.341C-44.1988 389.021 -49.4035 380.67 -56.1816 373.891V531H595.189V366.932H595.371Z" fill="white"/>
<path d="M472.758 127.154L424.343 76.0754C424.524 75.9543 424.706 75.8938 424.827 75.7728C445.222 64.3951 466.041 58.4642 482.26 65.3029L486.557 69.8419C492.548 86.3637 485.528 106.88 473.061 126.609C473 126.851 472.879 127.033 472.758 127.154Z" fill="#FF3C00"/>
<path d="M436.931 169.759C436.931 169.759 407.337 197.659 399.772 204.316C399.469 204.558 399.167 204.861 398.864 205.103C387.365 215.209 368.665 231.187 345.607 249.705C345.304 249.948 344.941 250.19 344.639 250.492C337.981 255.818 330.961 261.325 323.699 267.014L276.857 217.57C282.909 210.61 288.779 203.892 294.468 197.538C294.771 197.235 295.013 196.933 295.315 196.63C315.045 174.54 332.051 156.748 342.702 145.794C343.005 145.491 343.307 145.188 343.549 144.886C350.57 137.684 380.042 109.603 380.042 109.603C382.04 107.727 384.097 105.851 386.155 103.975C386.458 103.733 386.76 103.43 387.063 103.188C387.244 103.006 387.426 102.825 387.607 102.704C388.394 102.038 389.181 101.312 389.968 100.646C390.815 99.9199 391.723 99.1331 392.57 98.4069C392.631 98.3464 392.691 98.2858 392.752 98.2858C393.599 97.6201 394.446 96.8939 395.233 96.2282C395.293 96.1677 395.354 96.1071 395.414 96.0466C396.141 95.4414 396.867 94.8967 397.593 94.2915C400.438 92.0523 403.342 89.8736 406.247 87.7555C406.671 87.4529 407.034 87.1503 407.458 86.8477C407.639 86.7266 407.821 86.6056 408.002 86.424C409.273 85.5162 410.605 84.6084 411.936 83.7006C412.42 83.398 412.905 83.0349 413.389 82.7323C414.357 82.0666 415.325 81.4614 416.294 80.8562C417.201 80.251 418.109 79.7064 419.017 79.1617C419.562 78.7986 420.106 78.496 420.712 78.1329C421.135 77.8908 421.559 77.6487 421.922 77.4066C422.467 77.104 423.072 76.7409 423.616 76.4383C423.798 76.3173 424.04 76.1962 424.222 76.0752L472.637 127.154C472.516 127.335 472.395 127.517 472.274 127.759C462.591 143.01 449.64 157.716 436.931 169.759Z" fill="#F7F0E8"/>
<path d="M319.826 262.899L323.699 266.954C331.022 261.325 337.981 255.758 344.639 250.432C344.941 250.19 345.304 249.948 345.607 249.645C368.725 231.126 387.365 215.089 398.864 205.042C399.167 204.74 399.469 204.498 399.772 204.256C407.337 197.598 436.931 169.699 436.931 169.699C449.64 157.656 462.591 142.949 472.395 127.698C472.516 127.517 472.637 127.335 472.758 127.093L469.127 123.281C459.565 138.955 446.674 153.843 433.905 165.947C433.905 166.007 371.751 223.501 319.826 262.899Z" fill="#E6E0D8"/>
<path d="M509.372 44L482.26 65.3634L484.438 67.6631L509.372 44Z" fill="#D1D1D0"/>
<path d="M509.372 44L484.438 67.6631L486.557 69.9023L509.372 44Z" fill="white"/>
<path d="M276.662 232.128L267.307 240.996L299.909 275.385L309.264 266.516L276.662 232.128Z" fill="#194858"/>
<path d="M279.156 220.112L274.859 233.789L307.479 268.164L321.459 264.654L279.156 220.112Z" fill="#11313C"/>
<path opacity="0.9" d="M289.504 249.192L282.082 256.229L285.538 259.874L292.96 252.838L289.504 249.192Z" fill="#256981"/>
<path d="M407.579 142.768L418.956 111.298L410.181 102.038C417.686 96.4098 425.553 91.2051 433.602 86.7872C433.784 86.6661 434.026 86.5451 434.207 86.4846L424.403 76.1357C424.222 76.2568 423.98 76.3778 423.798 76.4989C423.253 76.8015 422.648 77.1646 422.103 77.4672C421.68 77.7092 421.317 77.9513 420.893 78.1934C420.348 78.496 419.804 78.8591 419.199 79.2222C418.291 79.7669 417.383 80.3721 416.475 80.9168C415.507 81.522 414.539 82.1877 413.57 82.7929C413.086 83.0955 412.602 83.4586 412.118 83.7612C410.786 84.669 409.515 85.5163 408.184 86.4846C408.002 86.6056 407.821 86.7266 407.639 86.9082C407.216 87.2108 406.792 87.5134 406.429 87.816C403.463 89.9342 400.559 92.1129 397.775 94.3521C397.048 94.9573 396.322 95.502 395.596 96.1072C395.535 96.1677 395.475 96.2282 395.414 96.2887C394.567 96.9544 393.72 97.6807 392.933 98.3464C392.873 98.4069 392.812 98.4674 392.752 98.4674C391.844 99.1937 390.996 99.9199 390.149 100.707C389.362 101.372 388.576 102.099 387.789 102.764C387.607 102.946 387.426 103.127 387.244 103.248C386.942 103.491 386.639 103.793 386.336 104.035C384.218 105.911 382.161 107.787 380.224 109.664C380.224 109.664 350.812 137.745 343.731 144.946C343.428 145.249 343.186 145.552 342.883 145.854C332.232 156.808 315.226 174.601 295.497 196.69C295.255 196.993 294.952 197.296 294.65 197.598C288.961 203.953 283.09 210.67 277.038 217.63L286.903 228.04C310.324 200.443 331.748 177.385 346.03 162.376C366.668 152.088 407.579 142.768 407.579 142.768Z" fill="#E6E0D8"/>
<path d="M472.395 127.759L423.737 76.4384C423.919 76.3174 424.161 76.1963 424.343 76.0753C424.524 75.9543 424.706 75.8937 424.827 75.7727L473.061 126.609C472.94 126.791 472.879 126.912 472.758 127.093C472.637 127.396 472.516 127.577 472.395 127.759Z" fill="white"/>
<path d="M345.607 249.706C345.304 249.948 344.941 250.19 344.638 250.492L294.407 197.538C294.71 197.235 294.952 196.933 295.255 196.63L345.607 249.706Z" fill="#335368"/>
<path d="M312.079 210.913C311.595 211.397 310.869 211.336 310.385 210.852C309.9 210.368 309.961 209.642 310.445 209.158C310.929 208.673 311.655 208.734 312.14 209.218C312.563 209.702 312.563 210.489 312.079 210.913Z" fill="#335368"/>
<path d="M306.874 205.405C306.39 205.889 305.664 205.829 305.18 205.345C304.696 204.861 304.756 204.134 305.24 203.65C305.725 203.166 306.451 203.227 306.935 203.711C307.359 204.195 307.359 204.982 306.874 205.405Z" fill="#335368"/>
<path d="M322.791 222.23C322.307 222.714 321.581 222.653 321.096 222.169C320.612 221.685 320.673 220.959 321.157 220.475C321.641 219.99 322.367 220.051 322.852 220.535C323.275 221.019 323.275 221.746 322.791 222.23Z" fill="#335368"/>
<path d="M307.782 215.028C307.298 215.512 306.572 215.451 306.088 214.967C305.604 214.483 305.664 213.757 306.148 213.273C306.632 212.789 307.359 212.849 307.843 213.333C308.266 213.817 308.206 214.604 307.782 215.028Z" fill="#335368"/>
<path d="M302.517 209.521C302.033 210.005 301.307 209.944 300.822 209.46C300.338 208.976 300.399 208.25 300.883 207.766C301.367 207.282 302.093 207.342 302.577 207.826C303.062 208.31 303.001 209.097 302.517 209.521Z" fill="#335368"/>
<path d="M301.972 200.201C301.488 200.685 300.762 200.624 300.278 200.14C299.794 199.656 299.854 198.93 300.338 198.446C300.822 197.961 301.549 198.022 302.033 198.506C302.456 198.99 302.396 199.777 301.972 200.201Z" fill="#335368"/>
<path d="M297.615 204.316C297.131 204.8 296.404 204.74 295.92 204.255C295.436 203.771 295.497 203.045 295.981 202.561C296.465 202.077 297.191 202.137 297.675 202.621C298.099 203.106 298.099 203.892 297.615 204.316Z" fill="#335368"/>
<path d="M332.777 232.76C332.292 233.244 331.566 233.184 331.082 232.7C330.598 232.216 330.658 231.489 331.143 231.005C331.627 230.521 332.353 230.582 332.837 231.066C333.321 231.55 333.261 232.276 332.777 232.76Z" fill="#335368"/>
<path d="M328.48 236.875C327.996 237.36 327.269 237.299 326.785 236.815C326.301 236.331 326.362 235.605 326.846 235.12C327.33 234.636 328.056 234.697 328.54 235.181C328.964 235.665 328.964 236.391 328.48 236.875Z" fill="#335368"/>
<path d="M318.434 226.345C317.949 226.829 317.223 226.769 316.739 226.284C316.255 225.8 316.315 225.074 316.8 224.59C317.284 224.106 318.01 224.166 318.494 224.65C318.918 225.135 318.918 225.861 318.434 226.345Z" fill="#335368"/>
<path d="M343.549 244.138C343.065 244.622 342.339 244.561 341.855 244.077C341.371 243.593 341.431 242.867 341.915 242.383C342.399 241.898 343.126 241.959 343.61 242.443C344.094 242.927 344.033 243.654 343.549 244.138Z" fill="#335368"/>
<path d="M339.252 248.253C338.768 248.737 338.042 248.677 337.558 248.193C337.074 247.708 337.134 246.982 337.618 246.498C338.102 246.014 338.829 246.074 339.313 246.559C339.736 247.043 339.676 247.769 339.252 248.253Z" fill="#335368"/>
<path d="M338.647 238.933C338.163 239.417 337.437 239.357 336.953 238.873C336.468 238.388 336.529 237.662 337.013 237.178C337.497 236.694 338.223 236.754 338.708 237.239C339.192 237.723 339.131 238.449 338.647 238.933Z" fill="#335368"/>
<path d="M334.29 243.049C333.806 243.533 333.079 243.472 332.595 242.988C332.111 242.504 332.172 241.778 332.656 241.293C333.14 240.809 333.866 240.87 334.35 241.354C334.774 241.838 334.774 242.564 334.29 243.049Z" fill="#335368"/>
<path d="M435.125 144.566C444.948 137.501 447.183 123.811 440.118 113.989C433.053 104.166 419.364 101.931 409.541 108.996C399.719 116.061 397.483 129.75 404.548 139.573C411.613 149.395 425.303 151.631 435.125 144.566Z" fill="#FFB600"/>
<path d="M438.202 111.721C433.179 106.395 426.158 104.217 419.441 105.064C423.798 105.911 427.974 108.03 431.302 111.54C439.594 120.315 439.23 134.174 430.455 142.465C427.006 145.733 422.709 147.67 418.291 148.275C424.948 149.546 432.089 147.67 437.415 142.647C446.19 134.355 446.553 120.497 438.202 111.721Z" fill="#FFB600"/>
<path d="M422.103 152.512C414.962 152.512 408.305 149.667 403.403 144.462C398.682 139.439 396.141 132.903 396.322 126.065C396.504 119.165 399.348 112.811 404.371 108.03C409.152 103.491 415.507 100.949 422.103 100.949C429.245 100.949 435.902 103.793 440.804 108.998C445.524 114.021 448.066 120.557 447.885 127.396C447.703 134.295 444.859 140.65 439.836 145.431C435.055 149.97 428.76 152.512 422.103 152.512ZM422.103 106.456C416.899 106.456 411.936 108.453 408.184 112.024C404.25 115.776 402.011 120.799 401.89 126.186C401.769 131.572 403.705 136.716 407.458 140.65C411.331 144.705 416.536 146.944 422.164 146.944C427.369 146.944 432.331 144.947 436.083 141.376C440.017 137.624 442.256 132.601 442.377 127.214C442.498 121.828 440.562 116.684 436.81 112.75C432.936 108.695 427.732 106.456 422.103 106.456Z" fill="#335368"/>
<path d="M410.605 125.036C410.242 127.759 408.789 129.817 407.458 129.635C406.066 129.454 405.279 127.093 405.642 124.309C406.005 121.586 407.458 119.528 408.789 119.71C410.181 119.891 410.968 122.252 410.605 125.036Z" fill="white"/>
<path d="M308.992 172.362C308.992 172.362 308.327 171.817 307.177 171.091C295.194 163.586 279.641 165.886 270.321 176.537L233.222 219.083C231.164 221.443 229.53 224.166 228.441 227.132C226.444 232.699 225.536 240.809 233.343 247.527C233.343 247.527 238.366 251.218 241.997 247.769L283.574 208.371L308.992 172.362Z" fill="#194858"/>
<path opacity="0.3" d="M305.604 177.143L308.993 172.362C308.993 172.362 308.327 171.817 307.177 171.091C295.194 163.586 279.641 165.886 270.321 176.537L253.799 195.541C262.514 188.702 271.592 182.529 274.497 180.532C275.344 179.987 276.252 179.382 277.099 178.898C291.987 170.546 301.851 174.782 305.604 177.143Z" fill="#335368"/>
<path opacity="0.3" d="M276.978 214.604L270.744 211.094L246.294 243.654L276.978 214.604Z" fill="#335368"/>
<path d="M321.399 164.676C322.609 165.22 323.215 166.491 322.912 167.762C322.73 168.488 322.307 169.336 321.52 170.365L278.188 218.901L270.744 211.034L307.298 167.46C307.298 167.46 311.837 160.318 321.399 164.676Z" fill="#FF3C00"/>
<path opacity="0.5" d="M274.92 215.512L278.188 218.962L321.52 170.425C322.307 169.396 322.73 168.549 322.912 167.823C323.215 166.552 322.609 165.281 321.399 164.736C320.915 164.494 320.491 164.313 320.007 164.192L274.92 215.512Z" fill="#FF3C00"/>
<path d="M316.315 168.307C314.742 168.125 313.531 167.218 313.653 166.31C313.774 165.402 315.166 164.857 316.739 165.039C318.313 165.22 319.523 166.128 319.402 167.036C319.341 167.944 317.949 168.489 316.315 168.307Z" fill="white"/>
<path d="M370.541 237.239C370.541 237.239 371.025 237.904 371.691 239.115C378.59 251.461 375.443 266.893 364.307 275.608L319.825 310.467C317.344 312.404 314.56 313.856 311.534 314.764C305.906 316.458 297.736 316.943 291.442 308.773C291.442 308.773 287.992 303.568 291.684 300.118L333.261 260.72L370.541 237.239Z" fill="#194858"/>
<path opacity="0.4" d="M365.578 240.386L370.541 237.239C370.541 237.239 371.025 237.904 371.691 239.115C378.59 251.461 375.443 266.893 364.307 275.608L344.457 291.101C351.78 282.749 358.437 274.034 360.555 271.25C361.16 270.464 361.765 269.556 362.31 268.709C371.448 254.305 367.757 244.259 365.578 240.386Z" fill="#335368"/>
<path opacity="0.3" d="M326.604 266.954L329.811 273.369L295.981 296.063L326.604 266.954Z" fill="#335368"/>
<path d="M378.832 225.316C378.348 224.106 377.077 223.379 375.806 223.622C375.08 223.743 374.172 224.106 373.143 224.832L322.367 265.501L329.811 273.369L375.322 239.175C375.322 239.175 382.645 234.999 378.832 225.316Z" fill="#FF3C00"/>
<path opacity="0.5" d="M325.635 268.951L322.367 265.501L373.143 224.832C374.232 224.106 375.08 223.743 375.806 223.622C377.077 223.379 378.348 224.106 378.832 225.316C379.014 225.8 379.195 226.284 379.316 226.708L325.635 268.951Z" fill="#FF3C00"/>
<path d="M374.959 230.158C375.08 231.731 375.927 233.002 376.835 232.942C377.743 232.881 378.408 231.55 378.287 229.916C378.166 228.342 377.319 227.071 376.411 227.132C375.503 227.192 374.838 228.524 374.959 230.158Z" fill="white"/>
<path d="M305.543 247.89L295.376 237.178L335.803 194.209C337.679 192.212 340.221 191.123 342.944 191.123C345.667 191.123 348.209 192.212 350.085 194.209L350.146 194.27C352.203 196.449 353.293 199.353 353.172 202.379C353.051 205.405 351.659 208.189 349.359 210.126L305.543 247.89Z" fill="#FF3C00"/>
<path d="M339.981 201.36L260.092 277.098L263.548 280.743L343.437 205.005L339.981 201.36Z" fill="#256981"/>
<path opacity="0.5" d="M313.2 226.767L289.528 249.209L292.984 252.855L316.656 230.412L313.2 226.767Z" fill="#256981"/>
<path opacity="0.4" d="M282.065 256.217L267.352 270.166L270.808 273.811L285.521 259.863L282.065 256.217Z" fill="#256981"/>
<path d="M351.054 201.411C351.054 203.529 350.267 205.224 349.42 205.163C348.512 205.163 347.846 203.469 347.846 201.35C347.846 199.232 348.633 197.538 349.48 197.598C350.388 197.598 351.054 199.293 351.054 201.411Z" fill="white"/>
<path opacity="0.3" d="M257.914 214.544L282.546 173.391L301.367 171.333L318.252 169.517L321.581 169.154C312.624 183.376 306.693 204.195 302.336 221.988C301.73 223.622 301.609 225.377 301.912 227.071C302.033 227.737 301.609 225.619 302.396 229.492L302.578 229.432L304.454 229.069L304.151 227.556C304.151 227.556 306.027 228.705 308.024 228.342L311.898 227.556C312.261 227.495 312.624 227.314 312.866 227.071L314.803 225.256L315.831 224.288C315.831 224.288 314.621 222.714 311.958 224.953C311.898 225.014 311.837 225.074 311.656 225.195C311.535 225.256 311.414 225.316 311.293 225.377C310.082 225.498 308.327 225.558 306.935 225.195C306.572 225.074 306.209 224.832 305.906 224.53C305.785 224.409 305.664 224.288 305.604 224.106C305.362 223.743 305.301 223.319 305.543 222.896L333.866 168.549C334.895 166.491 334.895 164.071 333.745 162.134C332.898 160.621 331.506 159.532 329.872 158.987C329.751 159.108 329.69 159.169 329.569 159.29C327.451 161.529 325.212 163.889 322.912 166.37C322.731 165.644 322.186 164.978 321.399 164.615C321.157 164.494 320.915 164.373 320.673 164.313C320.431 164.252 320.249 164.131 320.007 164.071C311.414 160.984 307.359 167.399 307.359 167.399L305.241 169.941C299.431 166.855 292.895 165.947 286.722 167.097C286.601 167.097 286.479 167.157 286.298 167.157C283.635 167.702 281.093 168.61 278.673 169.82C278.188 170.062 277.704 170.365 277.22 170.667C276.857 170.909 276.494 171.091 276.131 171.333C275.404 171.817 274.739 172.301 274.073 172.846C273.71 173.088 273.407 173.391 273.105 173.693C272.439 174.238 271.834 174.843 271.229 175.509C270.926 175.811 270.623 176.175 270.321 176.477L253.799 195.48L253.254 196.146L246.355 212.547C240.787 215.391 234.977 219.749 229.591 224.59C229.168 225.437 228.804 226.285 228.502 227.192C227.291 230.461 226.505 234.636 227.655 238.933L252.71 220.354C254.767 218.72 256.522 216.783 257.914 214.544Z" fill="#132B56"/>
<path opacity="0.5" d="M334.895 119.407L319.523 108.453C316.497 97.5597 312.745 95.623 312.745 95.623L313.229 102.704L315.226 110.45L334.895 119.407Z" fill="#132B56"/>
<path d="M275.283 155.961C275.283 155.961 264.329 145.552 254.646 149.667L273.649 131.935L275.283 155.961Z" fill="#173468"/>
<path d="M311.171 91.4471L314.258 82.7323L306.996 75.5305L302.275 83.7612C302.275 83.7612 302.517 89.5105 311.171 91.4471Z" fill="#FFB68E"/>
<path d="M311.898 81.9458L308.932 86.0611C306.209 86.9084 302.638 83.2167 302.638 83.2167L303.97 88.2398L308.327 91.2658L308.448 90.5396L310.143 92.0525C310.324 92.1736 310.506 92.2946 310.748 92.4157L312.745 86.7874L311.898 81.9458Z" fill="#FFA675"/>
<path d="M227.473 131.33L224.992 134.053C224.75 134.356 224.568 134.719 224.568 135.142V135.687C224.568 136.111 224.386 136.595 224.144 136.958L222.147 140.105C221.966 140.407 221.542 140.528 221.179 140.347C220.876 140.165 220.755 139.742 220.876 139.439L221.905 137.745L219.363 139.863C219.121 140.044 218.758 140.105 218.516 139.863C218.213 139.621 218.213 139.197 218.455 138.894L219.242 138.289C218.577 138.713 218.274 138.592 218.032 138.35C217.79 138.108 217.729 137.745 217.971 137.503L218.334 137.018C218.153 137.26 217.79 137.26 217.608 137.079C217.366 136.897 217.366 136.534 217.548 136.353L217.85 135.99C217.669 136.111 217.427 136.111 217.245 135.929C217.064 135.747 217.003 135.445 217.185 135.203L219.121 132.843C219.242 132.661 219.545 132.54 219.787 132.479L223.297 132.056L225.597 129.574L227.473 131.33Z" fill="#FFB68E"/>
<path d="M303.485 117.834L305.301 116.079L307.359 100.525L303.848 93.0813L303.485 117.834Z" fill="#223166"/>
<path d="M310.264 90.9631C310.264 90.9631 319.099 100.041 314.681 117.047C312.321 126.064 296.768 151.483 296.768 151.483L310.264 90.9631Z" fill="#132B56"/>
<path d="M310.748 92.1735C310.748 92.1735 317.163 108.09 309.537 124.249L295.678 153.54L272.802 145.31L275.525 117.471L282.183 96.6519C283.938 91.0841 288.658 86.9688 294.347 85.8794L302.396 84.3665L306.027 89.8737L310.748 92.1735Z" fill="#FFB600"/>
<path d="M311.232 93.6865L309.598 96.4099L307.903 93.2629L310.385 91.9919L311.232 93.6865Z" fill="#FF3C00"/>
<path opacity="0.5" d="M274.376 127.638L302.517 99.8594C302.517 99.8594 298.341 122.554 283.211 131.995L278.188 136.232L275.707 146.338L272.802 145.309L274.376 127.638Z" fill="#DEF2F9"/>
<path d="M301.185 83.9429C301.185 83.9429 310.021 105.548 286.842 125.338L252.044 152.572C252.044 152.572 246.415 139.984 273.831 122.191L276.615 101.615C277.099 97.8623 278.733 94.3522 281.275 91.5078C283.453 89.087 286.298 87.453 289.384 86.6662L301.185 83.9429Z" fill="#132B56"/>
<path opacity="0.4" d="M273.77 122.191C273.407 122.494 273.044 122.736 272.681 122.978L276.857 126.064L273.77 122.191Z" fill="#B0C6DD"/>
<path d="M309.416 94.6548C308.629 99.6174 307.298 104.459 305.543 109.119C303.364 114.747 300.52 120.255 296.404 124.733C294.347 126.972 292.047 128.848 289.384 130.301C286.842 131.693 283.998 132.6 281.093 132.903C279.217 133.145 277.341 133.085 275.525 132.964C273.891 132.843 270.684 132.177 270.684 132.177L266.084 137.079L269.11 142.465C269.11 142.465 274.254 142.768 276.857 142.465C279.762 142.163 282.606 141.618 285.39 140.589C288.113 139.621 290.716 138.229 293.076 136.534C295.497 134.719 297.615 132.6 299.491 130.24C301.367 127.88 302.941 125.157 304.272 122.433C305.603 119.649 306.632 116.744 307.48 113.839C308.932 108.695 309.84 103.37 310.142 97.9834C310.203 97.0756 310.263 96.2283 310.263 95.3205C310.263 95.1389 310.263 94.8969 310.263 94.7153C310.263 94.6548 310.263 94.6548 310.203 94.6548C309.9 94.7153 309.658 94.6548 309.416 94.6548Z" fill="#FF3C00"/>
<path d="M306.814 73.231C309.961 71.2944 314.742 68.8736 317.102 70.3261L318.01 71.6575L319.402 73.7757C319.402 73.7757 319.22 74.3809 319.281 74.9861C319.341 75.3492 319.765 75.6518 320.128 75.8939C320.551 76.136 321.036 76.4991 321.399 76.8622L323.456 78.7988C323.698 79.0409 323.698 79.404 323.456 79.7066L321.762 80.0697L321.883 81.4012C322.185 81.3407 322.488 81.5222 322.549 81.8248C322.609 82.0669 322.549 82.309 322.367 82.43C322.428 82.4905 322.549 82.6116 322.549 82.7326C322.609 83.0352 322.428 83.3983 322.125 83.4588C322.064 83.4588 322.064 83.4588 322.004 83.4588L322.064 84.4271L323.033 87.8768L322.125 89.3897L312.744 87.7557L311.292 82.8536H306.511L303.727 75.2887C303.727 75.2887 304.998 74.3204 306.814 73.231Z" fill="#FFB68E"/>
<path d="M304.332 80.0091L306.511 82.8535H311.232L312.684 87.7556L322.065 89.3896L322.972 87.8767L322.004 84.4271L318.433 87.0294L314.439 84.0034L312.321 81.159L310.99 76.4385L312.2 75.1071L311.111 71.5364C311.111 71.5364 315.408 72.0206 317.949 71.6575C318.01 71.6575 318.07 71.6575 318.131 71.6575C320.673 71.2338 320.915 68.571 320.189 66.6949C319.583 65.1819 318.07 63.8504 316.073 65.2424C314.137 66.6343 302.759 66.0291 300.399 68.8736C298.099 71.718 300.641 73.1099 300.641 73.1099C300.641 73.1099 300.217 74.7439 300.52 76.5595C300.943 78.3751 304.332 80.0091 304.332 80.0091Z" fill="#4A3649"/>
<path d="M314.923 74.5018L319.038 73.7151L318.917 74.6834L317.283 75.1676C317.283 75.1676 315.649 74.5624 314.318 75.5307L314.923 74.5018Z" fill="#4A3649"/>
<path d="M318.554 75.1069L318.675 76.0752L316.557 76.3778L318.554 75.1069Z" fill="#543E36"/>
<path d="M304.332 80.0092L306.511 82.8536H311.231L312.684 87.7557L322.064 89.3897L322.972 87.8768L322.004 84.4271L318.433 87.0295L314.439 84.0035L312.321 81.1591L310.989 76.4386L312.2 75.1071L312.139 74.9861L307.479 73.7152L309.174 70.8103L306.208 73.231L308.508 70.2051C305.301 72.0812 302.638 72.2627 301.911 72.2627C303.848 72.2022 307.177 69.963 307.177 69.963C304.393 70.2051 302.093 69.7814 300.338 69.1157C298.341 71.7786 300.762 73.11 300.762 73.11C300.762 73.11 300.338 74.744 300.641 76.5596C300.943 78.3752 304.332 80.0092 304.332 80.0092Z" fill="#32062F"/>
<path d="M311.171 76.378C311.171 76.378 310.203 75.8333 309.537 76.5595C309.174 76.9226 309.113 77.5278 309.295 78.012C309.779 79.0408 310.929 81.159 312.26 80.3723L311.171 76.378Z" fill="#FFB68E"/>
<path d="M303.909 94.1101C301.972 87.3319 301.73 86.9688 301.186 83.9428L302.699 83.2166C304.938 86.5451 306.33 88.5423 311.232 91.4472L313.653 95.3204C311.595 94.7758 311.292 93.6864 311.292 93.6864L310.445 92.0524C309.295 92.8997 306.996 94.4127 303.909 94.1101Z" fill="#FFB600"/>
<path opacity="0.5" d="M291.382 93.5049L276.675 101.251C276.675 101.372 276.615 101.554 276.615 101.675L274.012 121.041L278.915 110.269L280.791 109.24C285.39 106.698 288.779 102.401 290.292 97.3781L291.382 93.5049Z" fill="#132B56"/>
<path d="M300.459 84.5481C300.459 84.5481 309.658 110.027 278.007 131.088C278.007 131.088 298.704 110.692 294.65 94.6548L298.825 93.5655L292.713 91.5078L300.459 84.5481Z" fill="#173468"/>
<path d="M289.384 86.7268L252.165 100.162C250.349 100.828 248.715 101.917 247.444 103.37L223.358 131.148L225.96 133.569L253.194 108.574L283.998 102.462C288.113 101.675 292.289 97.1967 291.684 93.0208L289.384 86.7268Z" fill="#132B56"/>
<path d="M267.174 95.0785C267.174 95.0785 274.86 87.8162 289.384 86.7268L280.125 92.113L267.174 95.0785Z" fill="#132B56"/>
<path d="M336.832 165.644C337.86 163.587 337.861 161.166 336.711 159.229C335.561 157.232 333.503 155.961 331.264 155.78L295.678 153.54L282.667 170.728L324.607 166.128C315.65 180.35 309.719 201.169 305.362 218.962C304.756 220.596 304.635 222.351 304.938 224.045C305.059 224.711 304.635 222.593 305.422 226.466L305.604 226.406L307.48 226.043L307.177 224.53C307.177 224.53 309.053 225.679 311.05 225.316L314.924 224.53C315.287 224.469 315.65 224.288 315.892 224.045L317.829 222.23L318.857 221.262C318.857 221.262 317.647 219.688 314.984 221.927C314.924 221.988 314.863 222.048 314.682 222.169C314.561 222.23 314.439 222.29 314.318 222.351C313.108 222.472 311.353 222.532 309.961 222.169C309.598 222.048 309.235 221.806 308.932 221.504C308.811 221.383 308.69 221.262 308.63 221.08C308.388 220.717 308.327 220.293 308.569 219.87L336.832 165.644Z" fill="#132B56"/>
<path opacity="0.5" d="M294.71 154.63L286.479 165.644L283.211 170.607L321.278 166.431L296.828 165.221C295.739 165.16 294.71 164.615 294.044 163.768C293.379 162.921 293.137 161.771 293.379 160.742L294.71 154.63Z" fill="#132B56"/>
<path d="M272.802 145.31C265.721 153.117 269.655 161.287 269.655 161.287L249.381 209.521C230.015 219.385 208.349 247.769 208.349 247.769C206.775 248.314 204.657 248.919 204.657 248.919L205.565 251.098L207.017 250.492C207.017 250.492 206.231 252.671 207.017 254.608L210.346 262.717C210.346 262.717 212.767 261.931 211.556 258.481C211.556 258.481 210.225 255.213 210.346 252.671C210.346 252.429 210.346 252.066 210.406 251.763C210.406 251.34 210.588 250.916 210.83 250.553L210.891 250.613L255.796 217.328C257.914 215.754 259.669 213.818 261.001 211.578L295.739 153.601L272.802 145.31Z" fill="#132B56"/>
</g>
</g>
<rect x="-55.5" y="-90.5" width="585" height="541" rx="19.5" stroke="#F0AD99"/>
<defs>
<clipPath id="clip0_2131_1813">
<rect x="-56" y="-91" width="586" height="542" rx="20" fill="white"/>
</clipPath>
<clipPath id="clip1_2131_1813">
<rect width="651.371" height="487" fill="white" transform="translate(-56 44)"/>
</clipPath>
</defs>
</svg>
