<svg width="530" height="427" viewBox="0 0 530 427" fill="none" xmlns="http://www.w3.org/2000/svg">
<g clip-path="url(#clip0_2131_2160)">
<rect width="530" height="427" fill="#FCEDE9"/>
<g clip-path="url(#clip1_2131_2160)">
<path d="M409.872 173.495C409.872 173.495 389.733 222.808 369.336 231.07C341.969 241.914 302.982 244.754 302.982 244.754L300.917 234.943C300.917 234.943 337.838 221.001 359.784 206.026C368.304 200.346 385.086 152.323 388.184 148.451C392.831 143.029 414.261 149.225 409.872 173.495Z" fill="#004345"/>
<g opacity="0.58">
<path d="M383.536 158.52H394.638L393.347 176.335L376.565 175.302L383.536 158.52Z" fill="#003030"/>
<path d="M393.606 176.851H405.999L396.962 194.149L393.864 194.666L393.606 176.851Z" fill="#003030"/>
<path d="M376.565 175.302H377.856L376.307 193.117L368.303 193.375L376.565 175.302Z" fill="#003030"/>
<path d="M376.823 193.117H394.38L389.991 209.899L377.081 210.673L376.823 193.117Z" fill="#003030"/>
<path d="M394.38 146.902C403.416 146.127 410.129 151.807 408.58 160.069V160.327L394.638 160.069L394.38 146.902Z" fill="#003030"/>
<path d="M358.75 210.415H376.307L375.016 228.23L359.008 227.972L358.75 210.415Z" fill="#003030"/>
<path d="M357.459 207.575L359.783 206.026V210.415H352.554L357.459 207.575Z" fill="#003030"/>
<path d="M337.837 219.193H349.714L348.423 237.008L332.415 236.75V221.517L337.837 219.193Z" fill="#003030"/>
<path d="M304.273 233.394L321.571 226.423L320.28 243.205L304.531 242.947L304.273 233.394Z" fill="#003030"/>
</g>
<path d="M300.917 234.685C300.917 234.685 284.135 232.878 282.586 235.718C281.037 238.299 286.459 237.525 285.942 239.332C285.426 241.139 266.32 245.012 269.16 247.078C272 249.143 277.938 248.111 277.938 248.111C277.938 248.111 270.193 250.434 272.258 251.467C274.324 252.5 281.811 250.692 281.811 250.692C281.811 250.692 277.422 253.532 279.746 254.307C282.069 255.082 287.233 253.274 287.233 253.274C287.233 253.274 284.135 258.696 287.233 257.147C290.073 255.598 302.982 244.496 302.982 244.496L300.917 234.685Z" fill="#EF8B59"/>
<path d="M404.966 187.695C409.355 180.208 410.904 164.975 407.806 156.713C407.548 155.68 406.515 161.36 406.515 161.876C405.999 174.786 377.34 209.899 375.274 212.739C373.209 215.321 371.143 223.583 370.627 221.259C370.111 218.936 368.562 207.317 367.271 208.35C364.689 210.157 369.594 224.874 369.594 224.874C369.594 224.874 362.107 216.095 361.591 217.903C361.074 219.71 365.205 229.005 364.689 229.263C364.172 229.521 359.009 222.034 358.234 225.132C357.46 228.23 358.492 231.587 354.62 232.361C350.747 233.394 302.466 241.914 302.466 241.914L304.015 245.271C304.015 245.271 343.259 240.623 365.205 233.652C380.438 228.488 395.671 202.928 404.966 187.695Z" fill="#003030"/>
<path d="M299.368 234.168L301.433 246.303L304.79 244.754L302.466 234.168H299.368Z" fill="white"/>
<path d="M438.272 146.385C438.272 146.385 426.654 120.567 427.17 112.305C427.686 104.043 429.752 87.0023 416.068 83.3877C402.384 79.7731 397.22 92.1661 396.188 97.0716C394.897 101.977 392.573 115.403 393.348 115.661C394.122 115.919 397.22 114.112 397.22 114.112C397.22 114.112 395.93 122.632 399.544 125.73C403.159 128.57 408.322 128.054 408.322 128.054C408.322 128.054 411.421 136.058 410.388 139.672C409.355 143.287 407.29 147.676 407.29 147.676C407.29 147.676 434.141 159.295 438.272 146.385Z" fill="#FFB68E"/>
<path d="M426.654 149.483C426.654 149.483 426.653 149.225 426.395 148.709C425.363 145.869 422.006 135.799 419.682 126.247C417.101 114.886 414.261 104.301 416.842 103.526C420.973 102.235 422.523 96.0388 422.523 96.0388C422.523 96.0388 417.875 92.4241 417.101 94.4896C416.326 96.5551 416.068 101.202 415.035 101.202C414.002 101.202 413.228 98.8788 410.646 94.2315C408.064 89.5841 404.966 88.035 404.966 88.035C404.966 88.035 411.421 87.5186 415.81 88.5513C420.199 89.5841 428.461 115.403 429.752 122.632C430.784 129.861 438.788 146.643 438.788 146.643C438.788 146.643 430.526 155.938 426.654 149.483Z" fill="#EF8B59"/>
<path d="M429.752 122.632C429.752 122.632 423.297 118.501 420.974 113.595C418.65 108.69 418.134 106.108 419.425 104.301C421.748 100.17 419.941 91.9076 417.875 93.9731C415.81 96.0386 416.326 102.235 414.777 100.428C413.228 98.8786 414.519 91.133 409.872 88.5512C405.224 85.9693 400.577 89.0676 396.962 87.2602C391.282 84.4202 398.512 78.9983 411.937 78.2237C416.585 77.9655 424.33 78.7401 427.687 84.4202C430.01 88.0348 425.105 90.6167 429.494 90.8749C433.883 91.133 435.949 93.9731 435.432 97.3295C434.399 104.559 427.687 113.853 429.752 122.632Z" fill="#172755"/>
<path d="M420.458 100.17C420.458 100.17 424.589 103.01 428.203 98.8788C431.818 94.7478 432.334 91.6495 432.334 91.6495C432.334 91.6495 436.723 92.6823 435.691 97.846C434.658 103.268 430.527 111.014 430.01 115.145C429.236 119.275 429.752 122.632 429.752 122.632C429.752 122.632 421.748 119.017 418.65 108.69C417.876 105.592 420.199 102.235 420.458 100.17Z" fill="#020023"/>
<path d="M432.85 548.898C432.85 548.898 426.653 472.475 425.621 444.849C424.588 413.866 410.646 302.33 419.424 290.453C424.846 283.224 445.243 293.293 451.698 295.101C459.96 297.682 451.439 286.839 455.829 290.453C465.898 298.973 467.705 312.141 467.189 326.857C465.898 371.524 455.829 443.3 455.829 443.3L459.185 547.091L432.85 548.898Z" fill="#087777"/>
<path d="M402.384 427.034C402.384 427.034 432.334 330.988 431.559 327.116C430.785 323.501 431.301 311.883 447.309 312.657C463.316 313.432 461.767 306.977 461.767 306.977C461.767 306.977 412.97 273.671 405.741 274.962C398.77 276.253 387.151 288.904 387.151 288.904C387.151 288.904 381.988 387.531 383.537 432.198C385.086 476.864 386.635 544.509 386.635 544.509L405.224 545.8L402.384 427.034Z" fill="#087777"/>
<path d="M386.635 295.359C386.635 295.359 393.606 302.588 408.839 307.235C424.847 312.141 447.051 313.69 448.083 316.014C449.116 318.337 454.28 421.87 452.473 424.194C450.665 426.518 438.789 437.103 440.596 437.103C442.403 437.103 454.538 430.132 454.28 431.681C454.022 433.23 441.371 448.463 444.985 447.172C448.6 445.881 454.28 442.009 454.28 442.009C454.28 442.009 450.923 448.205 451.182 449.754C451.698 451.303 428.461 494.421 428.461 494.421L430.527 559.484H463.833L461.509 441.492C461.509 441.492 468.738 330.472 468.738 322.21C468.738 313.948 468.738 300.781 468.738 300.781C468.738 300.781 460.218 309.559 450.665 306.203C441.371 303.104 425.879 291.744 425.879 291.744L394.122 291.486L386.635 295.359Z" fill="#004345"/>
<path d="M428.719 290.97C428.719 290.97 417.875 292.002 407.548 290.97C400.576 290.195 394.638 288.646 394.638 288.646C394.638 288.646 401.867 277.802 410.388 277.802C417.1 277.802 428.719 290.97 428.719 290.97Z" fill="#CFE5E1"/>
<path d="M452.731 334.345C468.996 337.701 477.775 332.279 477 328.148C474.676 312.399 460.476 222.292 466.156 204.477C472.869 183.306 470.546 159.553 464.865 155.938C457.894 151.549 426.912 145.352 407.548 145.352C406.773 145.352 406.257 145.094 405.483 145.094C399.028 145.094 393.864 146.385 392.315 148.451C385.344 156.196 374.242 194.666 380.18 212.997C386.119 231.329 382.504 284.257 382.504 284.257C382.504 284.257 411.679 266.184 428.719 287.613C442.92 305.17 440.338 331.763 452.731 334.345Z" fill="#004345"/>
<path d="M440.079 149.484L412.97 207.317L407.29 145.611C407.548 145.611 432.85 147.418 440.079 149.484Z" fill="white"/>
<path d="M423.039 186.146C423.039 186.146 429.494 166.524 426.137 156.971C424.846 153.614 422.006 152.065 422.006 152.065L416.584 152.84L408.322 153.614L407.29 144.836L412.97 144.062L418.392 146.385L436.981 148.193L440.596 148.709L423.039 186.146Z" fill="#CFE5E1"/>
<path d="M416.068 145.094L420.716 154.131C420.716 154.131 427.945 147.16 427.945 146.385C427.945 145.611 416.068 145.094 416.068 145.094Z" fill="#FF3C00"/>
<path d="M420.199 150L411.421 189.761L412.97 208.35L420.457 191.568L422.781 149.484L420.199 150Z" fill="#FF3C00"/>
<path d="M401.093 221.259C401.093 221.259 407.031 243.205 418.65 262.311C433.625 287.097 452.989 331.247 452.989 331.247L452.472 334.345C441.37 333.828 420.973 287.355 412.711 279.351C410.388 277.286 395.155 325.308 390.766 328.665C383.02 334.345 383.02 330.988 380.955 329.956C378.373 328.407 383.536 232.619 380.955 222.808C378.373 212.997 374.5 199.83 375.016 195.44C375.533 191.051 391.024 148.192 391.024 148.192C391.024 148.192 394.122 144.578 402.384 144.578C405.482 144.578 405.482 144.578 405.482 144.578L405.74 209.641L401.093 221.259Z" fill="#046865"/>
<g opacity="0.53">
<path d="M449.633 178.917L469.255 181.24L456.346 200.088L447.309 198.797L449.633 178.917Z" fill="#003030"/>
<path d="M432.334 196.99L448.083 199.572L443.952 219.452L425.879 216.87L427.686 202.154L432.334 196.99Z" fill="#003030"/>
<path d="M444.469 219.452L464.091 222.034L460.218 242.172L442.145 239.591L444.469 219.452Z" fill="#003030"/>
<path d="M422.781 237.009L442.403 239.591L438.53 259.471L420.457 256.889L422.781 237.009Z" fill="#003030"/>
<path d="M407.289 213.256L426.911 215.838L422.78 235.976L404.966 233.394L407.289 213.256Z" fill="#003030"/>
<path d="M382.762 231.845L405.225 233.394L401.094 253.275L381.73 251.209L382.762 231.845Z" fill="#003030"/>
<path d="M400.835 254.307L420.457 256.889L416.326 276.769L398.253 274.188L400.835 254.307Z" fill="#003030"/>
<path d="M416.068 276.769L435.69 279.351L431.559 299.49L425.105 298.457L415.293 282.449L416.068 276.769Z" fill="#003030"/>
<path d="M436.981 259.213L456.603 261.795L452.472 281.933L434.657 279.351L436.981 259.213Z" fill="#003030"/>
<path d="M458.669 242.173L466.415 243.205L468.222 263.86L456.345 262.053L458.669 242.173Z" fill="#003030"/>
<path d="M452.73 282.191L470.803 284.515L471.578 289.679L468.48 304.654L450.406 302.072L452.73 282.191Z" fill="#003030"/>
<path d="M431.043 299.49L450.665 302.072L446.534 321.952L438.789 320.661L429.494 306.461L431.043 299.49Z" fill="#003030"/>
<path d="M446.793 321.952L466.415 324.534L464.092 335.378H457.637C450.924 335.378 446.793 332.279 445.76 329.439L446.793 321.952Z" fill="#003030"/>
<path d="M467.188 305.17L473.901 305.945L476.483 326.858L464.865 325.051L467.188 305.17Z" fill="#003030"/>
<path d="M381.213 273.155L397.737 274.704L393.606 294.584L380.697 293.293L381.213 273.155Z" fill="#003030"/>
<path d="M394.381 294.584L405.225 296.134L397.737 315.498L391.799 314.723L394.381 294.584Z" fill="#003030"/>
<path d="M380.438 312.399L392.057 314.465L389.217 328.149C388.7 330.989 385.344 332.538 382.762 331.247L380.438 330.214V312.399Z" fill="#003030"/>
<path d="M377.598 209.383L389.733 210.932L385.602 230.812L383.278 230.554L377.598 209.383Z" fill="#003030"/>
<path d="M390.766 191.309L399.544 192.6L406.773 212.223L406.515 214.03L388.442 211.448L390.766 191.309Z" fill="#003030"/>
<path d="M382.762 170.655L394.897 171.688L390.766 191.568L376.566 189.503L382.762 170.655Z" fill="#003030"/>
</g>
<path d="M410.388 228.746L411.421 259.471L416.068 221.517L438.272 193.375V190.793L455.312 178.658C455.312 178.658 469.771 166.007 465.382 156.454C464.349 153.872 453.247 151.291 453.247 151.291L439.047 186.662L431.043 185.113L434.916 194.149L410.388 222.808V228.746Z" fill="#003030"/>
<path d="M412.97 280.126C412.712 280.126 412.453 279.868 412.453 279.609L409.872 222.808L410.13 222.55L434.399 194.15L430.268 184.339L439.047 186.146L452.472 154.647C452.731 154.389 452.989 154.131 453.247 154.389C453.505 154.647 453.763 154.905 453.505 155.163L439.563 187.695L432.076 186.146L435.69 194.408L411.163 223.325L413.744 279.609C413.486 279.868 413.228 280.126 412.97 280.126Z" fill="#020023"/>
<path d="M392.056 148.967V178.917H399.544L394.638 185.371L410.388 222.808L399.027 185.888L403.158 176.335L396.187 173.753V147.418L392.056 148.967Z" fill="#003030"/>
<path d="M463.575 335.894C461.251 335.894 457.636 335.636 452.473 334.861C444.469 333.828 434.141 315.239 424.847 298.973C419.941 290.195 415.035 281.675 412.712 279.867C411.421 281.158 407.806 290.453 404.708 298.715C399.544 311.883 393.864 327.116 390.25 329.697C387.926 331.505 385.602 332.279 383.537 331.763C381.471 331.505 380.438 329.956 380.438 329.956C380.18 329.697 380.438 329.181 380.697 329.181C380.955 328.923 381.471 329.181 381.471 329.439C381.471 329.439 382.246 330.472 383.795 330.73C385.344 330.988 387.151 330.472 389.475 328.923C392.831 326.599 398.77 311.108 403.417 298.457C408.581 285.031 410.904 279.351 412.195 278.835C412.454 278.835 412.712 278.835 412.97 278.835C415.81 280.384 420.199 288.388 425.879 298.457C434.399 313.69 445.243 332.538 452.473 333.57C464.349 335.119 467.706 334.087 467.706 334.087C467.964 333.828 468.48 334.087 468.48 334.345C468.738 334.603 468.48 335.119 468.222 335.119C468.48 335.378 467.189 335.894 463.575 335.894Z" fill="#020023"/>
<path d="M401.094 210.157H382.762C382.504 210.157 382.246 209.899 382.246 209.641C382.246 209.383 382.504 209.125 382.762 209.125H401.094C401.352 209.125 401.61 209.383 401.61 209.641C401.868 209.899 401.61 210.157 401.094 210.157Z" fill="#020023"/>
<path d="M459.959 266.958L438.788 265.151C438.53 265.151 438.272 264.893 438.272 264.376C438.272 264.118 438.53 263.86 439.046 263.86L460.218 265.667C460.476 265.667 460.734 265.925 460.734 266.442C460.734 266.7 460.218 266.958 459.959 266.958Z" fill="#020023"/>
<path d="M383.278 272.897C383.02 272.897 382.762 272.638 382.762 272.38C382.762 272.122 383.02 271.606 383.278 271.606L395.671 269.282C395.929 269.282 396.446 269.54 396.446 269.798C396.446 270.057 396.188 270.573 395.929 270.573L383.278 272.897Z" fill="#020023"/>
<path d="M392.831 199.055L385.602 209.125H398.253L392.831 199.055Z" fill="#FF3C00"/>
<path d="M389.733 209.125L393.864 203.186L392.057 199.83L392.831 199.055L398.253 209.125H389.733Z" fill="#BC2800"/>
<path d="M435.69 151.291L439.047 146.643L430.268 143.029L425.879 148.193L428.461 149.483L428.977 151.807L435.69 151.291Z" fill="white"/>
<path d="M417.616 147.934L414.518 141.479H406.514L409.354 147.934L413.744 149.483L414.518 146.901L417.616 147.934Z" fill="white"/>
<path d="M428.72 150.516L424.072 150.258L426.654 147.418H428.72V150.516Z" fill="#BC2800"/>
<path d="M417.101 146.902L414.519 145.611L414.003 148.709L418.65 150.258L417.101 146.902Z" fill="#BC2800"/>
<path d="M424.072 150.516L420.974 152.324L418.392 149.484L419.683 152.582L422.781 152.84L424.072 150.516Z" fill="#BC2800"/>
<path d="M422.007 368.942C422.007 368.942 422.781 359.905 420.457 355.258C419.167 352.676 412.454 350.61 411.163 345.705C410.13 341.832 410.388 316.272 410.388 316.272C410.388 316.272 403.417 382.884 401.352 394.502C399.028 406.121 398.77 419.546 398.77 419.546C398.77 419.546 381.471 424.968 384.311 426.259C387.41 427.55 399.803 423.935 399.028 426.259C398.253 428.583 383.795 436.587 386.893 436.587C389.991 436.587 399.803 432.456 399.544 433.746C399.028 435.037 392.315 444.59 392.315 444.59L401.352 440.976L385.602 505.522L384.311 560L416.843 559.225C416.843 559.225 416.068 434.779 416.843 427.292C417.359 419.804 422.007 368.942 422.007 368.942Z" fill="#004345"/>
<path d="M447.309 445.623C447.051 445.623 446.792 445.623 446.792 445.365C446.534 445.107 446.534 444.591 447.051 444.591L457.378 437.361C459.96 435.812 461.767 432.714 462.025 429.358C462.284 426.776 462.542 424.71 462.542 423.161C462.8 418.772 467.705 335.636 467.705 334.861C467.705 334.603 467.964 334.345 468.48 334.345C468.738 334.345 468.996 334.603 468.996 335.12C468.996 335.894 464.091 419.288 463.833 423.419C463.833 424.968 463.575 427.034 463.316 429.616C462.8 433.23 460.993 436.587 458.153 438.394L447.825 445.623C447.567 445.623 447.309 445.623 447.309 445.623Z" fill="#020023"/>
<path d="M448.599 440.718C448.341 440.718 448.341 440.718 448.083 440.46C447.824 440.201 447.824 439.943 448.083 439.427L456.345 428.325L444.726 432.456C444.468 432.456 443.952 432.456 443.952 432.198C443.952 431.94 443.952 431.423 444.21 431.423L457.894 426.518C458.152 426.518 458.41 426.518 458.668 426.776C458.926 427.034 458.926 427.292 458.668 427.55L448.857 440.201C448.857 440.718 448.599 440.718 448.599 440.718Z" fill="#020023"/>
<path d="M388.442 437.103C388.184 437.103 387.926 436.845 387.926 436.587C387.926 436.329 387.926 435.812 388.442 435.812C398.511 432.714 413.744 427.808 416.068 426.776L420.973 370.491L419.941 355C418.65 354.225 413.486 351.127 411.162 346.996C408.58 342.09 409.613 317.305 409.613 316.272C409.613 316.014 409.871 315.497 410.388 315.755C410.646 315.755 410.904 316.014 410.904 316.53C410.388 325.308 410.13 343.123 412.195 346.738C414.777 351.127 420.715 354.225 420.715 354.483C420.973 354.483 420.973 354.742 420.973 355L422.006 371.007L417.101 427.808C417.101 428.067 416.842 428.325 416.842 428.325C415.293 428.841 391.282 436.329 388.442 437.103Z" fill="#020023"/>
<path d="M387.667 425.743C387.151 425.743 386.893 425.226 387.151 424.968C387.151 424.71 387.667 424.452 387.925 424.452C388.7 424.452 396.187 422.903 402.126 421.612L394.638 419.804C394.38 419.804 394.122 419.288 394.122 419.03C394.122 418.772 394.638 418.513 394.896 418.513L405.224 421.095C405.482 421.095 405.74 421.353 405.74 421.612C405.74 421.87 405.482 422.128 405.224 422.128C390.765 425.226 388.184 425.743 387.667 425.743Z" fill="#020023"/>
<path d="M466.673 271.347C466.414 271.347 466.156 271.089 466.156 270.831L452.73 224.874C452.73 224.616 452.731 224.099 453.247 224.099C453.505 224.099 454.021 224.099 454.021 224.616L467.447 270.573C467.447 270.831 467.189 271.089 466.673 271.347Z" fill="#020023"/>
<path d="M464.865 240.623C464.607 240.623 464.348 240.365 464.348 240.107L457.894 217.128C457.894 216.87 457.894 216.354 458.41 216.354C458.668 216.354 459.185 216.354 459.185 216.87L465.639 239.849C465.639 240.107 465.381 240.623 464.865 240.623Z" fill="#020023"/>
<path d="M468.48 184.339C468.48 184.339 438.272 237.009 414.003 242.947C381.471 251.209 337.321 248.369 337.321 248.369L336.547 237.009C336.547 237.009 380.18 226.939 407.29 213.514C417.876 208.35 443.952 156.713 448.083 153.098C451.44 150 460.735 150.258 466.156 156.971C470.546 162.135 472.353 172.462 468.48 184.339Z" fill="url(#paint0_linear_2131_2160)"/>
<g opacity="0.58">
<path d="M441.112 163.426L453.763 166.266L449.374 185.114L430.784 181.241L441.112 163.426Z" fill="#003030"/>
<path d="M449.633 185.63L463.575 187.695L450.665 205.51L447.309 205.768L449.633 185.63Z" fill="#003030"/>
<path d="M430.785 181.24L432.076 181.498L427.945 201.379L418.65 200.604L430.785 181.24Z" fill="#003030"/>
<path d="M428.461 201.379L448.083 203.961L440.596 222.292L425.879 221.517L428.461 201.379Z" fill="#003030"/>
<path d="M455.57 151.549C465.898 152.065 470.803 161.618 469.512 168.589V168.847L454.021 166.524L455.57 151.549Z" fill="#003030"/>
<path d="M405.482 218.161L425.104 220.743L420.973 240.882L403.158 238.042L405.482 218.161Z" fill="#003030"/>
<path d="M404.45 214.805L407.29 213.256L406.515 218.42L398.253 217.387L404.45 214.805Z" fill="#003030"/>
<path d="M380.18 224.358L393.864 226.681L389.733 246.562L371.918 243.98L373.467 226.681L380.18 224.358Z" fill="#003030"/>
<path d="M340.678 235.976L361.074 230.554L357.46 248.111L339.387 246.562L340.678 235.976Z" fill="#003030"/>
</g>
<path d="M336.547 237.008C336.547 237.008 317.958 232.619 315.892 235.201C313.827 238.041 320.023 237.783 319.248 239.849C318.474 241.914 296.27 243.463 299.11 246.045C301.95 248.627 308.663 248.369 308.663 248.369C308.663 248.369 299.368 249.66 301.692 251.467C304.015 253.016 312.536 251.983 312.536 251.983C312.536 251.983 307.114 254.307 309.696 255.856C312.277 257.147 318.216 255.856 318.216 255.856C318.216 255.856 314.085 261.536 317.699 260.245C321.314 258.954 337.321 248.369 337.321 248.369L336.547 237.008Z" fill="#FFB68E"/>
<path d="M460.735 198.022C471.837 182.015 471.837 173.753 469.513 163.942C469.255 162.909 466.415 170.396 466.415 170.655C464.091 185.113 426.396 220.485 423.556 223.067C420.974 225.648 417.101 234.685 416.843 231.845C416.585 229.005 416.585 215.837 414.778 216.87C411.679 218.677 415.036 235.718 415.036 235.718C415.036 235.718 408.065 224.616 407.29 226.681C406.516 228.488 409.872 239.59 409.098 239.849C408.581 240.107 403.676 230.812 402.385 234.169C401.094 237.525 401.868 241.398 397.221 241.914C392.574 242.431 337.063 244.754 337.063 244.754L338.354 248.885C338.354 248.885 383.279 249.402 409.098 245.012C427.171 241.914 449.375 214.546 460.735 198.022Z" fill="#003030"/>
<path d="M334.998 235.976L335.514 250.176L339.387 248.885L338.613 236.492L334.998 235.976Z" fill="white"/>
<path d="M415.81 105.075C415.81 105.075 415.81 105.334 415.81 105.85C416.068 108.948 416.585 118.759 415.81 121.599C415.035 124.956 413.745 126.763 407.29 128.828C401.093 130.636 391.799 130.119 392.831 125.988C393.606 122.116 396.962 113.854 396.962 113.854C396.962 113.854 404.708 115.919 408.064 113.337C411.421 110.755 412.454 100.944 414.519 101.977L415.81 105.075Z" fill="#172755"/>
<path d="M349.455 249.143C343.775 249.143 340.161 249.143 339.902 249.143C339.644 249.143 339.386 248.885 339.386 248.369C339.386 248.11 339.644 247.852 339.902 247.852C340.419 247.852 396.187 248.885 415.809 242.43C435.431 235.718 466.414 187.695 466.672 187.437C466.93 187.178 467.188 187.178 467.446 187.178C467.705 187.437 467.705 187.695 467.705 187.953C466.414 190.019 436.206 236.75 416.067 243.463C401.351 248.369 366.496 249.143 349.455 249.143Z" fill="#020023"/>
<path d="M417.618 242.43L407.032 227.197C406.774 226.939 406.774 226.423 407.29 226.423C407.548 226.165 408.065 226.165 408.065 226.681L416.068 238.041L414.777 217.386C414.777 217.128 415.036 216.612 415.294 216.612C415.552 216.612 416.068 216.87 416.068 217.128L417.618 242.43Z" fill="#020023"/>
<path d="M409.355 242.689C409.097 242.689 409.097 242.689 408.838 242.431L400.576 233.136C400.318 232.878 400.318 232.361 400.576 232.103C400.835 231.845 401.351 231.845 401.609 232.103L409.871 241.398C410.129 241.656 410.129 242.172 409.871 242.431C409.613 242.689 409.613 242.689 409.355 242.689Z" fill="#020023"/>
<path d="M117.862 146.902C117.862 146.902 127.157 120.308 126.641 112.821C126.124 105.333 124.575 89.8423 136.194 86.7441C148.07 83.3876 152.459 94.4897 153.492 98.8788C154.525 103.268 156.59 115.661 155.816 115.919C155.041 116.177 152.459 114.37 152.459 114.37C152.459 114.37 153.492 122.116 150.394 124.697C147.296 127.279 142.907 126.763 142.907 126.763C142.907 126.763 139.55 137.607 140.325 140.963C141.099 144.32 145.23 151.291 145.23 151.291C145.23 151.291 121.477 158.52 117.862 146.902Z" fill="#FFB68E"/>
<path d="M127.415 146.385C127.415 146.385 127.415 146.127 127.673 145.61C128.448 143.028 131.546 133.992 133.354 125.214C135.677 114.886 138.001 105.333 135.935 104.559C132.321 103.526 131.03 97.5876 131.03 97.5876C131.03 97.5876 134.903 94.2311 135.677 96.0384C136.452 97.8457 136.452 102.235 137.484 102.235C138.517 102.235 139.034 100.169 141.099 96.0384C143.423 91.9075 146.005 90.3583 146.005 90.3583C146.005 90.3583 140.325 89.842 136.71 90.8747C133.095 91.9075 125.866 115.144 124.833 121.857C124.059 128.57 117.346 149.225 117.346 149.225C117.346 149.225 124.059 152.323 127.415 146.385Z" fill="#EF8B59"/>
<path d="M124.575 122.116C124.575 122.116 129.997 118.243 132.063 113.854C134.128 109.464 134.386 107.141 133.354 105.333C131.288 101.719 132.837 94.2315 134.644 96.0388C136.452 97.8461 135.935 103.526 137.226 101.977C138.517 100.428 137.485 93.4569 141.357 91.3914C145.23 89.0677 149.619 92.166 152.459 90.3587C154.525 88.8095 157.623 85.4531 159.43 83.904C163.303 80.5476 168.725 70.4783 165.369 62.9909C161.754 54.7289 155.816 66.3473 145.23 70.7365C132.579 76.1584 119.153 82.6131 120.186 86.2277C121.219 90.1005 128.19 92.9405 124.575 93.1987C120.961 93.4569 119.153 95.7806 119.67 98.8788C120.702 105.592 126.641 114.37 124.575 122.116Z" fill="#172755"/>
<path d="M132.579 101.718C132.579 101.718 128.965 104.3 125.867 100.686C122.768 97.0711 122.51 93.9729 122.51 93.9729C122.51 93.9729 118.637 95.0056 119.412 99.653C120.445 104.559 123.801 111.53 124.317 115.402C124.834 119.275 124.576 122.115 124.576 122.115C124.576 122.115 131.547 118.759 134.129 109.464C134.903 106.882 132.838 103.784 132.579 101.718Z" fill="#020023"/>
<path d="M92.5599 546.316C92.5599 546.316 110.891 486.675 119.411 452.853C127.157 422.903 144.197 302.33 135.677 290.711C130.255 283.482 109.858 293.552 103.404 295.359C95.1418 297.941 103.662 287.097 99.2728 290.711C89.2035 299.232 87.3962 312.399 87.9126 327.116C89.2035 371.782 93.3345 441.234 93.3345 441.234L72.4214 546.832L92.5599 546.316Z" fill="#132B56"/>
<path d="M152.717 427.034C152.717 427.034 122.768 330.989 123.542 327.116C124.317 323.501 123.8 311.883 107.793 312.657C91.7852 313.432 93.3343 306.977 93.3343 306.977C93.3343 306.977 142.132 273.671 149.361 274.962C156.332 276.253 167.95 288.904 167.95 288.904C167.95 288.904 178.794 381.335 177.245 426.001C175.696 470.667 168.467 544.509 168.467 544.509L149.877 545.8L152.717 427.034Z" fill="#132B56"/>
<path d="M168.467 295.358C168.467 295.358 161.496 302.588 146.263 307.235C130.255 312.141 108.051 313.948 107.018 316.013C105.985 318.337 100.822 421.87 102.629 424.193C104.436 426.517 116.313 437.103 114.506 437.103C112.956 437.103 100.564 430.132 100.822 431.681C101.08 433.23 113.731 448.463 110.116 447.172C106.502 445.881 100.822 442.008 100.822 442.008C100.822 442.008 105.211 451.819 104.694 453.627C104.178 455.176 98.2398 492.096 99.5308 502.424C100.564 512.751 101.596 516.624 101.596 516.624L90.7524 552.512L71.3884 551.996C71.3884 551.996 87.1378 465.503 89.2033 457.241C91.2688 448.979 93.3343 441.75 93.3343 441.75C93.3343 441.75 86.3632 329.439 86.1051 322.468C85.8469 314.206 86.1051 301.039 86.1051 301.039C86.1051 301.039 94.6252 309.817 104.178 306.46C113.731 303.104 128.964 292.002 128.964 292.002L160.721 291.744L168.467 295.358Z" fill="#132B56"/>
<path d="M127.157 289.937C127.157 289.937 134.386 291.486 143.681 290.97C152.975 290.453 161.495 288.646 161.495 288.646C161.495 288.646 154.524 294.326 136.71 296.65C128.706 297.682 123.026 299.748 119.669 302.072C116.055 304.395 103.92 309.301 98.7561 309.559C93.5924 310.075 91.0105 306.203 91.0105 306.203L127.157 289.937Z" fill="#0D1E43"/>
<path d="M126.382 290.97C126.382 290.97 137.226 292.002 147.553 290.97C154.525 290.195 160.463 288.646 160.463 288.646C160.463 288.646 153.234 277.802 144.713 277.802C138.259 277.802 126.382 290.97 126.382 290.97Z" fill="#CFE5E1"/>
<path d="M88.4293 303.363C85.5893 300.006 84.5565 298.457 85.0729 291.228C86.622 275.478 94.6258 222.292 88.9457 204.219C82.2328 183.048 84.5565 159.295 90.2366 155.68C97.2076 151.291 128.19 145.094 147.554 145.094C148.329 145.094 148.845 144.836 149.619 144.836C156.074 144.836 161.238 146.127 162.787 148.192C169.758 155.938 180.86 194.408 174.922 212.739C168.983 231.07 172.598 283.999 172.598 283.999C172.598 283.999 143.423 265.926 126.383 287.355C112.441 305.17 96.6913 312.915 88.4293 303.363Z" fill="#132B56"/>
<path d="M115.022 149.483L142.132 207.317L147.812 145.61C147.554 145.61 122.252 147.418 115.022 149.483Z" fill="white"/>
<path d="M132.321 186.146C132.321 186.146 125.866 166.524 129.223 156.971C130.514 153.614 133.354 152.065 133.354 152.065L138.776 152.84L147.037 153.614L148.07 144.836L142.39 144.061L136.968 146.385L118.121 147.934L114.506 148.45L132.321 186.146Z" fill="#CFE5E1"/>
<path d="M151.943 176.335C151.943 176.335 162.786 193.891 189.896 213.513C217.264 233.136 259.606 238.816 259.606 238.816L262.963 227.714C262.963 227.714 218.038 206.801 196.609 185.629C176.729 165.749 168.208 153.614 165.11 149.225C160.979 142.512 152.459 167.556 151.943 176.335Z" fill="#132B56"/>
<path d="M139.292 145.094L134.644 154.131C134.644 154.131 127.415 147.16 127.415 146.385C127.157 145.611 139.292 145.094 139.292 145.094Z" fill="#FF3C00"/>
<path d="M134.902 150L143.681 189.76L142.132 208.35L134.644 191.568L132.321 149.483L134.902 150Z" fill="#FF3C00"/>
<path d="M263.221 227.714C263.221 227.714 286.2 227.714 287.749 230.812C289.298 233.91 279.229 232.361 279.487 234.427C279.745 236.492 301.175 242.947 297.818 245.012C294.462 246.82 284.392 241.656 284.392 241.656C284.392 241.656 296.785 248.627 293.945 249.66C291.364 250.693 280.003 245.787 280.003 245.787C280.003 245.787 288.007 251.209 285.167 251.984C282.327 252.758 274.581 247.336 274.581 247.336C274.581 247.336 279.745 256.631 276.389 254.565C273.29 252.5 259.865 238.816 259.865 238.816L263.221 227.714Z" fill="#FFB68E"/>
<path d="M135.161 197.248C135.161 197.248 140.325 238.041 128.706 257.405C113.731 282.191 102.371 304.653 102.371 304.653L99.7893 307.235C110.891 306.719 129.997 288.646 138.259 280.642C140.583 278.577 144.972 277.028 147.554 278.835C155.816 283.999 172.082 295.875 174.147 294.584C176.729 293.035 171.049 232.619 173.889 222.808C176.471 212.997 180.343 199.83 179.827 195.441C179.311 191.051 163.82 148.192 163.82 148.192C163.82 148.192 160.721 144.578 152.459 144.578C149.361 144.578 149.361 144.578 149.361 144.578L143.165 215.321L135.161 197.248Z" fill="#132B56"/>
<path d="M144.714 228.747L143.681 259.471L139.034 221.517L116.83 193.375V190.793L99.7897 178.658C99.7897 178.658 85.3312 166.007 89.7204 156.454C90.7531 153.873 101.855 151.291 101.855 151.291L116.314 186.662L124.317 185.113L120.445 194.15L144.972 222.808L144.714 228.747Z" fill="#0D1E43"/>
<path d="M143.164 278.577C142.906 278.577 142.39 278.319 142.648 277.802L144.455 223.067L119.928 194.15L123.542 185.888L116.055 187.437L101.855 154.905C101.596 154.647 101.855 154.131 102.113 154.131C102.371 153.873 102.887 154.131 102.887 154.389L116.313 185.888L125.091 184.081L120.96 193.892L145.23 222.55V222.808L143.423 277.802C143.681 278.319 143.423 278.577 143.164 278.577Z" fill="#020023"/>
<path d="M163.045 148.967V178.917H155.816L160.463 185.371L144.972 222.808L156.074 185.888L151.943 176.335L159.172 173.753V147.418L163.045 148.967Z" fill="#132B56"/>
<path d="M96.9496 308.01C93.8513 308.01 91.2695 307.235 89.4622 305.686C85.8475 303.104 85.3312 298.973 85.3312 298.973C85.3312 298.715 85.5894 298.199 85.8475 298.199C86.1057 298.199 86.6221 298.457 86.6221 298.715C86.6221 298.715 87.1385 302.33 90.2367 304.654C92.5604 306.461 95.6586 306.977 99.7896 306.461C109.601 305.17 125.092 291.486 134.387 283.224C136.71 281.159 138.776 279.351 140.067 278.319C145.489 274.188 151.685 279.351 157.365 283.999C158.656 285.031 160.205 286.322 161.238 287.097C167.176 291.486 174.406 293.035 174.406 293.035C174.664 293.035 174.922 293.552 174.922 293.81C174.922 294.068 174.406 294.326 174.147 294.326C173.889 294.326 166.66 292.519 160.463 288.13C159.173 287.097 157.882 286.064 156.332 284.773C150.911 280.126 145.23 275.478 140.841 279.093C139.55 280.126 137.743 281.675 135.419 283.74C126.125 292.002 110.375 305.686 100.306 307.235C98.7569 308.01 97.9823 308.01 96.9496 308.01Z" fill="#020023"/>
<path d="M172.339 210.157H154.008C153.75 210.157 153.492 209.899 153.492 209.641C153.492 209.382 153.75 209.124 154.008 209.124H172.339C172.597 209.124 172.856 209.382 172.856 209.641C172.856 209.899 172.597 210.157 172.339 210.157Z" fill="#020023"/>
<path d="M95.1417 266.958C94.8835 266.958 94.6254 266.7 94.6254 266.442C94.6254 266.184 94.8835 265.667 95.1417 265.667L116.313 263.86C116.571 263.86 117.088 264.118 117.088 264.376C117.088 264.635 116.829 265.151 116.571 265.151L95.1417 266.958Z" fill="#020023"/>
<path d="M171.307 260.245L158.914 257.922C158.656 257.922 158.398 257.405 158.398 257.147C158.398 256.889 158.914 256.631 159.173 256.631L171.566 258.954C171.824 258.954 172.082 259.471 172.082 259.729C172.082 259.987 171.566 260.245 171.307 260.245Z" fill="#020023"/>
<path d="M162.529 199.055L169.5 209.124H156.849L162.529 199.055Z" fill="#FF3C00"/>
<path d="M165.369 209.124L161.238 203.186L163.045 199.829L162.529 199.055L156.849 209.124H165.369Z" fill="#BC2800"/>
<path d="M119.411 151.291L116.313 146.643L124.833 143.029L129.222 148.192L126.64 149.483L126.382 151.807L119.411 151.291Z" fill="white"/>
<path d="M137.484 147.934L140.841 141.479H148.845L145.746 147.934L141.357 149.483L140.841 146.901L137.484 147.934Z" fill="white"/>
<path d="M126.382 150.516L131.03 150.258L128.706 147.418H126.382V150.516Z" fill="#BC2800"/>
<path d="M138.259 146.901L140.583 145.61L141.099 148.709L136.452 150.258L138.259 146.901Z" fill="#BC2800"/>
<path d="M131.288 150.516L134.128 152.323L136.71 149.483L135.419 152.581L132.579 152.84L131.288 150.516Z" fill="#BC2800"/>
<path d="M177.762 205.51C177.762 205.51 167.693 164.2 169.5 164.974C171.308 165.749 179.311 191.567 181.119 194.666C183.184 197.764 201.515 218.419 202.29 215.837C203.065 213.255 207.97 202.928 208.228 204.993C208.486 207.059 206.421 216.87 206.421 216.87C206.421 216.87 214.683 203.444 214.941 205.51C215.458 207.575 211.843 220.484 212.359 221.001C212.876 221.517 217.523 213.772 218.039 217.128C218.556 220.484 218.298 224.357 222.687 225.906C227.076 227.455 260.382 235.201 260.382 235.201L259.607 238.557C259.607 238.557 234.822 236.492 210.81 226.164C186.799 216.353 177.762 205.51 177.762 205.51Z" fill="#132B56"/>
<path d="M133.096 368.942C133.096 368.942 134.387 358.098 134.645 354.742C134.645 353.967 142.648 350.869 143.939 345.963C144.972 342.09 146.005 320.919 146.005 320.919C146.005 320.919 151.685 383.142 153.75 394.761C156.074 406.379 156.332 419.805 156.332 419.805C156.332 419.805 173.631 425.227 170.791 426.517C167.693 427.808 155.3 424.194 156.074 426.517C156.849 428.841 171.307 436.845 168.209 436.845C165.111 436.845 155.3 432.714 155.558 434.005C156.074 435.296 162.787 444.849 162.787 444.849L153.75 441.234L170.791 519.723L167.693 552.771L147.554 552.254C147.554 552.254 148.07 433.747 147.554 426.259C147.296 418.514 133.096 368.942 133.096 368.942Z" fill="#132B56"/>
<path d="M134.645 297.94C127.416 297.94 120.961 296.908 120.703 296.908C120.445 296.908 120.186 296.391 120.186 296.133C120.186 295.875 120.703 295.617 120.961 295.617C120.961 295.617 129.739 297.166 138.518 296.649C138.776 296.649 139.292 296.908 139.292 297.166C139.292 297.424 139.034 297.94 138.776 297.94C137.227 297.94 135.936 297.94 134.645 297.94Z" fill="#020023"/>
<path d="M138.001 300.522L137.743 289.162L153.492 287.871L153.751 298.715L138.001 300.522ZM139.034 290.453L139.292 299.231L152.46 297.94L152.201 289.678L139.034 290.453Z" fill="#020023"/>
<path d="M153.75 296.908C153.492 296.908 153.234 296.649 153.234 296.391C153.234 296.133 153.492 295.617 153.75 295.617C153.75 295.617 157.881 294.842 160.463 293.809C162.787 292.777 164.853 290.711 164.853 290.711C165.111 290.453 165.627 290.453 165.885 290.711C166.143 290.969 166.143 291.486 165.885 291.744C165.885 291.744 163.562 294.068 160.98 295.1C158.398 295.875 154.009 296.649 153.75 296.908Z" fill="#020023"/>
<path d="M138.517 294.842C138.259 294.842 138.001 294.584 138.001 294.326C138.001 294.067 138.259 293.551 138.517 293.551L148.845 292.776C149.103 292.776 149.619 293.035 149.619 293.293C149.619 293.551 149.361 294.067 149.103 294.067L138.517 294.842Z" fill="#020023"/>
<path d="M108.31 445.623C108.052 445.623 108.052 445.623 108.052 445.623L97.7242 438.394C94.8842 436.587 93.0769 433.23 92.5605 429.616C92.3023 427.034 92.0441 424.968 92.0441 423.419C91.7859 419.03 86.1058 319.886 85.8477 318.854C85.8477 318.595 86.1058 318.079 86.364 318.079C86.6222 318.079 87.1386 318.337 87.1386 318.595C87.1386 319.628 93.0769 418.772 93.3351 423.161C93.3351 424.71 93.5932 426.775 93.8514 429.357C94.3678 432.714 95.9169 435.554 98.4988 437.103L108.826 444.332C109.084 444.59 109.084 444.849 109.084 445.107C108.826 445.623 108.568 445.623 108.31 445.623Z" fill="#020023"/>
<path d="M106.76 440.717C106.502 440.717 106.502 440.717 106.244 440.459L96.4328 427.808C96.1746 427.55 96.1746 427.292 96.4328 427.034C96.691 426.775 96.9492 426.775 97.2073 426.775L110.891 431.681C111.149 431.681 111.408 432.197 111.149 432.455C111.149 432.714 110.633 432.972 110.375 432.714L98.7565 428.583L107.018 439.685C107.277 439.943 107.277 440.459 107.018 440.717H106.76Z" fill="#020023"/>
<path d="M166.66 437.103H166.402C166.144 437.103 149.361 427.55 147.554 426.517C147.296 426.517 147.296 426.259 147.296 426.001L133.096 370.749C133.096 370.749 132.838 370.491 133.096 370.491L134.387 354.483C134.387 354.225 134.645 353.967 134.645 353.967C134.645 353.967 140.583 350.869 143.165 346.221C145.23 342.607 144.972 325.05 144.456 316.013C144.456 315.755 144.714 315.239 144.972 315.239C145.23 315.239 145.747 315.497 145.747 315.755C145.747 316.788 147.038 341.832 144.198 346.479C141.874 350.61 136.969 353.709 135.419 354.483L134.387 369.974L148.587 424.968C151.169 426.517 166.918 435.295 167.176 435.295C167.435 435.554 167.693 435.812 167.435 436.07C167.176 437.103 166.918 437.103 166.66 437.103Z" fill="#020023"/>
<path d="M167.434 425.743C166.918 425.743 164.336 425.485 149.878 422.386C149.619 422.386 149.361 422.128 149.361 421.87C149.361 421.612 149.619 421.354 149.878 421.354L160.205 418.772C160.463 418.772 160.98 419.03 160.98 419.288C160.98 419.546 160.721 420.063 160.463 420.063L152.976 421.87C158.914 423.161 166.402 424.71 167.176 424.71C167.434 424.71 167.692 424.71 167.951 425.226C168.209 425.226 167.951 425.485 167.434 425.743C167.692 425.743 167.692 425.743 167.434 425.743Z" fill="#020023"/>
<path d="M94.8838 318.595C94.6256 318.595 94.6256 318.595 94.6256 318.595C94.3674 318.595 94.3674 318.337 94.3674 318.079V313.948C94.3674 313.69 94.6256 313.432 94.8838 313.432L119.67 305.428C119.928 305.428 120.186 305.428 120.186 305.428C120.444 305.428 120.444 305.686 120.444 305.944V309.301C120.444 309.559 120.186 309.817 119.928 309.817L94.8838 318.595ZM95.4002 314.206V317.046L118.895 308.526V306.46L95.4002 314.206Z" fill="#020023"/>
<path d="M88.6869 271.347C88.4287 271.089 88.4287 271.347 88.6869 271.347C88.1705 271.347 87.9123 270.831 88.1705 270.573L101.596 224.615C101.596 224.357 102.113 224.099 102.371 224.099C102.629 224.099 102.887 224.615 102.887 224.874L89.4614 270.831C89.2032 271.089 88.9451 271.347 88.6869 271.347Z" fill="#020023"/>
<path d="M135.677 97.5878C135.677 97.5878 136.193 88.8095 140.582 87.2603C144.971 85.7112 149.619 88.0349 156.073 84.4203C162.786 80.5475 164.852 76.1583 164.852 76.1583C164.852 76.1583 163.561 81.0639 158.655 86.4858C153.491 91.9077 151.168 91.6495 149.619 91.6495C148.069 91.6495 145.488 89.8422 143.422 90.875C140.582 92.1659 139.291 94.4896 138.775 97.3296C138.258 100.17 138.517 102.235 137.484 102.493C136.193 103.01 136.193 98.6205 135.677 97.5878Z" fill="#020023"/>
<path d="M265.029 227.197L261.414 240.623L257.8 238.558L261.414 226.939L265.029 227.197Z" fill="white"/>
<path d="M163.183 223.201L107.371 206.181L84.4758 281.255L140.288 298.276L163.183 223.201Z" fill="#FF3C00"/>
<path d="M100.306 209.382L107.277 206.284L105.986 211.189L100.306 209.382Z" fill="#AA2400"/>
<path d="M139.55 293.035L136.193 293.81L89.2034 277.544L107.018 209.641L110.375 208.35L160.721 223.841L139.55 293.035Z" fill="#6ACCBA"/>
<path d="M157.452 224.837L107.073 209.474L85.985 278.621L136.364 293.985L157.452 224.837Z" fill="white"/>
<path d="M152.718 228.488L108.826 215.062C108.568 215.062 108.31 214.546 108.31 214.288C108.31 214.03 108.826 213.771 109.084 213.771L152.976 227.197C153.234 227.197 153.492 227.714 153.492 227.972C153.234 228.488 152.976 228.488 152.718 228.488Z" fill="#020023"/>
<path d="M151.685 231.845L107.793 218.419C107.535 218.419 107.276 217.903 107.276 217.645C107.276 217.386 107.793 217.128 108.051 217.128L151.943 230.554C152.201 230.554 152.459 231.07 152.459 231.328C152.459 231.587 152.201 231.845 151.685 231.845Z" fill="#020023"/>
<path d="M150.91 234.943C150.652 234.943 150.652 234.943 150.91 234.943L107.018 221.517C106.76 221.517 106.502 221.001 106.502 220.743C106.502 220.484 107.018 220.226 107.277 220.226L151.168 233.652C151.427 233.652 151.685 234.168 151.685 234.426C151.427 234.685 151.168 234.943 150.91 234.943Z" fill="#020023"/>
<path d="M149.878 238.041L105.986 224.616C105.728 224.616 105.47 224.099 105.47 223.841C105.47 223.583 105.986 223.325 106.244 223.325L150.136 236.75C150.394 236.75 150.652 237.267 150.652 237.525C150.394 238.041 150.136 238.041 149.878 238.041Z" fill="#020023"/>
<path d="M148.845 241.398L104.953 227.972C104.695 227.972 104.437 227.456 104.437 227.197C104.437 226.939 104.953 226.681 105.211 226.681L149.103 240.107C149.361 240.107 149.619 240.623 149.619 240.881C149.361 241.139 149.103 241.398 148.845 241.398Z" fill="#020023"/>
<path d="M148.07 244.496C147.812 244.496 147.812 244.496 148.07 244.496L104.178 231.07C103.92 231.07 103.662 230.554 103.662 230.296C103.662 230.038 104.178 229.779 104.436 229.779L148.328 243.205C148.586 243.205 148.844 243.721 148.844 243.98C148.586 244.238 148.328 244.496 148.07 244.496Z" fill="#020023"/>
<path d="M147.037 247.594L103.146 234.168C102.887 234.168 102.629 233.652 102.629 233.394C102.629 233.135 103.146 232.877 103.404 232.877L147.295 246.303C147.554 246.303 147.812 246.819 147.812 247.078C147.554 247.336 147.295 247.594 147.037 247.594Z" fill="#020023"/>
<path d="M133.095 301.555L77.3271 284.515L100.306 209.382L125.866 217.386L132.579 241.656L149.878 247.078L133.095 301.555Z" fill="#FF3C00"/>
<path d="M143.681 267.474C143.681 267.474 131.288 262.569 123.8 262.827C117.604 263.085 83.7815 264.376 83.7815 264.376L90.7525 241.397L146.779 256.889L144.714 264.376L143.681 267.474Z" fill="#E63600"/>
<path d="M90.236 155.68C90.236 155.68 84.2977 159.811 74.2284 186.146C63.901 212.739 47.6352 246.304 54.6062 252.5C65.9664 262.569 130.513 258.438 130.513 258.438L132.579 244.496C132.579 244.496 91.0105 240.365 83.2649 232.878C80.9413 230.812 101.854 203.703 103.92 188.728C105.985 174.011 93.8506 157.746 90.236 155.68Z" fill="#132B56"/>
<path d="M132.321 247.078C132.321 247.078 85.8473 240.107 82.2327 239.333C78.6181 238.558 80.4254 235.202 80.4254 235.202C80.4254 235.202 64.9342 242.947 66.9997 240.107C69.0652 237.267 79.6508 233.136 79.6508 233.136C79.6508 233.136 66.4833 233.394 67.7742 231.587C69.0652 229.78 81.7163 230.038 81.7163 230.038L71.3888 224.616L80.4254 221.776C80.4254 221.776 95.9166 200.605 99.7893 194.925C104.953 187.695 103.92 180.724 103.92 180.724C103.92 180.724 105.728 184.081 104.953 191.826C104.179 198.023 90.2364 220.743 84.2982 229.522C83.2654 231.071 83.0072 233.653 85.0727 233.911L133.354 243.98L132.321 247.078Z" fill="#132B56"/>
<path d="M53.3158 249.66C53.5739 250.176 68.5488 201.895 82.4908 185.888C96.1747 169.88 102.113 169.364 102.113 169.364C102.113 169.364 94.6256 154.131 90.2364 155.68C83.2654 158.004 48.6684 239.332 53.3158 249.66Z" fill="#0D1E43"/>
<path d="M104.953 184.597C104.695 184.597 104.437 184.339 104.437 184.081C104.437 184.081 103.404 175.561 99.015 166.782C94.6259 158.004 90.4949 156.971 90.4949 156.971C90.2367 156.971 89.9785 156.455 89.9785 156.197C89.9785 155.938 90.4949 155.68 90.7531 155.68C91.0113 155.68 95.4004 156.971 100.048 166.266C104.695 175.302 105.47 183.823 105.47 184.081C105.728 184.339 105.47 184.597 104.953 184.597Z" fill="#020023"/>
<path d="M56.4139 253.791C56.1557 253.791 56.1557 253.533 55.8975 253.533C55.3811 253.275 53.832 252.5 55.8975 243.464C57.7048 234.943 88.429 159.037 92.0436 156.971C95.4 154.906 102.113 153.873 102.371 153.873C102.629 153.873 103.146 154.131 103.146 154.389C103.146 154.647 102.887 155.164 102.629 155.164C102.629 155.164 95.9164 156.196 92.8182 158.004C89.9781 160.327 59.7703 233.136 57.1884 243.722C55.3811 251.725 56.9302 253.275 56.9302 253.275C57.1884 253.791 57.4466 253.791 57.1884 254.307C57.1884 254.307 56.6721 254.049 56.4139 253.791Z" fill="#020023"/>
<path d="M132.578 244.496L135.418 245.271L133.869 258.439H130.255C130.513 258.697 131.804 247.595 132.578 244.496Z" fill="white"/>
<path d="M135.419 248.369C135.419 248.369 140.325 245.529 144.197 243.98C148.07 242.173 151.943 241.914 151.943 243.205C151.685 244.496 146.263 247.853 147.296 248.111C148.328 248.111 153.75 246.304 154.783 244.754C156.074 243.205 156.332 241.914 157.107 242.431C158.139 242.947 157.107 248.369 156.332 249.144C155.558 249.918 158.656 251.467 157.107 253.016C155.558 254.565 156.332 254.307 156.074 256.373C155.816 258.438 153.75 258.18 154.008 259.471C154.267 260.762 152.976 261.795 151.943 262.311C150.91 262.827 141.099 261.278 138.001 260.504C134.903 259.729 134.128 259.471 134.128 259.471L135.419 248.369Z" fill="#FFB68E"/>
<path d="M134.902 96.0387L147.037 100.428V103.784L135.935 98.6206L134.386 96.0387H134.902Z" fill="#020023"/>
<path d="M146.521 106.624V100.17L156.848 99.9116V106.108L146.521 106.624ZM147.812 101.461V105.334L155.557 105.075V101.461H147.812Z" fill="#020023"/>
<path d="M270.709 247.336C270.451 247.336 270.192 247.336 270.192 247.078C269.934 246.82 270.192 246.303 270.451 246.303C270.451 246.303 274.84 243.721 276.647 239.849C278.196 236.492 277.422 234.943 277.422 234.943C277.163 234.685 277.422 234.169 277.68 234.169C277.938 233.91 278.454 234.169 278.454 234.427C278.454 234.427 279.487 236.492 277.68 240.365C275.614 245.012 271.225 247.336 270.967 247.594C270.967 247.336 270.709 247.336 270.709 247.336Z" fill="#020023"/>
</g>
</g>
<rect x="0.5" y="0.5" width="529" height="426" stroke="#F0AD99"/>
<defs>
<linearGradient id="paint0_linear_2131_2160" x1="507.291" y1="167.413" x2="382.219" y2="217.394" gradientUnits="userSpaceOnUse">
<stop offset="0.2401" stop-color="#0C5A58"/>
<stop offset="0.4901" stop-color="#046865"/>
<stop offset="0.7877" stop-color="#0B817E"/>
<stop offset="1" stop-color="#2AA3A0"/>
</linearGradient>
<clipPath id="clip0_2131_2160">
<rect width="530" height="427" fill="white"/>
</clipPath>
<clipPath id="clip1_2131_2160">
<rect width="424.2" height="520.246" fill="white" transform="translate(52.7996 60.1506)"/>
</clipPath>
</defs>
</svg>
