<svg width="530" height="427" viewBox="0 0 530 427" fill="none" xmlns="http://www.w3.org/2000/svg">
<g clip-path="url(#clip0_2133_2666)">
<rect width="530" height="427" fill="#FCEDE9"/>
<g clip-path="url(#clip1_2133_2666)">
<path d="M225.738 381.873C225.738 381.873 221.008 372.115 189.305 346.676L176.095 336.321C176.095 336.321 199.958 314.334 196.847 299.547C196.847 299.547 193.396 289.491 184.277 297.971L155.983 324.347L160.713 356.732L183.638 389.117L225.738 381.873Z" fill="#F9DED7"/>
<path d="M125.515 310.243L110.133 277.56C110.133 277.56 104.806 269.719 112.945 265.288C112.945 265.288 125.515 256.808 140.302 282.588L163.397 326.563C163.397 326.563 172.388 340.369 178.951 346.676C178.951 346.676 194.973 362.996 199.362 380.297L174.221 385.027L125.515 318.084V310.243Z" fill="#F7D3CA"/>
<path d="M320.251 179.723C320.251 179.723 322.211 175.377 327.495 174.652C327.495 174.652 329.029 174.141 331.117 171.499C332.395 169.837 333.162 171.883 332.821 173.033C332.225 175.078 330.648 176.485 329.071 177.635C329.071 177.635 328.901 177.933 328.518 178.7C328.518 178.7 325.876 181.939 321.955 181.172L319.825 180.533L320.251 179.723Z" fill="white"/>
<path d="M281.176 75.5375C281.176 76.3897 281.218 77.242 281.261 78.1368C281.304 79.0743 281.389 80.0544 281.474 80.9492C281.73 83.0372 282.071 85.1251 282.582 87.1279C282.88 88.3636 283.221 89.5994 283.605 90.7925C285.948 97.9939 289.869 104.513 295.025 109.883C295.579 110.479 296.175 111.033 296.772 111.63C297.155 111.971 297.496 112.311 297.837 112.695C300.223 115.294 301.928 118.362 302.865 121.771L306.359 134.299C306.956 136.43 308.873 137.495 311.047 137.452L352.934 137.623C355.107 137.623 357.025 136.131 357.579 134.043L360.561 123.007L361.115 120.919C362.138 117.127 364.141 113.632 366.953 110.863C376.157 101.701 381.867 89.0028 381.782 74.9409C381.612 47.2433 358.985 24.8295 331.202 25C326.344 25.0426 321.614 25.7244 317.183 27.0454C306.7 30.156 297.667 36.5904 291.275 45.0701C288.931 48.1382 286.971 51.5471 285.394 55.1265C285.224 55.51 285.096 55.8509 284.926 56.2344C284.798 56.5327 284.67 56.831 284.542 57.1292C284.329 57.6832 284.116 58.2798 283.903 58.8763C283.732 59.3877 283.562 59.899 283.392 60.4529C283.136 61.22 282.923 61.987 282.752 62.754C282.582 63.4358 282.412 64.075 282.284 64.7567C281.858 66.7595 281.559 68.8048 281.346 70.8928C281.261 72.3842 281.176 73.9609 281.176 75.5375Z" fill="#FF3C00"/>
<path opacity="0.4" d="M370.399 67.0428C374.981 63.8211 374.119 54.7018 368.475 46.6743C362.83 38.6467 354.54 34.7509 349.958 37.9726C345.376 41.1943 346.238 50.3136 351.883 58.3411C357.528 66.3687 365.818 70.2645 370.399 67.0428Z" fill="#FF3C00"/>
<path d="M367.157 53.2833C368.351 52.4441 368.122 50.0627 366.647 47.9644C365.171 45.866 363.008 44.8454 361.814 45.6846C360.621 46.5239 360.849 48.9053 362.325 51.0036C363.8 53.102 365.964 54.1226 367.157 53.2833Z" fill="#FF3C00"/>
<path d="M281.176 75.5375C281.176 76.3897 281.219 77.2846 281.261 78.1368C281.304 79.0743 281.389 80.0544 281.474 80.9492C281.687 83.0372 282.071 85.1252 282.582 87.1279C282.881 88.3636 283.221 89.5994 283.605 90.7925C285.949 97.9939 289.869 104.513 295.025 109.883C295.579 110.479 296.175 111.076 296.772 111.63C297.155 111.971 297.496 112.311 297.837 112.695C300.223 115.294 301.928 118.362 302.865 121.771L306.36 134.299C306.956 136.43 308.874 137.495 311.047 137.452L352.934 137.623C355.107 137.623 357.025 136.131 357.579 134.043L360.562 123.007C344.881 133.745 324.001 129.867 318.76 112.567C312.709 92.497 302.311 83.8894 302.311 83.8894C294.002 71.9581 294.045 61.22 296.9 52.1863C304.485 28.4515 331.202 25 331.202 25C326.344 25.0426 321.615 25.7244 317.183 27.0454C306.7 30.156 297.667 36.5904 291.275 45.0701C288.931 48.1382 286.971 51.5471 285.395 55.1265C285.224 55.51 285.096 55.8509 284.926 56.2344C284.798 56.5327 284.67 56.831 284.542 57.1292C284.329 57.6832 284.116 58.2798 283.903 58.8763C283.733 59.3877 283.562 59.899 283.392 60.453C283.136 61.22 282.923 61.987 282.753 62.754C282.582 63.4358 282.412 64.075 282.284 64.7567C281.858 66.7595 281.56 68.8049 281.346 70.8928C281.219 72.3842 281.176 73.9609 281.176 75.5375Z" fill="#E43B07"/>
<path d="M344.011 175.002C347.886 168.353 345.637 159.822 338.988 155.947C332.339 152.072 323.807 154.321 319.933 160.97C316.058 167.619 318.307 176.15 324.956 180.025C331.605 183.9 340.136 181.651 344.011 175.002Z" fill="#1E2D5B"/>
<path d="M307.851 151.983C307.851 149.384 310.067 147.296 312.794 147.253C310.024 147.253 307.808 145.165 307.808 142.608C307.808 140.009 310.024 137.538 312.751 137.538L350.846 137.665C353.616 137.665 355.832 139.753 355.832 142.353C355.832 144.952 353.616 147.04 350.889 147.083C353.659 147.083 355.874 149.171 355.874 151.727C355.874 154.327 353.659 156.415 350.931 156.457C353.701 156.457 355.917 158.545 355.917 161.102C355.917 163.531 353.957 165.534 351.443 165.789V168.474C351.443 172.479 348.247 175.973 344.241 175.973L319.654 175.888C315.649 175.888 312.41 172.692 312.368 168.687V166.002C309.854 165.789 307.894 163.786 307.851 161.358C307.851 158.758 310.067 156.67 312.794 156.628C310.109 156.628 307.851 154.54 307.851 151.983Z" fill="#1E2D5B"/>
<path opacity="0.5" d="M307.851 151.983C307.851 149.384 310.067 147.296 312.794 147.253C310.024 147.253 307.808 145.165 307.808 142.608C307.808 140.009 310.024 137.538 312.751 137.538L328.645 137.58C325.876 137.58 323.66 139.924 323.703 142.523C323.703 145.123 325.961 147.211 328.688 147.168C325.918 147.168 323.703 149.298 323.745 151.898C323.745 154.497 326.004 156.585 328.731 156.542C325.961 156.542 323.745 158.673 323.788 161.272C323.788 163.701 325.791 165.704 328.305 165.917V168.602C328.305 172.607 331.586 175.846 335.591 175.803L319.697 175.888C315.692 175.888 312.453 172.692 312.41 168.687V166.002C309.896 165.789 307.936 163.786 307.894 161.358C307.894 158.758 310.109 156.67 312.837 156.628C310.109 156.628 307.851 154.54 307.851 151.983Z" fill="#1E2D5B"/>
<path d="M331.458 158.886L309.343 78.9039H353.574L331.458 158.886ZM314.072 82.4833L331.458 145.421L348.844 82.4833H314.072Z" fill="#1E2D5B"/>
<path d="M319.356 180.405C322.339 178.061 325.151 178.147 325.151 178.147C327.836 178.019 330.18 179.169 330.18 179.169C331.117 179.169 334.654 179.127 334.654 179.127C335.932 178.658 337.594 178.573 337.594 178.573C338.574 178.36 340.492 177.422 340.492 177.422C342.196 176.357 343.943 176.272 343.943 176.272C344.668 176.186 345.221 176.783 345.221 176.783C345.818 176.953 346.159 177.252 346.159 177.252C346.542 177.635 346.372 177.934 345.946 178.189C345.221 178.615 343.815 178.828 343.474 178.956C341.642 179.638 337.977 181.513 337.977 181.513C336.358 182.408 334.228 183.729 334.228 183.729C333.333 184.496 332.395 184.197 332.395 184.197C331.756 184.624 322.68 186.03 320.081 186.456C319.953 186.456 319.825 186.499 319.74 186.499H310.578V180.405H319.356Z" fill="white"/>
<path d="M317.78 179.297H314.285V187.692H317.78V179.297Z" fill="#D6E5F5"/>
<path d="M273.676 192.848C271.503 193.103 269.33 192.421 267.626 190.973L235.837 163.957C231.491 160.207 231.278 153.645 235.283 149.511C239.289 145.378 245.638 145.549 249.43 149.852L275.85 178.573H315.393V188.246L273.676 192.848Z" fill="#203568"/>
<path d="M267.157 350.596H257.953V374.033L273.123 382.086L274.742 380.851L272.91 376.462L268.861 374.587C268.222 374.288 267.583 373.862 267.072 373.394C266.688 373.053 266.39 372.712 266.305 372.2C266.177 371.519 266.092 370.837 266.134 370.581L267.157 350.596Z" fill="white"/>
<path d="M257.91 373.99C257.91 373.99 254.288 377.697 254.288 384.558H287.312C287.952 384.6 288.506 384.26 288.719 383.663C288.932 383.109 288.804 382.427 288.335 382.001C287.185 380.978 285.267 380.169 281.986 380.68C281.304 380.808 280.622 380.68 280.026 380.339L272.867 376.419L271.759 378.635L257.91 373.99Z" fill="#172951"/>
<path d="M273.847 296.053L268.393 369.516H255.609V298.78L223.011 248.285L232.684 237.888L243.593 226.127L272.483 288.17C273.506 290.641 274.017 293.369 273.847 296.053Z" fill="#203568"/>
<path d="M268.776 293.752L259.615 300.527L255.737 336.833L255.567 335.938V298.78L222.969 248.328L232.599 237.931L243.124 233.584L244.317 269.677L258.848 297.076L268.776 293.752Z" fill="#172951"/>
<path d="M187.984 239.422C187.984 239.422 203.111 228.769 211.846 242.916L217.855 221.355C217.045 218.159 217.599 205.588 214.488 204.481C211.378 203.373 206.69 214.366 204.049 216.327L187.984 239.422Z" fill="#375783"/>
<path d="M218.281 341.392L208.949 339.219L202.515 364.104L210.398 379.359L212.401 379.274L213.381 374.629L210.909 369.431C210.313 368.152 210.398 367.3 210.824 365.297L218.281 341.392Z" fill="white"/>
<path d="M223.949 382.044C222.841 381.021 220.54 380.211 217.259 380.723C216.96 380.765 216.662 380.765 216.406 380.68L213.381 374.629L211.208 375.822L202.472 364.104C202.472 364.104 197.359 365.084 193.481 370.709L202.898 377.229L213.466 384.558L220.881 384.601H222.926C223.522 384.643 224.119 384.26 224.332 383.663C224.588 383.152 224.417 382.47 223.949 382.044Z" fill="#172951"/>
<path d="M244.104 228.215L237.499 292.602C237.329 294.391 236.988 296.096 236.391 297.8L213.338 364.573L200.896 360.695L209.333 325.242L217.77 292.559L214.02 252.248C200.938 237.675 209.588 223.954 209.588 223.954L220.156 225.275L244.104 228.215Z" fill="#203568"/>
<path d="M232.641 294.178L221.221 295.798L209.418 325.2L217.855 292.516L214.105 252.206C201.023 237.632 209.674 223.911 209.674 223.911L220.241 225.232C218.75 228.812 216.747 237.334 222.329 251.055V292.516L232.641 294.178Z" fill="#172951"/>
<path d="M239.843 224.679C240.269 220.375 248.195 200.177 250.24 197.492C257.569 187.947 261.362 183.686 259.572 169.241C258.89 163.659 257.314 154.156 253.095 150.705L251.007 156.798L247.044 192.975L246.618 196.811L243.976 205.205L243.806 205.716L239.715 218.585C239.374 219.65 238.99 220.716 238.522 221.696L232.3 235.161C228.678 239.209 226.292 243.002 227.741 245.004C227.741 245.004 227.613 245.303 227.784 245.047C228.465 245.899 229.829 246.453 232.173 246.496C246.618 246.879 238.65 236.226 239.843 224.679Z" fill="#203568"/>
<path d="M256.334 156.883L254.161 153.9L246.746 142.779L252.03 133.362L263.578 142.481L256.334 156.883Z" fill="white"/>
<path d="M207.5 225.062C207.5 225.446 207.585 225.872 207.713 226.213C208.139 227.406 209.119 228.258 210.355 228.514C215.469 229.579 221.051 230.474 226.505 231.156C228.55 231.411 230.553 231.624 232.513 231.837C234.303 232.008 245.553 232.306 245.553 229.238C245.553 224.721 245.979 204.523 246.106 202.563C246.405 194.85 253.521 190.248 255.865 183.473C257.739 178.104 257.654 172.351 257.015 166.812C256.93 165.832 256.802 164.852 256.589 163.957C256.546 163.829 256.546 163.701 256.546 163.616C256.461 163.147 256.291 162.551 256.205 162.125C256.035 161.528 255.907 161.102 255.737 160.548C254.714 157.395 248.365 145.123 245.467 143.631C241.845 141.671 233.408 146.145 229.786 148.617C226.505 150.875 225.994 151.94 223.991 154.071C221.008 157.267 218.196 161.912 216.491 165.874C214.489 170.391 212.358 174.099 212.102 179.169C211.974 181.343 211.761 183.899 211.761 186.2C211.719 189.013 211.761 191.91 211.804 194.808C211.847 199.325 211.889 203.842 211.761 207.975C211.676 210.276 211.548 212.449 211.335 214.452C211.335 214.452 211.463 218.883 208.31 222.804C207.926 223.272 207.713 223.826 207.585 224.466C207.543 224.679 207.5 224.849 207.5 225.062Z" fill="#FFB600"/>
<path d="M246.746 142.097L242.399 143.077L256.163 162.295L257.527 155.605L246.746 142.097Z" fill="#FFB600"/>
<path d="M257.527 155.605L258.848 161.571L256.163 162.295L257.527 155.605Z" fill="#375783"/>
<path d="M207.5 225.062C207.5 225.446 207.585 225.872 207.713 226.213C208.139 227.406 209.119 228.258 210.355 228.514C215.469 229.579 221.051 230.474 226.505 231.156C226.079 225.787 223.181 228.343 221.69 218.713C219.858 206.91 234.772 197.322 234.772 197.322C249.558 186.413 247.342 170.519 247.342 170.519L216.832 202.776C213.764 206.015 211.847 210.148 211.335 214.622C211.335 214.622 211.335 214.622 211.335 214.665C211.335 214.665 211.421 219.054 208.267 222.974C207.926 223.443 207.671 223.954 207.543 224.508C207.543 224.679 207.5 224.849 207.5 225.062Z" fill="#F0AB00"/>
<path d="M247.3 160.207C247.811 163.19 247.981 166.045 247.939 168.687C247.939 168.985 247.939 169.198 247.854 169.454C247.513 175.76 245.51 181.513 241.121 186.925C240.737 187.393 240.311 187.862 239.885 188.331C238.99 189.311 238.095 190.248 237.115 191.143C237.073 191.186 237.073 191.186 237.03 191.186C235.241 192.89 233.195 194.509 230.851 196.086C230.084 196.597 229.19 197.151 228.337 197.705C227.783 198.089 227.229 198.43 226.676 198.771C224.971 199.793 223.352 200.816 221.775 201.924C221.179 202.35 220.582 202.776 220.028 203.202C219.815 203.373 219.645 203.501 219.474 203.586C219.432 203.671 219.389 203.671 219.304 203.714C218.665 204.225 218.068 204.779 217.471 205.333C217.003 205.759 216.491 206.185 216.023 206.611C215.596 207.08 215.128 207.549 214.702 207.975C213.509 209.168 212.443 210.404 211.378 211.639C211.165 211.895 210.952 212.108 210.696 212.364C210.355 212.833 209.929 213.344 209.503 213.898C209.205 214.196 208.906 214.494 208.651 214.75C207.713 215.901 206.733 217.051 205.625 218.202C205.625 218.202 189.731 241.553 189.689 241.638C189.177 242.49 183.595 237.59 183.339 237.249C182.061 235.8 181.081 234.181 180.357 232.519C179.121 229.536 178.61 226.383 178.567 223.145C178.61 222.42 178.61 221.653 178.652 220.844C178.695 219.991 178.78 219.096 178.95 218.159C179.462 217.264 180.101 216.455 180.74 215.602C180.825 215.602 180.825 215.517 180.868 215.474C180.911 215.389 180.996 215.304 181.081 215.176C182.104 213.983 183.382 212.875 184.575 211.767C189.348 207.89 194.845 204.736 200.043 201.327C200.341 201.029 200.64 200.901 200.938 200.646C202.856 199.41 204.645 198.217 206.051 197.322C207.415 196.342 208.395 195.788 208.395 195.703C208.438 195.277 208.821 189.14 209.887 181.47C210.696 175.76 212.784 170.263 215.426 165.15C217.898 160.207 220.369 154.753 224.247 150.79C225.61 149.426 227.102 148.361 228.636 147.381C229.786 146.699 230.979 146.06 232.215 145.463L232.3 145.421C235.07 143.972 242.271 143.162 242.271 143.162C244.7 149.213 246.405 154.923 247.3 160.207Z" fill="#203568"/>
<path d="M242.058 157.608C242.399 158.971 242.144 160.505 241.718 161.869C241.164 163.659 240.184 165.32 238.863 166.684L221.988 183.899C217.088 188.885 217.003 196.853 221.818 201.924C221.221 202.35 220.625 202.776 220.071 203.202C219.858 203.373 219.687 203.501 219.517 203.586C219.474 203.671 219.432 203.671 219.346 203.714C218.707 204.225 218.111 204.779 217.514 205.333C217.045 205.759 216.534 206.185 216.065 206.611C215.639 207.08 215.17 207.549 214.744 207.975C213.551 209.168 212.486 210.404 211.421 211.639C211.208 211.895 210.995 212.108 210.739 212.364C210.398 212.832 209.972 213.344 209.546 213.898C209.247 214.196 208.949 214.494 208.694 214.75C207.756 215.901 206.776 217.051 205.668 218.202C205.668 218.202 189.774 241.553 189.731 241.638C189.22 242.49 183.638 237.59 183.382 237.249C182.104 235.8 181.124 234.181 180.399 232.519C179.164 229.536 178.652 226.383 178.61 223.145C178.652 222.42 178.652 221.653 178.695 220.843C178.737 219.991 178.823 219.096 178.993 218.159C179.504 217.264 180.144 216.454 180.783 215.602C180.868 215.602 180.868 215.517 180.911 215.474C180.953 215.389 181.038 215.304 181.124 215.176C182.146 213.983 183.425 212.875 184.618 211.767C189.39 207.89 194.887 204.736 200.086 201.327C200.384 201.029 200.682 200.901 200.981 200.646C202.898 199.41 204.688 198.217 206.094 197.322C207.458 196.342 208.438 195.788 208.438 195.703C208.48 195.276 208.864 189.14 209.929 181.47C210.654 176.272 212.443 171.286 214.744 166.599C214.83 166.556 241.249 154.369 242.058 157.608Z" fill="url(#paint0_linear_2133_2666)"/>
<path d="M217.259 253.101V246.24C217.259 245.857 217.088 245.473 216.832 245.175C216.534 244.877 216.193 244.749 215.767 244.749H204.986C204.603 244.749 204.219 244.919 203.921 245.175C203.623 245.473 203.495 245.814 203.495 246.24V253.101H199.575V246.24C199.575 244.791 200.129 243.428 201.151 242.405C202.174 241.382 203.538 240.828 204.986 240.828H215.767C217.216 240.828 218.58 241.382 219.602 242.405C220.625 243.428 221.179 244.791 221.179 246.24V253.101H217.259Z" fill="#172951"/>
<path d="M174.604 270.316V299.121C174.604 301.976 176.905 304.576 179.803 304.576L240.95 304.49C243.805 304.49 246.277 302.062 246.277 299.207L246.234 270.273L174.604 270.316Z" fill="#172951"/>
<path d="M246.192 254.763C246.192 251.908 243.891 249.479 240.993 249.479H179.845C176.99 249.479 174.604 251.78 174.604 254.677V270.316H246.192V254.763Z" fill="#172951"/>
<path d="M214.276 271.552C214.276 273.682 212.529 275.429 210.398 275.429C208.267 275.429 206.52 273.682 206.52 271.552V267.333C206.52 265.203 208.267 263.455 210.398 263.455C212.529 263.455 214.276 265.203 214.276 267.333V271.552Z" fill="white"/>
<path d="M209.63 271.978V269.378C208.991 269.08 208.565 268.484 208.565 267.717C208.565 266.736 209.375 265.927 210.355 265.927C211.335 265.927 212.144 266.736 212.144 267.717C212.144 268.441 211.718 269.08 211.079 269.336V271.935C211.079 272.361 210.738 272.66 210.355 272.66C209.971 272.745 209.63 272.404 209.63 271.978Z" fill="#172951"/>
<path d="M217.727 245.132C217.685 244.45 217.685 243.811 217.812 243.172C218.068 241.51 217.131 240.956 217.131 240.956C216.491 240.189 215.554 238.527 215.554 238.527C215.213 237.036 213.636 236.098 213.636 236.098L209.631 234.351L209.247 225.232L202.387 225.701L203.069 235.161L203.239 243.555C203.111 244.919 203.665 247.944 206.563 246.751C207.799 248.158 209.375 246.922 209.375 246.922C210.952 248.371 212.742 246.624 212.742 246.624C214.361 247.902 215.384 246.283 215.384 246.283C216.023 247.263 216.747 247.476 216.747 247.476C218.239 247.135 217.812 246.155 217.812 246.155L217.727 245.132Z" fill="white"/>
<path d="M210.213 229.75L201.95 230.02L202.069 233.641L210.331 233.37L210.213 229.75Z" fill="#D6E5F5"/>
<path d="M196.208 188.757C195.953 186.584 196.592 184.368 197.998 182.706L224.715 150.662C228.423 146.273 234.985 146.017 239.118 149.98C243.294 153.943 243.166 160.292 238.905 164.127L210.654 190.845L210.696 230.175L201.151 230.516L196.208 188.757Z" fill="#203568"/>
<path d="M242.399 143.077L236.86 147.977L242.314 150.108L239.8 151.386C239.8 151.386 253.606 171.116 239.246 189.013C239.204 189.055 260.041 174.525 242.399 143.077Z" fill="#375783"/>
<path d="M270.566 126.16C271.887 128.589 271.929 131.274 271.205 134.342L271.12 134.981L272.355 139.498C272.441 139.881 272.228 140.265 271.844 140.393L270.267 140.861L267.625 146.657L262.81 144.441L258.592 133.149L258.762 125.223L261.063 122.197L267.029 123.05L270.566 126.16Z" fill="white"/>
<path d="M268.052 141.714C267.37 142.353 266.39 142.481 265.538 142.097C264.089 141.458 262.896 140.307 262.257 138.859L261.404 136.984C258.805 132.765 263.918 129.399 263.918 129.399C266.006 127.396 262.896 125.01 262.896 125.01L270.566 126.118C273.336 122.027 270.481 117.766 270.481 117.766C267.967 113.931 264.43 115.337 264.43 115.337C261.873 116.147 258.251 114.698 258.251 114.698C256.078 114.527 255.652 116.743 255.652 116.743L251.007 116.061C247.555 115.934 248.365 119.257 248.365 119.257C246.362 119.726 244.573 122.453 244.573 122.453C242.229 125.436 245.169 129.868 245.169 129.868L248.195 140.052L254.799 135.237L258.081 135.578L257.314 139.2L255.439 140.606C256.973 145.975 259.87 146.358 259.87 146.358L260.509 146.614C260.936 146.784 261.234 147.253 261.149 147.722C260.424 152.707 268.35 154.114 269.117 148.872L269.543 145.847L269.799 143.972L270.268 140.776C269.33 140.776 268.606 141.245 268.052 141.714Z" fill="#203568"/>
<path d="M257.654 131.316C256.717 130.251 255.098 130.081 253.947 130.975C253.052 131.657 252.115 133.021 253.265 135.364C253.265 135.364 254.927 138.944 257.313 139.285C257.313 139.285 258.933 139.753 258.848 137.58L258.72 133.873C258.72 133.276 258.549 132.68 258.208 132.126C258.038 131.828 257.867 131.572 257.654 131.316Z" fill="white"/>
<path d="M256.546 161.144C256.546 161.144 256.589 161.4 256.674 161.869C256.717 162.338 256.887 163.019 256.93 163.914C257.015 164.809 257.1 165.917 257.1 167.153C257.143 168.388 257.1 169.837 256.972 171.371C256.93 172.905 256.589 174.567 256.333 176.272C256.12 178.019 255.438 179.766 255.012 181.598C254.458 183.388 253.606 185.177 252.924 187.01C252.072 189.268 251.263 190.887 250.623 193.316C249.899 195.617 249.515 197.748 249.004 199.921C248.663 202.052 248.237 204.225 248.024 206.27C247.726 208.316 247.555 210.318 247.385 212.193C247.172 214.068 247.129 215.858 247.001 217.52C246.959 218.329 246.916 219.139 246.916 219.863C246.916 220.247 246.874 220.588 246.874 220.971V221.483V221.611V221.696V221.738C246.874 221.951 246.874 221.483 246.874 221.525V221.781C246.788 223.059 246.703 224.21 246.618 225.147C246.49 227.022 246.405 228.088 246.405 228.088L252.413 234.053L258.038 228.088C258.038 228.088 257.953 227.022 257.825 225.147C257.74 224.21 257.697 223.102 257.569 221.781L257.526 221.099L257.484 220.588C257.441 220.247 257.399 219.906 257.399 219.565C257.313 218.841 257.271 218.116 257.186 217.349C257.1 215.815 256.887 214.111 256.845 212.364C256.717 210.574 256.674 208.742 256.632 206.782C256.546 204.821 256.674 202.904 256.717 200.859C256.887 198.898 256.972 196.768 257.271 194.978C257.399 193.188 258.123 190.845 258.464 189.098C258.975 186.925 259.572 184.837 259.913 182.749C260.126 180.661 260.552 178.658 260.552 176.74C260.594 174.823 260.68 173.033 260.509 171.371C260.424 169.709 260.254 168.218 259.998 166.897C259.827 165.576 259.529 164.426 259.316 163.488C259.146 162.551 258.847 161.784 258.72 161.315C258.549 160.846 258.464 160.591 258.464 160.591L256.546 161.144Z" fill="#FF3C00"/>
<path d="M401.213 524.069H315.01L310.109 487.934C305.891 470.974 294.599 468.162 294.599 468.162L276.702 463.006L209.759 446.515C195.654 443.703 194.248 431.899 194.248 431.899C192.373 427.212 183.893 418.732 183.893 418.732L165.059 397.98L144.307 376.76C137.276 371.604 134.89 365.936 134.89 365.936L116.993 340.923L94.3662 305.13C86.3551 291.92 95.7723 289.108 95.7723 289.108C121.723 281.565 147.162 332.955 147.162 332.955C151.381 341.392 161.267 348.934 161.267 348.934L172.559 356.945C194.248 371.092 199.915 390.438 199.915 390.438L375.263 446.515L401.213 524.069Z" fill="#F7D3CA"/>
<path d="M170.215 379.103C167.53 380.424 165.442 382.768 164.42 385.623C162.801 390.097 162.076 397.213 168.809 404.031C170.3 405.523 172.09 406.631 174.093 407.227L201.705 415.877C201.705 415.877 221.519 422.482 235.624 422.482L252.115 422.951C252.115 422.951 289.357 453.12 343.091 454.526L375.135 446.515C375.135 446.515 368.061 395.126 320.933 382.896C320.933 382.896 302.567 377.229 271.929 381.958L247.427 385.24C247.427 385.24 242.698 385.708 236.604 382.896C236.561 382.853 199.873 364.488 170.215 379.103Z" fill="#F9DED7"/>
</g>
<g clip-path="url(#clip2_2133_2666)">
<path d="M167.562 82.622C167.562 82.2849 167.529 81.9478 167.529 81.6106C167.562 71.1595 176.024 62.7311 186.476 62.7648C193.488 62.7985 199.59 66.6419 202.86 72.3057C205.591 77.1267 211.457 79.217 216.615 77.2616C218.065 76.6885 219.65 76.3851 221.302 76.4188C225.988 76.4188 230.101 78.9136 232.393 82.622H167.562Z" fill="white"/>
<path d="M112 180.939C110.852 177.878 108.199 175.557 104.96 174.868C101.388 174.103 98.71 171.093 98.4039 167.445C97.9702 162.471 93.7868 158.594 88.736 158.594C84.0424 158.594 80.1651 161.935 79.2723 166.348C77.7928 173.21 69.3749 175.787 64.3241 170.914C61.7987 168.466 58.3295 166.961 54.5542 166.986C46.7996 167.012 40.5499 173.236 40.4989 180.939H112Z" fill="white"/>
<path d="M408.647 265.686C412.221 265.686 415.424 267.102 417.818 269.361C421.593 272.968 427.291 272.125 430.325 268.012C431.842 265.956 432.011 263.293 433.595 261.27C435.315 259.112 437.944 257.797 440.709 257.797C443.372 257.797 445.935 258.977 447.654 261C450.284 264.068 449.34 268.282 453.149 270.608C456.352 272.564 460.499 272.125 463.196 269.53C465.522 267.271 468.725 265.888 472.231 265.888C474.76 265.888 477.12 266.63 479.109 267.878C480.929 268.923 482.446 270.44 483.491 272.294C485.211 275.328 488.886 276.643 492.122 275.396C493.032 275.059 494.01 274.856 495.055 274.856C497.988 274.856 500.55 276.407 502 278.733H485.143H462.555H461.409H419.233H395.567C395.567 271.552 401.433 265.72 408.647 265.686Z" fill="white"/>
</g>
</g>
<rect x="0.5" y="0.5" width="529" height="426" stroke="#F0AD99"/>
<defs>
<linearGradient id="paint0_linear_2133_2666" x1="174.411" y1="209.547" x2="250.327" y2="190.388" gradientUnits="userSpaceOnUse">
<stop stop-color="#203568"/>
<stop offset="0.533" stop-color="#1A2D59"/>
<stop offset="1" stop-color="#172951"/>
</linearGradient>
<clipPath id="clip0_2133_2666">
<rect width="530" height="427" fill="white"/>
</clipPath>
<clipPath id="clip1_2133_2666">
<rect width="347.2" height="506.952" fill="white" transform="translate(91 25)"/>
</clipPath>
<clipPath id="clip2_2133_2666">
<rect width="473" height="301.87" fill="white" transform="translate(29 62.7648)"/>
</clipPath>
</defs>
</svg>
