<svg width="190" height="150" viewBox="0 0 190 150" fill="none" xmlns="http://www.w3.org/2000/svg">
<g clip-path="url(#clip0_1924_1953)">
<rect width="190" height="150" rx="8" fill="#FCEDE9"/>
<g clip-path="url(#clip1_1924_1953)">
<path d="M151.197 72.6386L151.762 73.2639L153.467 71.7235L152.902 71.0981L151.197 72.6386Z" fill="#FFB600"/>
<path d="M145.025 64.2445L145.589 64.8699L146.669 63.8942L146.105 63.2689L145.025 64.2445Z" fill="#FFB600"/>
<path d="M142.005 58.3664L159.464 77.6951L171.8 66.5524L154.342 47.2237L142.005 58.3664Z" fill="#FF3C00"/>
<path d="M140.811 58.5788L159.04 78.7603L166.26 72.2389L148.031 52.0575L140.811 58.5788Z" fill="#FF3C00"/>
<path d="M169.274 68.8077C169.274 68.8077 166.9 65.4371 160.158 60.6109C154.413 56.5508 151.808 56.2444 151.808 56.2444L165.904 71.872L169.274 68.8077Z" fill="#CE2C00"/>
<path d="M154.415 61.9861L156.52 64.3169L159.419 61.6981L157.314 59.3673L154.415 61.9861Z" fill="#FFB600"/>
<path d="M156.405 64.2112C156.405 64.2112 157.324 63.1387 157.63 61.6832C157.937 60.3043 157.171 59.4617 157.171 59.4617L154.336 61.9897L156.405 64.2112Z" fill="white"/>
<path d="M142.079 65.7433L150.583 75.1658L153.111 72.9442L151.655 71.4121L150.123 72.7144L144.531 66.4327L146.063 65.1305L144.607 63.5217L142.079 65.7433Z" fill="#FF3C00"/>
<path d="M147.123 64.0687L146.668 64.4795L152.316 70.7329L152.771 70.3221L147.123 64.0687Z" fill="#FF3C00"/>
<path d="M94.507 97.8413L106.687 87.1931L103.163 99.2202L94.507 97.8413Z" fill="#020023"/>
<path d="M182.144 132.238C182.144 132.238 180.918 131.625 180.229 130.552C179.539 129.48 179.463 128.79 179.463 128.79L176.475 131.625L178.927 133.54C179.003 133.54 181.761 133.77 182.144 132.238Z" fill="white"/>
<path d="M176.858 132.85C176.858 132.85 176.782 134.842 178.237 135.072C179.693 135.302 190.417 136.374 190.264 135.991C190.111 135.608 190.417 134.919 190.111 134.842C189.804 134.765 185.055 133.923 184.289 132.544C183.523 131.165 184.212 130.246 184.212 130.246L181.837 130.016C181.837 130.016 181.837 131.931 181.301 132.544C180.612 133.157 176.858 132.85 176.858 132.85Z" fill="#050023"/>
<path d="M27.4 161.96C27.4 161.96 66.6221 152.155 70.9121 143.575C84.3947 116.533 96.8814 104.353 96.8814 104.353C96.8814 104.353 81.7901 94.9304 76.9639 98.9139C72.1378 102.897 68.3075 127.181 58.3487 137.906C50.6881 146.18 25.1018 157.288 25.1018 157.288L27.4 161.96Z" fill="#132B56"/>
<path d="M84.8545 116.993C85.4673 115.461 131.584 111.631 143.918 114.848C156.328 118.142 177.088 132.927 177.088 132.927L180.229 127.718C180.229 127.718 159.009 110.175 143.841 102.668C139.704 100.599 133.269 100.293 121.549 99.2205C104.925 97.6883 84.6247 96.3094 84.0118 100.293C83.1692 107.111 84.8545 116.993 84.8545 116.993Z" fill="#132B56"/>
<path d="M86.9227 116.38C86.9993 115.767 88.5314 114.235 89.5273 112.09C89.9104 111.248 91.2893 110.865 92.515 109.256C93.3576 108.183 94.4301 104.813 94.5833 104.659C94.9663 104.353 116.722 105.349 124.077 106.651C130.052 107.724 132.35 108.337 132.81 107.57C133.193 106.804 137.176 102.668 137.176 103.97C137.176 105.272 134.955 110.711 136.487 109.562C138.019 108.413 140.011 103.051 140.394 105.502C140.777 107.953 138.861 112.78 141.083 110.865C143.305 109.026 145.986 106.421 145.526 109.256C145.067 112.09 151.272 111.477 162.15 118.985C173.028 126.492 177.164 132.927 177.164 132.927C177.164 132.927 154.412 115.001 136.563 113.929C116.952 112.626 86.9227 116.38 86.9227 116.38Z" fill="#0D1E43"/>
<path d="M49.156 145.031C49.156 145.031 57.506 141.507 59.651 141.354C61.796 141.2 67.6946 145.26 66.9285 144.035C66.1625 142.809 60.6469 139.821 62.2556 139.438C63.8643 139.055 72.9038 141.2 70.2992 139.821C67.7712 138.443 61.7194 138.289 63.3281 137.293C64.9368 136.298 70.6822 136.298 68.4607 135.378C66.3157 134.459 64.4772 133.387 64.4772 133.387C64.4772 133.387 69.763 118.602 74.2827 112.78C78.8024 106.958 83.169 102.974 85.4671 102.361C91.2126 100.753 93.9704 97.7649 93.9704 97.7649C93.9704 97.7649 79.8749 96.386 76.9639 99.1438C74.0529 101.825 64.0941 131.242 60.8001 135.072C57.4294 138.749 49.156 145.031 49.156 145.031Z" fill="#0D1E43"/>
<path d="M95.5027 97.6116C95.5027 97.6116 102.321 95.2368 110.288 83.5928C118.255 71.9487 111.437 66.2033 110.977 65.667C108.066 61.7601 92.2853 54.8656 90.4468 56.3211C85.8504 59.7684 88.5316 74.1703 83.0926 85.2015C79.3389 92.7855 73.8233 99.0671 76.0449 100.293C78.1898 101.442 95.5027 97.6116 95.5027 97.6116Z" fill="#FFB600"/>
<path d="M106.917 67.9652L107.223 82.2139L108.526 64.3647L106.917 67.9652Z" fill="#FF9100"/>
<path d="M75.5088 99.5268C75.5088 99.5268 89.068 92.0961 94.89 86.7337C100.712 81.3713 103.163 74.3235 103.623 72.4084C104.083 70.4932 106.074 67.8886 106.074 67.8886L103.47 64.6712L99.8694 62.6794C99.946 62.6794 77.4239 97.0754 75.5088 99.5268Z" fill="#FF9100"/>
<path d="M100.635 59.2322C100.635 59.2322 107.683 53.8697 109.062 51.4184C110.441 48.967 113.122 43.6812 117.489 45.0601C121.855 46.439 120.936 50.8821 120.4 52.4908C119.864 54.0996 117.948 58.4661 117.719 58.3895C117.412 58.3129 116.953 57.2404 116.953 57.2404C116.953 57.2404 115.727 59.9216 114.195 60.1514C112.663 60.3812 111.437 59.3088 111.437 59.3088C111.437 59.3088 108.143 62.0666 107.76 63.2923C107.377 64.518 107.224 67.5822 107.224 67.5822C107.224 67.5822 99.3332 63.7519 100.635 59.2322Z" fill="#FFB68E"/>
<path d="M100.252 58.4659C100.252 58.4659 101.938 69.2673 100.482 75.2426C99.0265 81.2178 76.198 100.752 71.142 101.978C66.0095 103.204 59.7278 101.672 59.7278 101.672C59.7278 101.672 75.5852 85.3545 81.4072 75.8554C87.3059 66.3563 87.3825 57.47 91.366 55.9379C95.3495 54.3292 100.252 58.4659 100.252 58.4659Z" fill="#132B56"/>
<path d="M108.909 63.1389C108.909 63.1389 107.683 74.783 107.989 80.5284C108.372 86.2739 102.014 97.7647 102.014 97.7647L104.236 97.8413C104.236 97.8413 113.505 82.2904 115.267 77.694C117.029 73.0977 115.956 68.1183 114.501 67.199C113.122 66.2798 108.909 63.1389 108.909 63.1389Z" fill="#132B56"/>
<path d="M59.6514 101.595C59.6514 101.595 68.2312 104.583 74.0533 100.523C79.8753 96.3859 91.596 81.6776 93.5111 76.9281C95.4263 72.1785 95.1198 71.489 95.1198 71.489L98.1841 72.4083L95.7327 69.1909C95.7327 69.1909 96.652 67.812 96.1923 64.1349C95.7327 60.4578 94.2006 55.8615 94.2006 55.8615C94.2006 55.8615 90.3703 53.7931 88.2253 59.5385C86.0804 65.284 81.1776 74.8597 79.1858 78.1537C77.1941 81.3712 62.5624 99.5268 59.6514 101.595Z" fill="#0D1E43"/>
<path d="M112.586 65.8201C112.586 65.8201 112.892 75.549 112.892 76.7747C112.892 78.077 110.288 76.6215 110.288 76.6215L112.356 78.6132C112.356 78.6132 111.59 82.2903 110.517 84.8949C109.445 87.4995 103.24 95.2367 103.24 95.2367L101.938 97.6881L104.159 97.7647C104.159 97.7647 114.195 83.133 115.88 77.3109C117.565 71.4889 115.65 68.4247 115.037 67.7352C114.578 67.199 112.586 65.8201 112.586 65.8201Z" fill="#0D1E43"/>
<path d="M114.578 78.9199C114.578 78.9199 124.613 93.7048 129.056 92.7089C133.499 91.713 144.837 78.307 145.373 76.8515C145.909 75.396 145.143 74.7832 145.143 74.7832L142.079 73.0978C142.079 73.0978 131.431 82.597 130.512 82.8268C129.592 83.0566 118.714 71.5657 114.884 67.5056C114.884 67.5056 114.424 78.2304 114.578 78.9199Z" fill="#0D1E43"/>
<path d="M93.1279 55.5551C93.1279 55.5551 63.5581 51.8014 53.8292 56.7041C44.1002 61.6069 38.2782 64.7478 38.2782 64.7478L40.1933 70.0336C40.1933 70.0336 54.9017 63.6753 63.2517 62.9092C71.5251 62.0665 86.8463 66.5097 90.4467 64.7478C94.0472 62.9858 93.1279 55.5551 93.1279 55.5551Z" fill="#0D1E43"/>
<path d="M38.2782 64.7477C38.2782 64.7477 43.4874 66.3564 47.8539 64.9009C54.3654 62.6794 57.1998 62.5261 56.97 61.4537C56.6636 60.228 57.0466 58.083 57.8127 59.0023C58.5787 59.9216 60.0342 63.2156 60.4939 62.2963C60.8769 61.3771 59.9576 56.7807 60.9535 58.1596C62.026 59.5385 63.1751 62.4495 63.4049 61.6069C63.6347 60.7642 63.9411 56.7041 64.7072 58.9257C65.5499 61.0706 71.2187 60.8408 75.5852 61.3771C79.9517 61.9133 90.1403 59.3853 90.1403 59.3853C90.1403 59.3853 88.1486 65.3606 86.1568 65.1307C80.105 64.5945 67.7714 62.6028 63.2517 62.9092C58.7319 63.2922 40.1933 70.0335 40.1933 70.0335L38.2782 64.7477Z" fill="#020023"/>
<path d="M114.578 78.9198C114.578 78.9198 115.574 76.545 115.957 74.0936C116.416 71.6423 116.186 70.4932 116.186 70.4932C116.186 70.4932 119.404 75.0895 120.553 77.8473C121.702 80.5285 124.383 86.657 125.456 87.8827C126.528 89.1084 127.141 87.2698 127.83 85.5845C128.52 83.8992 128.06 87.4996 128.367 88.4955C128.673 89.4914 130.052 83.4395 130.588 84.2822C131.124 85.1249 130.741 89.568 131.278 88.9552C131.814 88.3423 132.35 84.2056 132.503 84.7418C132.657 85.2781 133.729 87.2698 133.729 87.2698C133.729 87.2698 140.93 78.9198 141.926 77.1579C142.922 75.3959 142.003 73.0212 142.003 73.0212C142.003 73.0212 145.297 74.017 145.756 75.3193C146.139 76.6216 145.297 76.7748 145.297 76.7748C145.297 76.7748 139.475 84.8184 135.491 88.4955C131.508 92.2492 129.975 92.4024 128.596 92.7854C126.069 93.5515 116.493 83.8992 114.578 78.9198Z" fill="#020023"/>
<path d="M142.615 73.2509C142.615 73.2509 142.922 68.961 143.458 68.3481C143.994 67.7353 146.522 67.2756 146.905 67.2756C147.288 67.2756 145.986 68.5013 145.526 68.8844C145.067 69.2674 145.68 69.344 146.752 70.0334C147.825 70.7229 148.82 72.4848 148.82 72.7913C148.744 73.0977 145.297 74.9362 145.297 74.9362L142.615 73.2509Z" fill="#FFB68E"/>
<path d="M146.063 74.4767C146.063 74.4767 145.297 73.4042 144.837 72.0253C144.377 70.6464 145.22 69.1909 145.22 69.1909C145.22 69.1909 146.982 69.8804 147.901 70.9529C148.744 72.0253 148.667 72.9446 148.667 72.9446C148.667 72.9446 147.058 73.9405 146.063 74.4767Z" fill="#EF8B59"/>
<path d="M39.8102 69.0375C39.8102 69.0375 37.9717 71.4123 35.8267 72.9444C33.6818 74.4765 33.6052 73.5573 34.6011 72.1784C35.5969 70.7995 35.98 69.8802 35.98 69.8802C35.98 69.8802 30.3877 73.4807 29.3919 73.4807C28.396 73.4807 31.4602 70.3398 31.4602 70.3398C31.4602 70.3398 28.2428 72.4082 27.7831 72.0252C26.7873 71.1825 30.541 68.9609 30.541 68.9609C30.541 68.9609 26.7873 70.11 26.9405 69.1141C27.1703 68.1183 30.3877 67.2756 30.3877 67.2756C30.3877 67.2756 27.1703 67.6586 27.8597 66.5095C28.5492 65.3605 38.1249 64.8242 38.1249 64.8242L39.8102 69.0375Z" fill="#FFB68E"/>
<path d="M108.909 63.1389L108.296 63.2921C108.296 63.2921 107.913 75.0894 107.683 78.5367C107.377 83.5161 106.304 87.3463 105.615 89.9509C105.385 90.6404 105.308 91.1 105.308 91.1L104.695 92.4789C104.695 92.4789 107.377 86.6569 107.989 83.2096C108.526 79.6858 108.909 63.1389 108.909 63.1389Z" fill="#020023"/>
<path d="M39.1976 65.8967L39.0444 65.5903C39.7339 65.2073 56.0509 56.3976 58.6555 56.3976C58.7321 56.3976 58.7321 56.3976 58.8087 56.3976C59.8046 56.5508 66.3161 56.2444 73.2872 55.938C83.7056 55.4783 90.6001 55.2485 91.213 55.4783C91.2896 55.4783 91.3662 55.5549 91.3662 55.7082C91.596 56.5508 89.9107 60.6109 88.9148 61.9898L88.6084 61.76C89.6808 60.3045 91.2896 56.321 91.0597 55.8614C90.5235 55.6316 80.9478 56.0146 73.2872 56.321C66.3161 56.6274 59.728 56.8572 58.7321 56.7806H58.6555C56.5872 56.7806 43.9472 63.2921 39.1976 65.8967Z" fill="#020023"/>
<path d="M71.8315 86.8102L77.5004 88.4189L78.8793 87.04L72.8274 85.5845L71.8315 86.8102Z" fill="#020023"/>
<path d="M75.049 105.425C75.049 105.425 77.577 104.736 80.488 103.357C83.3225 102.055 83.9353 101.748 83.9353 101.748L83.8587 102.514L74.8192 107.724L75.049 105.425Z" fill="#020023"/>
<path d="M72.2913 140.664H72.2147C72.1381 140.587 72.0614 140.511 72.1381 140.434C76.5046 131.624 81.9436 123.504 85.5441 118.142C87.306 115.537 88.5317 113.699 88.9147 112.856C89.1445 112.32 89.7574 111.937 90.3702 111.477C90.9065 111.094 91.5193 110.634 91.7491 110.175C93.7409 106.728 94.0473 105.579 94.0473 105.579C94.0473 105.502 94.2005 105.425 94.2771 105.425C94.3537 105.425 94.4303 105.579 94.4303 105.655C94.4303 105.732 94.1239 106.804 92.0556 110.328C91.7491 110.864 91.1363 111.324 90.6 111.707C90.0638 112.09 89.451 112.55 89.2978 112.933C88.9147 113.775 87.6124 115.69 85.8505 118.295C82.25 123.657 76.811 131.778 72.4445 140.511C72.4445 140.664 72.3679 140.664 72.2913 140.664Z" fill="#020023"/>
<path d="M88.6083 114.771C88.5317 114.771 88.4551 114.771 88.4551 114.695C88.3785 114.618 88.4551 114.465 88.5317 114.465C88.6083 114.388 95.0432 110.098 98.1074 105.962C98.184 105.885 98.2606 105.885 98.3372 105.885C98.4138 105.962 98.4138 106.038 98.4138 106.115C95.3496 110.252 88.8381 114.695 88.7615 114.695C88.6849 114.695 88.6849 114.771 88.6083 114.771Z" fill="#020023"/>
<path d="M91.2894 115.001C91.2128 115.001 91.1362 114.924 91.1362 114.848C91.0596 114.771 91.1362 114.618 91.2128 114.618C91.2894 114.618 96.1922 112.55 99.2564 108.872C102.321 105.195 102.78 104.046 102.78 104.046L103.087 103.28L103.163 104.046C103.163 104.123 103.393 106.038 101.861 108.413C100.406 110.711 99.1798 111.937 99.1032 112.013C99.0266 112.09 98.8734 112.09 98.7968 112.013C98.7202 111.937 98.7202 111.784 98.7968 111.707C98.7968 111.707 100.022 110.481 101.478 108.183C102.321 106.804 102.627 105.578 102.704 104.812C102.244 105.502 101.325 106.881 99.4862 109.026C96.422 112.856 91.366 115.001 91.2894 115.001Z" fill="#020023"/>
<path d="M64.7839 142.886C64.0944 142.886 62.3325 141.507 61.5664 140.817C60.5706 139.975 58.8852 138.442 59.0385 137.906C59.0385 137.83 59.1151 137.676 59.3449 137.676C60.6472 137.6 67.3885 138.902 67.6949 138.979C67.7715 138.979 67.8481 139.132 67.8481 139.208C67.8481 139.285 67.6949 139.362 67.6183 139.362C67.5417 139.362 60.6472 137.983 59.3449 138.059C59.4215 138.213 59.7279 138.672 60.6472 139.591C62.2559 141.124 64.3243 142.579 64.7073 142.503C64.7839 142.426 64.9371 142.503 64.9371 142.579C65.0137 142.656 64.9371 142.809 64.8605 142.809C64.8605 142.809 64.8605 142.886 64.7839 142.886Z" fill="#020023"/>
<path d="M61.4898 136.527C61.4132 136.527 61.3365 136.451 61.3365 136.374C61.3365 136.297 61.4132 136.144 61.4898 136.144L66.3925 134.995C66.4691 134.995 66.6223 135.072 66.6223 135.148C66.6223 135.225 66.5457 135.378 66.4691 135.378L61.4898 136.527Z" fill="#020023"/>
<path d="M134.419 112.397C134.265 112.397 134.189 112.32 134.112 112.32C133.346 111.554 135.491 105.042 135.951 103.74C135.951 103.664 136.104 103.587 136.18 103.587C136.257 103.587 136.334 103.74 136.334 103.817C135.031 107.494 134.036 111.554 134.419 111.937C135.031 111.937 137.866 108.49 140.164 105.272C140.241 105.196 140.317 105.196 140.394 105.196C140.47 105.272 140.47 105.349 140.47 105.425C140.011 106.268 135.644 112.243 134.419 112.397Z" fill="#020023"/>
<path d="M138.785 114.005L138.938 109.102C138.938 109.026 139.015 108.873 139.168 108.949C139.245 108.949 139.321 109.026 139.321 109.179L139.245 113.086L144.99 107.187C145.067 107.111 145.22 107.111 145.297 107.187C145.373 107.264 145.373 107.417 145.297 107.494L138.785 114.005Z" fill="#020023"/>
<path d="M73.4403 85.9674C73.3637 85.9674 73.3637 85.9674 73.2871 85.8908C73.2105 85.8142 73.2105 85.661 73.2871 85.5844C73.3637 85.5078 80.9476 79.0729 84.2417 74.9362C87.4591 70.8761 88.2252 69.0375 88.2252 69.0375C88.3018 68.9609 88.3784 68.8843 88.455 68.9609C88.5316 69.0375 88.6082 69.1141 88.5316 69.1907C88.5316 69.2674 87.7656 71.0293 84.4715 75.166C81.1775 79.3027 73.5935 85.8142 73.5169 85.8142C73.5935 85.9674 73.5169 85.9674 73.4403 85.9674Z" fill="#020023"/>
<path d="M79.7221 78.077H79.6455C79.5689 78.0004 79.5688 77.9238 79.5688 77.8472L85.7739 68.3481C85.8505 68.2715 85.9271 68.2715 86.0037 68.2715C86.0803 68.3481 86.0803 68.4247 86.0803 68.5013L79.8753 78.0004C79.7987 78.077 79.7987 78.077 79.7221 78.077Z" fill="#020023"/>
<path d="M99.5628 74.7831C99.4862 74.7831 99.4096 74.7831 99.4096 74.7065L95.5027 69.2675V69.1909C95.5027 69.1909 95.8858 68.0418 95.9624 64.2115C96.039 60.3813 94.0472 56.0147 94.0472 56.0147C93.9706 55.9381 94.0472 55.7849 94.1238 55.7849C94.2004 55.7083 94.3537 55.7849 94.3537 55.8615C94.3537 55.9381 96.422 60.3046 96.3454 64.2115C96.2688 67.5822 95.9624 68.8845 95.8858 69.1909L99.6394 74.4767C99.7161 74.5533 99.7161 74.7065 99.5628 74.7065C99.6395 74.7065 99.6395 74.7831 99.5628 74.7831Z" fill="#020023"/>
<path d="M83.1693 91.6362C83.0927 91.6362 83.0927 91.6362 83.0161 91.5596C82.9395 91.483 82.9395 91.3298 83.0161 91.2532C83.0927 91.1766 87.8422 86.1206 90.9065 80.988C93.9707 75.8554 95.1964 71.4889 95.273 71.4889C95.273 71.4123 95.4262 71.3357 95.5028 71.3357C95.5794 71.3357 95.656 71.4889 95.656 71.5655C95.656 71.6421 94.3537 76.0086 91.2895 81.2178C88.2253 86.3504 83.3991 91.483 83.3991 91.5596C83.2459 91.6362 83.1693 91.6362 83.1693 91.6362Z" fill="#020023"/>
<path d="M112.433 77.4643C111.743 77.4643 110.594 77.0047 110.211 76.8515C110.134 76.7749 110.058 76.6983 110.134 76.6217C110.211 76.5451 110.288 76.4685 110.364 76.5451C111.36 77.0047 112.433 77.2345 112.586 77.0813C112.586 76.4685 112.433 67.429 112.433 67.3524C112.433 67.2758 112.509 67.1226 112.586 67.1226C112.662 67.1226 112.739 67.1992 112.739 67.2758C112.739 67.6588 112.969 76.3919 112.892 77.0813C112.892 77.2345 112.816 77.3111 112.739 77.3877C112.739 77.4643 112.586 77.4643 112.433 77.4643Z" fill="#020023"/>
<path d="M105.615 92.9385C105.538 92.9385 105.538 92.9385 105.538 92.9385C105.462 92.8619 105.462 92.7853 105.462 92.7087C105.462 92.6321 108.526 88.4953 109.981 85.7375C111.437 83.0563 112.126 79.0728 112.126 78.9962C112.126 78.9196 112.279 78.843 112.356 78.843C112.433 78.843 112.509 78.9962 112.509 79.0728C112.509 79.1494 111.743 83.1329 110.288 85.8907C108.832 88.6486 105.768 92.8619 105.768 92.8619C105.691 92.9385 105.615 92.9385 105.615 92.9385Z" fill="#020023"/>
<path d="M106.381 54.0229C106.381 54.0229 108.909 53.9463 110.441 52.9504C111.973 51.9545 112.586 51.2651 112.663 50.499C112.816 48.8903 114.807 46.822 114.961 47.8178C115.114 48.8137 113.888 50.4224 114.578 50.2692C115.267 50.0394 116.416 47.6646 118.102 47.7412C119.787 47.8178 120.553 49.733 121.855 49.6564C122.851 49.5798 124.536 49.1967 125.379 49.0435C127.294 48.7371 132.274 48.1243 132.81 45.1366C133.346 41.766 128.52 42.6853 123.617 41.9958C118.485 41.2297 112.892 40.3871 112.433 41.766C111.973 43.1449 113.582 45.5963 112.356 44.9068C111.13 44.2174 110.058 44.677 109.598 45.7495C108.526 47.971 108.602 51.8779 106.381 54.0229Z" fill="#172755"/>
<path d="M100.099 57.2405C100.252 57.3171 101.785 58.696 103.547 61.0707C105.308 63.4455 106.151 65.8969 106.151 65.8969C106.151 65.8969 105.768 66.2033 106.075 67.1226C106.381 68.0419 106.151 67.8887 106.151 67.8887C106.151 67.8887 105.385 67.9653 105.232 67.5822C105.002 67.1992 104.696 66.1267 104.696 66.1267L102.857 67.3524C102.857 67.3524 101.325 64.8244 100.099 61.99C99.18 59.7684 97.8777 56.8574 97.8777 56.8574L100.099 57.2405Z" fill="#FFB600"/>
<path d="M108.219 62.2197L110.364 63.2922C110.364 63.2922 110.824 64.7477 110.211 66.1266C109.598 67.5055 107.913 68.8078 107.913 68.6546C107.913 68.578 107.683 66.9693 107.453 67.0459C107.223 67.1225 106.917 67.7353 106.917 67.7353C106.917 67.7353 107.147 63.8284 107.53 63.2156C107.836 62.6794 108.219 62.2197 108.219 62.2197Z" fill="#FFB600"/>
<path d="M105.308 67.7354L106.304 71.2592L107.76 67.812C107.76 67.812 106.151 67.8886 105.308 67.7354Z" fill="#FF3C00"/>
<path d="M74.8192 92.0959L79.8752 89.1849C79.8752 89.1849 89.6807 85.9674 96.5752 81.1413C103.393 76.3151 106.228 69.6504 106.228 69.6504L106.534 71.0293C106.534 71.0293 102.091 81.8307 93.7408 87.7294C85.3142 93.5514 80.6413 93.7812 74.8192 92.0959Z" fill="#FF3C00"/>
<path d="M146.752 68.8845C146.752 68.8845 145.45 70.6464 145.45 71.0294C145.526 71.4891 146.369 71.0294 146.369 71.0294C146.369 71.0294 145.526 71.8721 145.909 72.1785C146.216 72.485 146.982 72.0253 146.982 72.0253C146.982 72.0253 146.369 72.7148 146.752 72.868C147.135 73.0212 147.901 72.6382 147.901 72.6382C147.901 72.6382 147.212 73.0212 147.365 73.4808C147.518 73.9405 148.514 73.3276 149.204 72.5616C149.893 71.7955 150.123 71.4125 149.97 71.1827C149.816 70.9528 149.663 70.9528 149.663 70.9528C149.663 70.9528 149.816 70.34 149.51 70.1102C149.204 69.957 148.974 70.0336 148.974 70.0336C148.974 70.0336 149.127 69.1143 148.744 68.9611C148.361 68.8079 148.054 68.8845 148.054 68.8845C148.054 68.8845 148.208 68.0418 147.825 68.0418C147.442 67.9652 146.369 68.4248 146.369 68.4248L146.752 68.8845Z" fill="#FFB68E"/>
<path d="M111.207 59.3085L109.828 56.4741C109.828 56.4741 108.066 59.3851 107.3 60.9173C106.534 62.4494 107.3 64.4411 107.3 64.4411C107.3 64.4411 107.377 63.5985 108.066 62.526C108.756 61.6067 111.207 59.3085 111.207 59.3085Z" fill="#EF8B59"/>
<path d="M112.433 51.1884C112.433 51.1884 111.513 49.1967 111.284 47.4347C111.054 45.6728 111.513 44.6003 111.513 44.6003C111.513 44.6003 110.058 44.1407 109.445 45.7494C108.756 47.5113 108.373 50.4224 107.76 51.8013C107.147 53.1802 106.457 54.0228 106.457 54.0228C106.457 54.0228 110.977 54.0228 112.433 51.1884Z" fill="#020023"/>
<path d="M119.94 48.5838C119.787 48.5838 119.71 48.5072 119.71 48.354C119.71 48.2774 119.787 48.2008 119.863 48.2008C120.017 48.2008 124.69 48.2008 127.371 45.5196C127.907 44.9833 128.137 44.5237 127.984 44.064C127.601 42.915 124.766 42.3021 123.694 42.1489C123.617 42.1489 123.54 42.0723 123.54 41.9191C123.54 41.8425 123.617 41.7659 123.77 41.7659C123.924 41.7659 127.83 42.3021 128.367 43.9108C128.52 44.4471 128.29 45.0599 127.677 45.7494C124.919 48.5072 120.323 48.5838 119.94 48.5838Z" fill="#020023"/>
<path d="M118.791 47.8944C118.714 47.8944 118.638 47.8178 118.638 47.8178C118.561 47.7411 118.638 47.5879 118.714 47.5879C121.932 46.1324 124.613 44.5237 124.536 44.0641C124.46 43.5278 122.928 43.2214 122.085 43.2214C122.008 43.2214 121.932 43.1448 121.932 42.9916C121.932 42.915 122.008 42.8384 122.162 42.8384C122.468 42.8384 124.843 42.9916 124.996 43.9875C125.149 44.9833 120.4 47.2049 118.944 47.8944C118.791 47.8944 118.791 47.8944 118.791 47.8944Z" fill="#020023"/>
<path d="M116.569 48.2773C116.416 48.2773 116.34 48.1241 116.416 48.0475C116.416 48.0475 116.646 46.8218 115.344 44.9833C113.965 43.1448 111.973 43.298 111.896 43.298C111.82 43.298 111.667 43.2214 111.667 43.1448C111.667 43.0682 111.743 42.9149 111.82 42.9149C111.896 42.9149 114.118 42.8383 115.574 44.8301C117.029 46.8218 116.723 48.1241 116.723 48.2007C116.723 48.2773 116.646 48.2773 116.569 48.2773Z" fill="#020023"/>
<path d="M125.532 50.4224C123.004 50.4224 120.783 49.5797 120.706 49.5797C120.629 49.5797 120.553 49.4265 120.629 49.3499C120.629 49.2733 120.783 49.1967 120.859 49.2733C120.936 49.2733 125.685 51.0352 129.286 49.3499C130.205 48.8903 130.665 48.4306 130.665 48.0476C130.665 47.4348 129.745 46.9751 129.745 46.9751C129.669 46.8985 129.592 46.8219 129.669 46.7453C129.745 46.6687 129.822 46.5921 129.899 46.6687C129.975 46.6687 131.048 47.2815 131.048 48.1242C131.048 48.7371 130.512 49.2733 129.439 49.8095C128.213 50.1926 126.834 50.4224 125.532 50.4224Z" fill="#020023"/>
</g>
</g>
<rect x="0.323129" y="0.323129" width="189.354" height="149.354" rx="7.67687" stroke="#F0AD99" stroke-width="0.646259"/>
<defs>
<clipPath id="clip0_1924_1953">
<rect width="190" height="150" rx="8" fill="white"/>
</clipPath>
<clipPath id="clip1_1924_1953">
<rect width="196.187" height="130" fill="white" transform="translate(-6 41)"/>
</clipPath>
</defs>
</svg>
