<svg width="190" height="150" viewBox="0 0 190 150" fill="none" xmlns="http://www.w3.org/2000/svg">
<g clip-path="url(#clip0_1924_2135)">
<rect width="190" height="150" rx="8" fill="#FCEDE9"/>
<g clip-path="url(#clip1_1924_2135)">
<path d="M148.781 58.9013C148.781 58.9013 141.301 77.2175 133.725 80.2862C123.56 84.3139 109.08 85.3687 109.08 85.3687L108.313 81.7247C108.313 81.7247 122.026 76.5463 130.177 70.9843C133.342 68.8746 139.575 51.0378 140.726 49.5994C142.452 47.5855 150.411 49.8871 148.781 58.9013Z" fill="#004345"/>
<g opacity="0.58">
<path d="M138.999 53.3391H143.123L142.643 59.956L136.41 59.5724L138.999 53.3391Z" fill="#003030"/>
<path d="M142.739 60.1477H147.342L143.986 66.5728L142.835 66.7646L142.739 60.1477Z" fill="#003030"/>
<path d="M136.41 59.5723H136.89L136.314 66.1891L133.341 66.285L136.41 59.5723Z" fill="#003030"/>
<path d="M136.506 66.1892H143.027L141.397 72.4225L136.602 72.7102L136.506 66.1892Z" fill="#003030"/>
<path d="M143.027 49.0238C146.383 48.7361 148.877 50.8458 148.301 53.9145V54.0104L143.123 53.9145L143.027 49.0238Z" fill="#003030"/>
<path d="M129.793 72.6143H136.314L135.835 79.2311L129.889 79.1352L129.793 72.6143Z" fill="#003030"/>
<path d="M129.314 71.5595L130.177 70.9841V72.6144H127.492L129.314 71.5595Z" fill="#003030"/>
<path d="M122.025 75.875H126.437L125.957 82.4919L120.011 82.396V76.7381L122.025 75.875Z" fill="#003030"/>
<path d="M109.559 81.149L115.984 78.5598L115.505 84.7931L109.655 84.6972L109.559 81.149Z" fill="#003030"/>
</g>
<path d="M108.313 81.6287C108.313 81.6287 102.08 80.9575 101.504 82.0123C100.929 82.9713 102.943 82.6836 102.751 83.3549C102.559 84.0261 95.4627 85.4646 96.5175 86.2318C97.5724 86.9989 99.778 86.6153 99.778 86.6153C99.778 86.6153 96.9011 87.4784 97.6683 87.862C98.4354 88.2456 101.216 87.5743 101.216 87.5743C101.216 87.5743 99.5862 88.6292 100.449 88.9169C101.312 89.2045 103.23 88.5333 103.23 88.5333C103.23 88.5333 102.08 90.5471 103.23 89.9717C104.285 89.3963 109.08 85.2728 109.08 85.2728L108.313 81.6287Z" fill="#EF8B59"/>
<path d="M146.958 64.1757C148.589 61.3947 149.164 55.7368 148.013 52.6681C147.917 52.2845 147.534 54.3942 147.534 54.586C147.342 59.3808 136.697 72.4228 135.93 73.4776C135.163 74.4366 134.396 77.5053 134.204 76.6422C134.012 75.7791 133.437 71.4638 132.957 71.8474C131.998 72.5186 133.821 77.9847 133.821 77.9847C133.821 77.9847 131.04 74.7243 130.848 75.3955C130.656 76.0668 132.19 79.5191 131.998 79.615C131.807 79.7109 129.889 76.9299 129.601 78.0806C129.313 79.2314 129.697 80.478 128.259 80.7657C126.82 81.1493 108.887 84.3139 108.887 84.3139L109.463 85.5606C109.463 85.5606 124.039 83.8344 132.19 81.2452C137.848 79.3273 143.506 69.8335 146.958 64.1757Z" fill="#003030"/>
<path d="M107.738 81.437L108.505 85.9441L109.752 85.3688L108.889 81.437H107.738Z" fill="white"/>
<path d="M159.33 48.8324C159.33 48.8324 155.014 39.2428 155.206 36.1741C155.398 33.1054 156.165 26.7763 151.082 25.4337C146 24.0912 144.082 28.6942 143.698 30.5162C143.219 32.3382 142.356 37.3249 142.644 37.4208C142.931 37.5167 144.082 36.8454 144.082 36.8454C144.082 36.8454 143.603 40.01 144.945 41.1607C146.288 42.2156 148.206 42.0238 148.206 42.0238C148.206 42.0238 149.356 44.9966 148.973 46.3391C148.589 47.6817 147.822 49.3119 147.822 49.3119C147.822 49.3119 157.795 53.6273 159.33 48.8324Z" fill="#FFB68E"/>
<path d="M155.014 49.9831C155.014 49.9831 155.014 49.8872 154.918 49.6954C154.535 48.6406 153.288 44.9006 152.425 41.3524C151.466 37.133 150.411 33.2012 151.37 32.9135C152.904 32.4341 153.48 30.1326 153.48 30.1326C153.48 30.1326 151.754 28.79 151.466 29.5572C151.178 30.3243 151.082 32.0505 150.699 32.0505C150.315 32.0505 150.027 31.1874 149.068 29.4613C148.11 27.7351 146.959 27.1598 146.959 27.1598C146.959 27.1598 149.356 26.968 150.986 27.3516C152.617 27.7351 155.685 37.3248 156.165 40.0099C156.548 42.695 159.521 48.9283 159.521 48.9283C159.521 48.9283 156.452 52.3805 155.014 49.9831Z" fill="#EF8B59"/>
<path d="M156.165 40.0098C156.165 40.0098 153.768 38.4755 152.904 36.6534C152.041 34.8314 151.85 33.8724 152.329 33.2012C153.192 31.6668 152.521 28.5981 151.754 29.3653C150.987 30.1325 151.178 32.434 150.603 31.7627C150.028 31.1873 150.507 28.3104 148.781 27.3515C147.055 26.3925 145.329 27.5433 143.986 26.872C141.876 25.8171 144.561 23.8033 149.548 23.5156C151.274 23.4197 154.151 23.7074 155.398 25.8171C156.261 27.1597 154.439 28.1186 156.069 28.2145C157.699 28.3104 158.466 29.3653 158.275 30.6119C157.891 33.297 155.398 36.7493 156.165 40.0098Z" fill="#172755"/>
<path d="M152.713 31.6668C152.713 31.6668 154.247 32.7216 155.59 31.1873C156.932 29.653 157.124 28.5022 157.124 28.5022C157.124 28.5022 158.754 28.8858 158.371 30.8037C157.987 32.8175 156.453 35.6944 156.261 37.2288C155.973 38.7631 156.165 40.0098 156.165 40.0098C156.165 40.0098 153.192 38.6672 152.042 34.8314C151.754 33.6806 152.617 32.434 152.713 31.6668Z" fill="#020023"/>
<path d="M157.316 198.335C157.316 198.335 155.014 169.95 154.631 159.689C154.247 148.181 149.069 106.754 152.329 102.343C154.343 99.6575 161.919 103.397 164.316 104.069C167.385 105.028 164.22 101 165.851 102.343C169.591 105.507 170.262 110.398 170.07 115.864C169.591 132.454 165.851 159.113 165.851 159.113L167.097 197.664L157.316 198.335Z" fill="#087777"/>
<path d="M146 153.072C146 153.072 157.124 117.398 156.837 115.96C156.549 114.617 156.741 110.302 162.686 110.59C168.632 110.877 168.056 108.48 168.056 108.48C168.056 108.48 149.932 96.1093 147.247 96.5888C144.658 97.0683 140.342 101.767 140.342 101.767C140.342 101.767 138.425 138.4 139 154.99C139.575 171.58 140.151 196.705 140.151 196.705L147.055 197.184L146 153.072Z" fill="#087777"/>
<path d="M140.15 104.165C140.15 104.165 142.74 106.85 148.397 108.576C154.343 110.398 162.59 110.973 162.974 111.836C163.357 112.699 165.275 151.154 164.604 152.017C163.933 152.88 159.521 156.812 160.193 156.812C160.864 156.812 165.371 154.222 165.275 154.798C165.179 155.373 160.48 161.031 161.823 160.552C163.166 160.072 165.275 158.634 165.275 158.634C165.275 158.634 164.029 160.935 164.124 161.511C164.316 162.086 155.686 178.101 155.686 178.101L156.453 202.267H168.823L167.96 158.442C167.96 158.442 170.645 117.206 170.645 114.138C170.645 111.069 170.645 106.178 170.645 106.178C170.645 106.178 167.481 109.439 163.933 108.192C160.48 107.041 154.727 102.822 154.727 102.822L142.931 102.726L140.15 104.165Z" fill="#004345"/>
<path d="M155.781 102.534C155.781 102.534 151.753 102.918 147.918 102.534C145.328 102.247 143.123 101.671 143.123 101.671C143.123 101.671 145.808 97.6436 148.972 97.6436C151.466 97.6436 155.781 102.534 155.781 102.534Z" fill="#CFE5E1"/>
<path d="M164.7 118.645C170.741 119.892 174.002 117.878 173.714 116.343C172.851 110.494 167.577 77.0258 169.686 70.409C172.18 62.5455 171.317 53.723 169.207 52.3804C166.618 50.7502 155.11 48.4487 147.918 48.4487C147.63 48.4487 147.438 48.3528 147.151 48.3528C144.753 48.3528 142.835 48.8323 142.26 49.5994C139.671 52.4763 135.547 66.7649 137.753 73.5735C139.958 80.3822 138.616 100.041 138.616 100.041C138.616 100.041 149.452 93.3282 155.781 101.288C161.056 107.809 160.097 117.686 164.7 118.645Z" fill="#004345"/>
<path d="M160.001 49.9831L149.931 71.4639L147.822 48.5447C147.918 48.5447 157.316 49.216 160.001 49.9831Z" fill="white"/>
<path d="M153.671 63.6004C153.671 63.6004 156.069 56.3122 154.822 52.7641C154.343 51.5174 153.288 50.942 153.288 50.942L151.274 51.2297L148.205 51.5174L147.822 48.2569L149.931 47.9692L151.945 48.8323L158.85 49.5036L160.192 49.6954L153.671 63.6004Z" fill="#CFE5E1"/>
<path d="M151.083 48.3528L152.809 51.7092C152.809 51.7092 155.494 49.12 155.494 48.8323C155.494 48.5446 151.083 48.3528 151.083 48.3528Z" fill="#FF3C00"/>
<path d="M152.617 50.1747L149.356 64.9428L149.932 71.8473L152.713 65.614L153.576 49.9829L152.617 50.1747Z" fill="#FF3C00"/>
<path d="M145.521 76.6421C145.521 76.6421 147.726 84.7933 152.042 91.8897C157.604 101.096 164.796 117.494 164.796 117.494L164.604 118.645C160.481 118.453 152.905 101.192 149.836 98.2188C148.973 97.4517 143.315 115.288 141.685 116.535C138.808 118.645 138.808 117.398 138.041 117.015C137.082 116.439 139 80.8616 138.041 77.2175C137.082 73.5734 135.643 68.6827 135.835 67.0525C136.027 65.4222 141.781 49.5034 141.781 49.5034C141.781 49.5034 142.931 48.1609 146 48.1609C147.151 48.1609 147.151 48.1609 147.151 48.1609L147.247 72.3268L145.521 76.6421Z" fill="#046865"/>
<g opacity="0.53">
<path d="M163.549 60.9155L170.837 61.7786L166.042 68.779L162.686 68.2996L163.549 60.9155Z" fill="#003030"/>
<path d="M157.124 67.6279L162.973 68.5869L161.439 75.9709L154.726 75.012L155.398 69.5459L157.124 67.6279Z" fill="#003030"/>
<path d="M161.631 75.9709L168.919 76.9299L167.481 84.4098L160.768 83.4509L161.631 75.9709Z" fill="#003030"/>
<path d="M153.576 82.4919L160.864 83.4509L159.426 90.8349L152.713 89.876L153.576 82.4919Z" fill="#003030"/>
<path d="M147.822 73.6697L155.11 74.6286L153.576 82.1086L146.959 81.1496L147.822 73.6697Z" fill="#003030"/>
<path d="M138.712 80.5742L147.055 81.1496L145.521 88.5336L138.328 87.7665L138.712 80.5742Z" fill="#003030"/>
<path d="M145.425 88.917L152.713 89.876L151.178 97.26L144.466 96.301L145.425 88.917Z" fill="#003030"/>
<path d="M151.082 97.2603L158.371 98.2192L156.836 105.699L154.439 105.316L150.795 99.37L151.082 97.2603Z" fill="#003030"/>
<path d="M158.85 90.7393L166.138 91.6982L164.604 99.1781L157.987 98.2192L158.85 90.7393Z" fill="#003030"/>
<path d="M166.906 84.4099L169.782 84.7935L170.454 92.4652L166.042 91.7939L166.906 84.4099Z" fill="#003030"/>
<path d="M164.699 99.2739L171.412 100.137L171.7 102.055L170.549 107.617L163.836 106.658L164.699 99.2739Z" fill="#003030"/>
<path d="M156.645 105.699L163.933 106.658L162.399 114.042L159.522 113.562L156.069 108.288L156.645 105.699Z" fill="#003030"/>
<path d="M162.495 114.042L169.783 115.001L168.92 119.029H166.523C164.029 119.029 162.495 117.878 162.111 116.823L162.495 114.042Z" fill="#003030"/>
<path d="M170.07 107.809L172.563 108.097L173.522 115.864L169.207 115.193L170.07 107.809Z" fill="#003030"/>
<path d="M138.136 95.9175L144.274 96.4929L142.739 103.877L137.944 103.397L138.136 95.9175Z" fill="#003030"/>
<path d="M143.028 103.877L147.055 104.452L144.274 111.645L142.069 111.357L143.028 103.877Z" fill="#003030"/>
<path d="M137.849 110.494L142.164 111.261L141.109 116.343C140.917 117.398 139.671 117.974 138.712 117.494L137.849 117.111V110.494Z" fill="#003030"/>
<path d="M136.794 72.2312L141.301 72.8066L139.767 80.1906L138.904 80.0947L136.794 72.2312Z" fill="#003030"/>
<path d="M141.685 65.5183L144.945 65.9978L147.63 73.2859L147.534 73.9572L140.822 72.9982L141.685 65.5183Z" fill="#003030"/>
<path d="M138.712 57.8467L143.219 58.2303L141.685 65.6143L136.411 64.8471L138.712 57.8467Z" fill="#003030"/>
</g>
<path d="M148.973 79.4232L149.356 90.8349L151.082 76.7381L159.329 66.2854V65.3264L165.659 60.8193C165.659 60.8193 171.029 56.1204 169.399 52.5722C169.015 51.6133 164.891 50.6543 164.891 50.6543L159.617 63.7921L156.644 63.2167L158.083 66.5731L148.973 77.2176V79.4232Z" fill="#003030"/>
<path d="M149.932 98.5067C149.836 98.5067 149.74 98.4108 149.74 98.3149L148.781 77.2177L148.877 77.1218L157.891 66.5732L156.357 62.9291L159.617 63.6004L164.604 51.901C164.7 51.8051 164.795 51.7092 164.891 51.8051C164.987 51.901 165.083 51.9969 164.987 52.0928L159.809 64.1757L157.028 63.6004L158.37 66.669L149.26 77.4094L150.219 98.3149C150.123 98.4108 150.027 98.5067 149.932 98.5067Z" fill="#020023"/>
<path d="M142.165 49.7912V60.9152H144.946L143.124 63.3126L148.973 77.2176L144.754 63.5044L146.288 59.9562L143.699 58.9973V49.2158L142.165 49.7912Z" fill="#003030"/>
<path d="M168.728 119.22C167.865 119.22 166.522 119.124 164.604 118.837C161.631 118.453 157.796 111.548 154.343 105.507C152.521 102.247 150.699 99.082 149.836 98.4107C149.357 98.8902 148.014 102.342 146.863 105.411C144.946 110.302 142.836 115.96 141.493 116.919C140.63 117.59 139.767 117.878 139 117.686C138.233 117.59 137.849 117.015 137.849 117.015C137.753 116.919 137.849 116.727 137.945 116.727C138.041 116.631 138.233 116.727 138.233 116.823C138.233 116.823 138.52 117.206 139.096 117.302C139.671 117.398 140.342 117.206 141.206 116.631C142.452 115.768 144.658 110.014 146.384 105.315C148.302 100.329 149.165 98.2189 149.644 98.0271C149.74 98.0271 149.836 98.0271 149.932 98.0271C150.987 98.6025 152.617 101.575 154.727 105.315C157.892 110.973 161.919 117.974 164.604 118.357C169.016 118.933 170.262 118.549 170.262 118.549C170.358 118.453 170.55 118.549 170.55 118.645C170.646 118.741 170.55 118.933 170.454 118.933C170.55 119.028 170.07 119.22 168.728 119.22Z" fill="#020023"/>
<path d="M145.521 72.5188H138.712C138.616 72.5188 138.521 72.4229 138.521 72.327C138.521 72.2312 138.616 72.1353 138.712 72.1353H145.521C145.617 72.1353 145.713 72.2312 145.713 72.327C145.809 72.4229 145.713 72.5188 145.521 72.5188Z" fill="#020023"/>
<path d="M167.385 93.6158L159.522 92.9446C159.426 92.9446 159.33 92.8487 159.33 92.6569C159.33 92.561 159.426 92.4651 159.618 92.4651L167.481 93.1364C167.577 93.1364 167.673 93.2323 167.673 93.4241C167.673 93.5199 167.481 93.6158 167.385 93.6158Z" fill="#020023"/>
<path d="M138.904 95.8216C138.808 95.8216 138.712 95.7257 138.712 95.6298C138.712 95.5339 138.808 95.3421 138.904 95.3421L143.507 94.479C143.603 94.479 143.794 94.5749 143.794 94.6708C143.794 94.7667 143.699 94.9585 143.603 94.9585L138.904 95.8216Z" fill="#020023"/>
<path d="M142.452 68.3953L139.766 72.1352H144.465L142.452 68.3953Z" fill="#FF3C00"/>
<path d="M141.301 72.1352L142.835 69.9296L142.164 68.683L142.452 68.3953L144.465 72.1352H141.301Z" fill="#BC2800"/>
<path d="M158.371 50.6544L159.617 48.9282L156.357 47.5857L154.727 49.5036L155.686 49.9831L155.877 50.8462L158.371 50.6544Z" fill="white"/>
<path d="M151.658 49.4077L150.507 47.0103H147.534L148.589 49.4077L150.219 49.983L150.507 49.0241L151.658 49.4077Z" fill="white"/>
<path d="M155.782 50.3666L154.055 50.2707L155.014 49.2158H155.782V50.3666Z" fill="#BC2800"/>
<path d="M151.466 49.0242L150.507 48.5447L150.316 49.6954L152.042 50.2708L151.466 49.0242Z" fill="#BC2800"/>
<path d="M154.055 50.3665L152.905 51.0378L151.946 49.9829L152.425 51.1337L153.576 51.2296L154.055 50.3665Z" fill="#BC2800"/>
<path d="M153.288 131.495C153.288 131.495 153.576 128.139 152.713 126.412C152.234 125.454 149.74 124.686 149.261 122.864C148.877 121.426 148.973 111.932 148.973 111.932C148.973 111.932 146.384 136.673 145.617 140.989C144.754 145.304 144.658 150.291 144.658 150.291C144.658 150.291 138.233 152.305 139.288 152.784C140.438 153.263 145.041 151.921 144.754 152.784C144.466 153.647 139.096 156.62 140.246 156.62C141.397 156.62 145.041 155.086 144.945 155.565C144.754 156.044 142.26 159.593 142.26 159.593L145.617 158.25L139.767 182.224L139.288 202.458L151.37 202.171C151.37 202.171 151.083 155.949 151.37 153.168C151.562 150.387 153.288 131.495 153.288 131.495Z" fill="#004345"/>
<path d="M162.686 159.976C162.59 159.976 162.494 159.976 162.494 159.88C162.398 159.785 162.398 159.593 162.59 159.593L166.426 156.908C167.385 156.332 168.056 155.182 168.152 153.935C168.248 152.976 168.344 152.209 168.344 151.633C168.44 150.003 170.262 119.125 170.262 118.837C170.262 118.741 170.358 118.645 170.55 118.645C170.646 118.645 170.741 118.741 170.741 118.933C170.741 119.22 168.919 150.195 168.824 151.729C168.824 152.305 168.728 153.072 168.632 154.031C168.44 155.373 167.769 156.62 166.714 157.291L162.878 159.976C162.782 159.976 162.686 159.976 162.686 159.976Z" fill="#020023"/>
<path d="M140.821 156.812C140.726 156.812 140.63 156.716 140.63 156.62C140.63 156.524 140.63 156.332 140.821 156.332C144.561 155.181 150.219 153.359 151.082 152.976L152.904 132.07L152.521 126.316C152.041 126.029 150.123 124.878 149.26 123.344C148.301 121.522 148.685 112.316 148.685 111.932C148.685 111.836 148.781 111.644 148.973 111.74C149.069 111.74 149.164 111.836 149.164 112.028C148.973 115.288 148.877 121.905 149.644 123.248C150.603 124.878 152.808 126.029 152.808 126.125C152.904 126.125 152.904 126.221 152.904 126.316L153.288 132.262L151.466 153.359C151.466 153.455 151.37 153.551 151.37 153.551C150.795 153.743 141.876 156.524 140.821 156.812Z" fill="#020023"/>
<path d="M140.534 152.592C140.343 152.592 140.247 152.401 140.343 152.305C140.343 152.209 140.534 152.113 140.63 152.113C140.918 152.113 143.699 151.537 145.905 151.058L143.124 150.387C143.028 150.387 142.932 150.195 142.932 150.099C142.932 150.003 143.124 149.907 143.219 149.907L147.055 150.866C147.151 150.866 147.247 150.962 147.247 151.058C147.247 151.154 147.151 151.25 147.055 151.25C141.685 152.401 140.726 152.592 140.534 152.592Z" fill="#020023"/>
<path d="M169.879 95.2463C169.783 95.2463 169.687 95.1504 169.687 95.0545L164.7 77.985C164.7 77.8891 164.7 77.6973 164.892 77.6973C164.988 77.6973 165.18 77.6973 165.18 77.8891L170.166 94.9586C170.166 95.0545 170.07 95.1504 169.879 95.2463Z" fill="#020023"/>
<path d="M169.207 83.8343C169.111 83.8343 169.015 83.7384 169.015 83.6425L166.618 75.1078C166.618 75.0119 166.618 74.8201 166.81 74.8201C166.906 74.8201 167.097 74.8201 167.097 75.0119L169.495 83.5466C169.495 83.6425 169.399 83.8343 169.207 83.8343Z" fill="#020023"/>
<path d="M170.549 62.929C170.549 62.929 159.329 82.4918 150.315 84.6974C138.232 87.7661 121.834 86.7113 121.834 86.7113L121.546 82.4918C121.546 82.4918 137.753 78.7519 147.822 73.7653C151.754 71.8473 161.439 52.668 162.974 51.3255C164.22 50.1747 167.672 50.2706 169.686 52.7639C171.317 54.6819 171.988 58.5177 170.549 62.929Z" fill="url(#paint0_linear_1924_2135)"/>
<g opacity="0.58">
<path d="M160.385 55.1614L165.084 56.2162L163.454 63.2167L156.549 61.7782L160.385 55.1614Z" fill="#003030"/>
<path d="M163.549 63.4084L168.728 64.1756L163.933 70.7925L162.686 70.8884L163.549 63.4084Z" fill="#003030"/>
<path d="M156.548 61.7781L157.028 61.874L155.494 69.258L152.041 68.9703L156.548 61.7781Z" fill="#003030"/>
<path d="M155.686 69.2581L162.974 70.217L160.193 77.0257L154.727 76.738L155.686 69.2581Z" fill="#003030"/>
<path d="M165.755 50.75C169.591 50.9418 171.413 54.49 170.934 57.0792V57.1751L165.18 56.312L165.755 50.75Z" fill="#003030"/>
<path d="M147.151 75.4912L154.439 76.4502L152.904 83.9301L146.288 82.8752L147.151 75.4912Z" fill="#003030"/>
<path d="M146.768 74.2448L147.823 73.6694L147.535 75.5874L144.466 75.2038L146.768 74.2448Z" fill="#003030"/>
<path d="M137.753 77.793L142.836 78.656L141.301 86.0401L134.684 85.0811L135.26 78.656L137.753 77.793Z" fill="#003030"/>
<path d="M123.081 82.1081L130.656 80.0942L129.314 86.6152L122.601 86.0398L123.081 82.1081Z" fill="#003030"/>
</g>
<path d="M121.547 82.4917C121.547 82.4917 114.642 80.8615 113.875 81.8205C113.108 82.8753 115.409 82.7794 115.122 83.5466C114.834 84.3138 106.587 84.8891 107.642 85.8481C108.697 86.8071 111.19 86.7112 111.19 86.7112C111.19 86.7112 107.738 87.1907 108.601 87.8619C109.464 88.4373 112.628 88.0537 112.628 88.0537C112.628 88.0537 110.615 88.9168 111.573 89.4922C112.532 89.9717 114.738 89.4922 114.738 89.4922C114.738 89.4922 113.204 91.6019 114.546 91.1224C115.889 90.6429 121.834 86.7112 121.834 86.7112L121.547 82.4917Z" fill="#FFB68E"/>
<path d="M167.673 68.0115C171.796 62.0659 171.796 58.9973 170.933 55.3532C170.837 54.9696 169.782 57.7506 169.782 57.8465C168.919 63.2167 154.918 76.3545 153.864 77.3135C152.905 78.2724 151.466 81.6288 151.37 80.574C151.274 79.5191 151.274 74.6284 150.603 75.012C149.452 75.6832 150.699 82.0124 150.699 82.0124C150.699 82.0124 148.11 77.8889 147.822 78.656C147.534 79.3273 148.781 83.4508 148.493 83.5467C148.302 83.6426 146.48 80.1904 146 81.437C145.521 82.6837 145.808 84.1221 144.082 84.3139C142.356 84.5057 121.738 85.3688 121.738 85.3688L122.218 86.9031C122.218 86.9031 138.904 87.0949 148.493 85.4647C155.206 84.3139 163.453 74.1489 167.673 68.0115Z" fill="#003030"/>
<path d="M120.971 82.1082L121.163 87.3825L122.601 86.903L122.313 82.3L120.971 82.1082Z" fill="white"/>
<path d="M150.987 33.489C150.987 33.489 150.987 33.5849 150.987 33.7767C151.083 34.9274 151.275 38.5715 150.987 39.6264C150.699 40.873 150.22 41.5443 147.822 42.3115C145.521 42.9827 142.069 42.7909 142.452 41.2566C142.74 39.8181 143.987 36.7495 143.987 36.7495C143.987 36.7495 146.864 37.5166 148.11 36.5577C149.357 35.5987 149.74 31.9546 150.508 32.3382L150.987 33.489Z" fill="#172755"/>
<path d="M126.341 86.999C124.231 86.999 122.889 86.999 122.793 86.999C122.697 86.999 122.601 86.9031 122.601 86.7113C122.601 86.6154 122.697 86.5195 122.793 86.5195C122.985 86.5195 143.698 86.9031 150.986 84.5057C158.275 82.0124 169.782 64.1757 169.878 64.0798C169.974 63.9839 170.07 63.9839 170.166 63.9839C170.262 64.0798 170.262 64.1757 170.262 64.2716C169.782 65.0387 158.562 82.396 151.082 84.8893C145.616 86.7113 132.67 86.999 126.341 86.999Z" fill="#020023"/>
<path d="M151.658 84.5059L147.726 78.848C147.63 78.7521 147.63 78.5603 147.822 78.5603C147.918 78.4644 148.109 78.4644 148.109 78.6562L151.082 82.8757L150.603 75.204C150.603 75.1081 150.699 74.9163 150.795 74.9163C150.89 74.9163 151.082 75.0122 151.082 75.1081L151.658 84.5059Z" fill="#020023"/>
<path d="M148.589 84.6016C148.493 84.6016 148.493 84.6016 148.397 84.5057L145.329 81.0534C145.233 80.9575 145.233 80.7657 145.329 80.6698C145.424 80.5739 145.616 80.5739 145.712 80.6698L148.781 84.1221C148.877 84.218 148.877 84.4098 148.781 84.5057C148.685 84.6016 148.685 84.6016 148.589 84.6016Z" fill="#020023"/>
<path d="M40.3223 49.0241C40.3223 49.0241 43.7745 39.1468 43.5827 36.3658C43.391 33.5848 42.8156 27.831 47.1309 26.6802C51.5421 25.4336 53.1724 29.5571 53.556 31.1874C53.9396 32.8176 54.7067 37.4206 54.419 37.5165C54.1314 37.6124 53.1724 36.9411 53.1724 36.9411C53.1724 36.9411 53.556 39.818 52.4052 40.777C51.2545 41.736 49.6242 41.5442 49.6242 41.5442C49.6242 41.5442 48.3776 45.5718 48.6653 46.8185C48.9529 48.0651 50.4873 50.6543 50.4873 50.6543C50.4873 50.6543 41.6648 53.3394 40.3223 49.0241Z" fill="#FFB68E"/>
<path d="M43.8702 48.8326C43.8702 48.8326 43.8702 48.7367 43.9661 48.5449C44.2538 47.5859 45.4046 44.2295 46.0758 40.9691C46.9389 37.1332 47.802 33.585 47.0348 33.2974C45.6922 32.9138 45.2128 30.7081 45.2128 30.7081C45.2128 30.7081 46.6512 29.4615 46.9389 30.1328C47.2266 30.804 47.2266 32.4343 47.6102 32.4343C47.9938 32.4343 48.1855 31.6671 48.9527 30.1328C49.8158 28.5984 50.7748 28.023 50.7748 28.023C50.7748 28.023 48.665 27.8313 47.3225 28.2148C45.9799 28.5984 43.2948 37.2291 42.9112 39.7224C42.6236 42.2157 40.1302 49.8874 40.1302 49.8874C40.1302 49.8874 42.6236 51.0382 43.8702 48.8326Z" fill="#EF8B59"/>
<path d="M42.8153 39.8181C42.8153 39.8181 44.8292 38.3796 45.5963 36.7494C46.3635 35.1192 46.4594 34.2561 46.0758 33.5848C45.3086 32.2423 45.884 29.4613 46.5553 30.1325C47.2266 30.8038 47.0348 32.9135 47.5143 32.3382C47.9937 31.7628 47.6101 29.1736 49.0486 28.4064C50.487 27.5433 52.1173 28.6941 53.1721 28.0228C53.9393 27.4474 55.0901 26.2008 55.7613 25.6254C57.1998 24.3787 59.2136 20.6388 57.967 17.8578C56.6244 14.7891 54.4188 19.1044 50.487 20.7347C45.7881 22.7485 40.8015 25.1459 41.1851 26.4885C41.5687 27.9269 44.1579 28.9818 42.8153 29.0777C41.4728 29.1736 40.8015 30.0366 40.9933 31.1874C41.3769 33.6807 43.5825 36.9412 42.8153 39.8181Z" fill="#172755"/>
<path d="M45.7889 32.2424C45.7889 32.2424 44.4463 33.2013 43.2956 31.8588C42.1448 30.5162 42.0489 29.3655 42.0489 29.3655C42.0489 29.3655 40.6105 29.7491 40.8981 31.4752C41.2817 33.2972 42.5284 35.8864 42.7202 37.3249C42.912 38.7633 42.8161 39.8182 42.8161 39.8182C42.8161 39.8182 45.4053 38.5715 46.3642 35.1193C46.6519 34.1603 45.8848 33.0095 45.7889 32.2424Z" fill="#020023"/>
<path d="M30.9239 197.376C30.9239 197.376 37.7325 175.224 40.8971 162.661C43.774 151.537 50.1032 106.754 46.9386 102.439C44.9248 99.7534 37.349 103.493 34.9515 104.165C31.8829 105.124 35.0474 101.096 33.4172 102.439C29.6772 105.603 29.006 110.494 29.1978 115.96C29.6772 132.55 31.2116 158.346 31.2116 158.346L23.444 197.568L30.9239 197.376Z" fill="#132B56"/>
<path d="M53.2683 153.072C53.2683 153.072 42.1443 117.398 42.432 115.96C42.7197 114.617 42.5279 110.302 36.5824 110.59C30.6368 110.877 31.2122 108.48 31.2122 108.48C31.2122 108.48 49.3366 96.1093 52.0217 96.5888C54.6109 97.0683 58.9262 101.767 58.9262 101.767C58.9262 101.767 62.9539 136.098 62.3785 152.688C61.8031 169.278 59.118 196.705 59.118 196.705L52.2135 197.184L53.2683 153.072Z" fill="#132B56"/>
<path d="M59.1176 104.165C59.1176 104.165 56.5284 106.85 50.8705 108.576C44.9249 110.398 36.6778 111.069 36.2943 111.837C35.9107 112.7 33.9927 151.154 34.664 152.017C35.3353 152.88 39.7465 156.812 39.0753 156.812C38.4999 156.812 33.8968 154.223 33.9927 154.798C34.0886 155.374 38.7876 161.031 37.445 160.552C36.1025 160.072 33.9927 158.634 33.9927 158.634C33.9927 158.634 35.623 162.278 35.4312 162.949C35.2394 163.525 33.0338 177.238 33.5133 181.074C33.8968 184.91 34.2804 186.348 34.2804 186.348L30.2528 199.678L23.0605 199.486C23.0605 199.486 28.9102 167.361 29.6774 164.292C30.4446 161.223 31.2117 158.538 31.2117 158.538C31.2117 158.538 28.6225 116.823 28.5266 114.234C28.4307 111.165 28.5266 106.275 28.5266 106.275C28.5266 106.275 31.6912 109.535 35.2394 108.288C38.7876 107.042 44.4454 102.918 44.4454 102.918L56.2407 102.822L59.1176 104.165Z" fill="#132B56"/>
<path d="M43.7746 102.151C43.7746 102.151 46.4597 102.726 49.912 102.534C53.3643 102.342 56.5288 101.671 56.5288 101.671C56.5288 101.671 53.9396 103.781 47.3228 104.644C44.35 105.028 42.2403 105.795 40.9936 106.658C39.6511 107.521 35.1439 109.343 33.226 109.439C31.3081 109.631 30.3491 108.192 30.3491 108.192L43.7746 102.151Z" fill="#0D1E43"/>
<path d="M43.4866 102.535C43.4866 102.535 47.5142 102.918 51.3501 102.535C53.9393 102.247 56.1449 101.671 56.1449 101.671C56.1449 101.671 53.4598 97.6438 50.2952 97.6438C47.8978 97.6438 43.4866 102.535 43.4866 102.535Z" fill="#CFE5E1"/>
<path d="M29.3902 107.137C28.3354 105.891 27.9518 105.315 28.1436 102.63C28.719 96.7807 31.6917 77.026 29.582 70.3133C27.0887 62.4498 27.9518 53.6273 30.0615 52.2847C32.6507 50.6545 44.1583 48.353 51.3505 48.353C51.6382 48.353 51.83 48.2571 52.1177 48.2571C54.5151 48.2571 56.433 48.7366 57.0084 49.5037C59.5976 52.3806 63.7211 66.6692 61.5155 73.4778C59.3099 80.2865 60.6525 99.9453 60.6525 99.9453C60.6525 99.9453 49.8162 93.2325 43.487 101.192C38.3086 107.809 32.4589 110.686 29.3902 107.137Z" fill="#132B56"/>
<path d="M39.2677 49.9831L49.3368 71.4639L51.4465 48.5447C51.3506 48.5447 41.9528 49.216 39.2677 49.9831Z" fill="white"/>
<path d="M45.6925 63.6006C45.6925 63.6006 43.2951 56.3125 44.5418 52.7643C45.0213 51.5177 46.0761 50.9423 46.0761 50.9423L48.0899 51.23L51.1586 51.5177L51.5422 48.2572L49.4325 47.9695L47.4187 48.8326L40.4182 49.4079L39.0757 49.5997L45.6925 63.6006Z" fill="#CFE5E1"/>
<path d="M52.9806 59.9565C52.9806 59.9565 57.0082 66.4775 67.0774 73.7656C77.2424 81.0537 92.9694 83.1634 92.9694 83.1634L94.2161 79.0399C94.2161 79.0399 77.5301 71.2723 69.5707 63.4088C62.1866 56.0248 59.0221 51.5176 57.8713 49.8874C56.337 47.3941 53.1724 56.696 52.9806 59.9565Z" fill="#132B56"/>
<path d="M48.2815 48.3528L46.5554 51.7092C46.5554 51.7092 43.8703 49.12 43.8703 48.8323C43.7744 48.5446 48.2815 48.3528 48.2815 48.3528Z" fill="#FF3C00"/>
<path d="M46.651 50.1749L49.9115 64.943L49.3361 71.8475L46.5551 65.6143L45.692 49.9832L46.651 50.1749Z" fill="#FF3C00"/>
<path d="M94.3112 79.0398C94.3112 79.0398 102.846 79.0398 103.421 80.1905C103.997 81.3413 100.257 80.7659 100.353 81.5331C100.449 82.3003 108.408 84.6977 107.161 85.4649C105.915 86.1361 102.175 84.2182 102.175 84.2182C102.175 84.2182 106.778 86.8074 105.723 87.191C104.764 87.5746 100.544 85.7525 100.544 85.7525C100.544 85.7525 103.517 87.7664 102.462 88.0541C101.408 88.3418 98.5307 86.3279 98.5307 86.3279C98.5307 86.3279 100.449 89.7802 99.2019 89.013C98.0512 88.2459 93.0646 83.1633 93.0646 83.1633L94.3112 79.0398Z" fill="#FFB68E"/>
<path d="M46.7476 67.7238C46.7476 67.7238 48.6655 82.8754 44.3501 90.0676C38.7881 99.2737 34.5687 107.617 34.5687 107.617L33.6097 108.576C37.7333 108.384 44.8296 101.671 47.8983 98.6983C48.7614 97.9311 50.3916 97.3557 51.3506 98.027C54.4193 99.945 60.4607 104.356 61.2279 103.877C62.1869 103.301 60.0772 80.8616 61.132 77.2175C62.091 73.5734 63.5294 68.6827 63.3376 67.0525C63.1458 65.4222 57.3921 49.5034 57.3921 49.5034C57.3921 49.5034 56.2413 48.1609 53.1726 48.1609C52.0219 48.1609 52.0219 48.1609 52.0219 48.1609L49.7203 74.4365L46.7476 67.7238Z" fill="#132B56"/>
<path d="M50.2952 79.4235L49.9116 90.8351L48.1855 76.7384L39.9384 66.2857V65.3267L33.6092 60.8196C33.6092 60.8196 28.239 56.1206 29.8693 52.5725C30.2528 51.6135 34.3764 50.6545 34.3764 50.6545L39.7466 63.7924L42.7194 63.217L41.2809 66.5733L50.3911 77.2179L50.2952 79.4235Z" fill="#0D1E43"/>
<path d="M49.7198 97.9312C49.6239 97.9312 49.4321 97.8353 49.528 97.6435L50.1993 77.3135L41.0891 66.5731L42.4317 63.5044L39.6507 64.0798L34.3764 51.9968C34.2805 51.9009 34.3764 51.7092 34.4723 51.7092C34.5682 51.6133 34.76 51.7092 34.76 51.8051L39.7466 63.5044L43.0071 62.8331L41.4727 66.4772L50.487 77.1217V77.2176L49.8157 97.6435C49.9116 97.8353 49.8157 97.9312 49.7198 97.9312Z" fill="#020023"/>
<path d="M57.1045 49.7914V60.9154H54.4194L56.1455 63.3128L50.3917 77.2178L54.5153 63.5046L52.9809 59.9565L55.666 58.9975V49.2161L57.1045 49.7914Z" fill="#132B56"/>
<path d="M32.5547 108.864C31.404 108.864 30.445 108.576 29.7737 108C28.4312 107.041 28.2394 105.507 28.2394 105.507C28.2394 105.411 28.3353 105.219 28.4312 105.219C28.5271 105.219 28.7189 105.315 28.7189 105.411C28.7189 105.411 28.9107 106.754 30.0614 107.617C30.9245 108.288 32.0752 108.48 33.6096 108.288C37.2536 107.809 43.0074 102.726 46.4597 99.6575C47.3228 98.8903 48.0899 98.219 48.5694 97.8354C50.5832 96.3011 52.8848 98.219 54.9945 99.9452C55.474 100.329 56.0493 100.808 56.4329 101.096C58.6385 102.726 61.3236 103.302 61.3236 103.302C61.4195 103.302 61.5154 103.493 61.5154 103.589C61.5154 103.685 61.3237 103.781 61.2278 103.781C61.1319 103.781 58.4468 103.11 56.1452 101.48C55.6658 101.096 55.1863 100.712 54.6109 100.233C52.5971 98.5067 50.4874 96.7806 48.8571 98.1231C48.3776 98.5067 47.7064 99.0821 46.8433 99.8493C43.391 102.918 37.5413 108 33.8014 108.576C33.226 108.864 32.9383 108.864 32.5547 108.864Z" fill="#020023"/>
<path d="M60.5565 72.5188H53.7478C53.6519 72.5188 53.556 72.4229 53.556 72.327C53.556 72.2312 53.6519 72.1353 53.7478 72.1353H60.5565C60.6524 72.1353 60.7483 72.2312 60.7483 72.327C60.7483 72.4229 60.6524 72.5188 60.5565 72.5188Z" fill="#020023"/>
<path d="M31.8832 93.6158C31.7873 93.6158 31.6914 93.5199 31.6914 93.4241C31.6914 93.3282 31.7873 93.1364 31.8832 93.1364L39.7467 92.4651C39.8426 92.4651 40.0344 92.561 40.0344 92.6569C40.0344 92.7528 39.9385 92.9446 39.8426 92.9446L31.8832 93.6158Z" fill="#020023"/>
<path d="M60.1728 91.1228L55.5697 90.2598C55.4738 90.2598 55.3779 90.068 55.3779 89.9721C55.3779 89.8762 55.5697 89.7803 55.6656 89.7803L60.2686 90.6433C60.3645 90.6433 60.4604 90.8351 60.4604 90.931C60.4604 91.0269 60.2686 91.1228 60.1728 91.1228Z" fill="#020023"/>
<path d="M56.9123 68.3953L59.5015 72.1352H54.8026L56.9123 68.3953Z" fill="#FF3C00"/>
<path d="M57.9672 72.1352L56.4329 69.9296L57.1041 68.683L56.9123 68.3953L54.8026 72.1352H57.9672Z" fill="#BC2800"/>
<path d="M40.8976 50.6544L39.7468 48.9282L42.9114 47.5857L44.5416 49.5036L43.5827 49.9831L43.4868 50.8462L40.8976 50.6544Z" fill="white"/>
<path d="M47.6102 49.4079L48.8569 47.0105H51.8297L50.6789 49.4079L49.0487 49.9833L48.8569 49.0243L47.6102 49.4079Z" fill="white"/>
<path d="M43.4866 50.3668L45.2127 50.2709L44.3496 49.2161H43.4866V50.3668Z" fill="#BC2800"/>
<path d="M47.8981 49.0242L48.7611 48.5447L48.9529 49.6954L47.2268 50.2708L47.8981 49.0242Z" fill="#BC2800"/>
<path d="M45.3091 50.3667L46.3639 51.038L47.3229 49.9832L46.8434 51.1339L45.7886 51.2298L45.3091 50.3667Z" fill="#BC2800"/>
<path d="M62.57 70.7926C62.57 70.7926 58.83 55.4492 59.5013 55.7369C60.1726 56.0246 63.1454 65.6142 63.8166 66.765C64.5838 67.9158 71.3925 75.5875 71.6801 74.6285C71.9678 73.6695 73.7899 69.8337 73.8858 70.6009C73.9817 71.368 73.2145 75.0121 73.2145 75.0121C73.2145 75.0121 76.2832 70.0255 76.3791 70.7926C76.5709 71.5598 75.2283 76.3546 75.4201 76.5464C75.6119 76.7382 77.338 73.8613 77.5298 75.108C77.7216 76.3546 77.6257 77.7931 79.256 78.3685C80.8862 78.9438 93.2568 81.8207 93.2568 81.8207L92.9691 83.0674C92.9691 83.0674 83.7631 82.3002 74.8447 78.4644C65.9264 74.8203 62.57 70.7926 62.57 70.7926Z" fill="#132B56"/>
<path d="M45.9797 131.495C45.9797 131.495 46.4592 127.468 46.5551 126.221C46.5551 125.933 49.5279 124.782 50.0074 122.96C50.391 121.522 50.7746 113.658 50.7746 113.658C50.7746 113.658 52.8843 136.769 53.6514 141.085C54.5145 145.4 54.6104 150.387 54.6104 150.387C54.6104 150.387 61.0355 152.401 59.9806 152.88C58.8299 153.36 54.2268 152.017 54.5145 152.88C54.8022 153.743 60.1724 156.716 59.0217 156.716C57.8709 156.716 54.2268 155.182 54.3227 155.661C54.5145 156.141 57.0078 159.689 57.0078 159.689L53.6514 158.346L59.9806 187.499L58.8299 199.773L51.3499 199.582C51.3499 199.582 51.5417 155.565 51.3499 152.784C51.254 149.907 45.9797 131.495 45.9797 131.495Z" fill="#132B56"/>
<path d="M46.5556 105.124C43.8705 105.124 41.4731 104.74 41.3772 104.74C41.2813 104.74 41.1854 104.548 41.1854 104.452C41.1854 104.356 41.3772 104.26 41.4731 104.26C41.4731 104.26 44.7336 104.836 47.9941 104.644C48.09 104.644 48.2818 104.74 48.2818 104.836C48.2818 104.932 48.1859 105.124 48.09 105.124C47.5146 105.124 47.0351 105.124 46.5556 105.124Z" fill="#020023"/>
<path d="M47.8024 106.083L47.7065 101.863L53.5562 101.384L53.6521 105.411L47.8024 106.083ZM48.186 102.343L48.2819 105.603L53.1726 105.124L53.0767 102.055L48.186 102.343Z" fill="#020023"/>
<path d="M53.6521 104.74C53.5562 104.74 53.4603 104.644 53.4603 104.548C53.4603 104.452 53.5562 104.26 53.6521 104.26C53.6521 104.26 55.1865 103.973 56.1454 103.589C57.0085 103.206 57.7757 102.438 57.7757 102.438C57.8716 102.342 58.0634 102.342 58.1592 102.438C58.2551 102.534 58.2551 102.726 58.1592 102.822C58.1592 102.822 57.2962 103.685 56.3372 104.069C55.3783 104.356 53.748 104.644 53.6521 104.74Z" fill="#020023"/>
<path d="M47.994 103.973C47.8981 103.973 47.8022 103.877 47.8022 103.781C47.8022 103.685 47.8981 103.493 47.994 103.493L51.8299 103.206C51.9258 103.206 52.1176 103.301 52.1176 103.397C52.1176 103.493 52.0217 103.685 51.9258 103.685L47.994 103.973Z" fill="#020023"/>
<path d="M36.7744 159.976C36.6785 159.976 36.6785 159.976 36.6785 159.976L32.8426 157.291C31.7878 156.62 31.1165 155.373 30.9247 154.031C30.8288 153.072 30.7329 152.305 30.7329 151.729C30.637 150.099 28.5273 113.275 28.4314 112.891C28.4314 112.795 28.5273 112.604 28.6232 112.604C28.7191 112.604 28.9109 112.699 28.9109 112.795C28.9109 113.179 31.1165 150.003 31.2124 151.633C31.2124 152.209 31.3083 152.976 31.4042 153.935C31.596 155.182 32.1714 156.236 33.1303 156.812L36.9662 159.497C37.0621 159.593 37.0621 159.689 37.0621 159.785C36.9662 159.976 36.8703 159.976 36.7744 159.976Z" fill="#020023"/>
<path d="M58.4465 156.812H58.3506C58.2547 156.812 52.0215 153.264 51.3502 152.88C51.2543 152.88 51.2543 152.784 51.2543 152.688L45.98 132.167C45.98 132.167 45.8841 132.071 45.98 132.071L46.4595 126.125C46.4595 126.029 46.5554 125.933 46.5554 125.933C46.5554 125.933 48.761 124.783 49.72 123.056C50.4871 121.714 50.3912 115.193 50.1994 111.837C50.1994 111.741 50.2953 111.549 50.3912 111.549C50.4871 111.549 50.6789 111.645 50.6789 111.741C50.6789 112.124 51.1584 121.426 50.1035 123.152C49.2405 124.687 47.4184 125.837 46.8431 126.125L46.4595 131.879L51.7338 152.305C52.6927 152.88 58.5424 156.141 58.6383 156.141C58.7342 156.237 58.8301 156.332 58.7342 156.428C58.6383 156.812 58.5424 156.812 58.4465 156.812Z" fill="#020023"/>
<path d="M31.7869 112.796C31.691 112.796 31.691 112.796 31.691 112.796C31.5951 112.796 31.5951 112.7 31.5951 112.604V111.069C31.5951 110.973 31.691 110.878 31.7869 110.878L40.9929 107.905C41.0888 107.905 41.1847 107.905 41.1847 107.905C41.2806 107.905 41.2806 108.001 41.2806 108.097V109.343C41.2806 109.439 41.1847 109.535 41.0888 109.535L31.7869 112.796ZM31.9787 111.165V112.22L40.7053 109.056V108.288L31.9787 111.165Z" fill="#020023"/>
<path d="M29.4858 95.2463C29.3899 95.1504 29.3899 95.2463 29.4858 95.2463C29.294 95.2463 29.1981 95.0545 29.294 94.9586L34.2806 77.8891C34.2806 77.7932 34.4724 77.6973 34.5683 77.6973C34.6642 77.6973 34.7601 77.8891 34.7601 77.985L29.7735 95.0545C29.6776 95.1504 29.5817 95.2463 29.4858 95.2463Z" fill="#020023"/>
<path d="M46.9386 30.7079C46.9386 30.7079 47.1304 27.4475 48.7606 26.8721C50.3909 26.2967 52.117 27.1598 54.5144 25.8172C57.0077 24.3788 57.7749 22.7485 57.7749 22.7485C57.7749 22.7485 57.2954 24.5706 55.4734 26.5844C53.5555 28.5982 52.6924 28.5023 52.117 28.5023C51.5416 28.5023 50.5827 27.831 49.8155 28.2146C48.7606 28.6941 48.2811 29.5572 48.0894 30.612C47.8976 31.6669 47.9935 32.4341 47.6099 32.53C47.1304 32.7218 47.1304 31.0915 46.9386 30.7079Z" fill="#020023"/>
<path d="M94.9834 78.8478L93.6409 83.8345L92.2983 83.0673L93.6409 78.752L94.9834 78.8478Z" fill="white"/>
<path d="M57.1551 77.3639L36.4253 71.042L27.9215 98.9264L48.6513 105.248L57.1551 77.3639Z" fill="#FF3C00"/>
<path d="M33.8019 72.2311L36.3911 71.0803L35.9116 72.9024L33.8019 72.2311Z" fill="#AA2400"/>
<path d="M48.3773 103.302L47.1306 103.589L29.6775 97.5479L36.2943 72.3271L37.541 71.8477L56.2408 77.6014L48.3773 103.302Z" fill="#6ACCBA"/>
<path d="M55.0268 77.9716L36.3149 72.2651L28.4825 97.9481L47.1944 103.655L55.0268 77.9716Z" fill="white"/>
<path d="M53.2688 79.3274L36.9665 74.3408C36.8706 74.3408 36.7747 74.149 36.7747 74.0531C36.7747 73.9572 36.9665 73.8613 37.0623 73.8613L53.3647 78.8479C53.4606 78.8479 53.5565 79.0397 53.5565 79.1356C53.4606 79.3274 53.3647 79.3274 53.2688 79.3274Z" fill="#020023"/>
<path d="M52.8848 80.574L36.5824 75.5874C36.4865 75.5874 36.3906 75.3956 36.3906 75.2997C36.3906 75.2038 36.5824 75.1079 36.6783 75.1079L52.9807 80.0945C53.0766 80.0945 53.1725 80.2863 53.1725 80.3822C53.1725 80.4781 53.0766 80.574 52.8848 80.574Z" fill="#020023"/>
<path d="M52.5971 81.7249C52.5012 81.7249 52.5012 81.7249 52.5971 81.7249L36.2947 76.7383C36.1988 76.7383 36.1029 76.5465 36.1029 76.4506C36.1029 76.3547 36.2947 76.2588 36.3906 76.2588L52.693 81.2454C52.7889 81.2454 52.8848 81.4372 52.8848 81.5331C52.7889 81.629 52.693 81.7249 52.5971 81.7249Z" fill="#020023"/>
<path d="M52.2137 82.8755L35.9113 77.8889C35.8154 77.8889 35.7195 77.6971 35.7195 77.6012C35.7195 77.5053 35.9113 77.4094 36.0072 77.4094L52.3096 82.396C52.4055 82.396 52.5014 82.5878 52.5014 82.6837C52.4055 82.8755 52.3096 82.8755 52.2137 82.8755Z" fill="#020023"/>
<path d="M51.8298 84.1223L35.5274 79.1357C35.4315 79.1357 35.3356 78.9439 35.3356 78.848C35.3356 78.7521 35.5274 78.6562 35.6233 78.6562L51.9257 83.6429C52.0216 83.6429 52.1174 83.8347 52.1174 83.9306C52.0216 84.0264 51.9257 84.1223 51.8298 84.1223Z" fill="#020023"/>
<path d="M51.542 85.273C51.4461 85.273 51.4461 85.273 51.542 85.273L35.2396 80.2864C35.1437 80.2864 35.0479 80.0946 35.0479 79.9987C35.0479 79.9028 35.2396 79.8069 35.3355 79.8069L51.6379 84.7935C51.7338 84.7935 51.8297 84.9853 51.8297 85.0812C51.7338 85.1771 51.6379 85.273 51.542 85.273Z" fill="#020023"/>
<path d="M51.1586 86.4236L34.8562 81.437C34.7603 81.437 34.6644 81.2452 34.6644 81.1493C34.6644 81.0534 34.8562 80.9575 34.9521 80.9575L51.2545 85.9441C51.3504 85.9441 51.4463 86.1359 51.4463 86.2318C51.3504 86.3277 51.2545 86.4236 51.1586 86.4236Z" fill="#020023"/>
<path d="M45.9803 106.466L25.2667 100.137L33.8015 72.2312L43.2952 75.204L45.7886 84.2183L52.2136 86.2321L45.9803 106.466Z" fill="#FF3C00"/>
<path d="M49.912 93.8079C49.912 93.8079 45.309 91.9858 42.528 92.0817C40.2265 92.1776 27.6641 92.6571 27.6641 92.6571L30.2533 84.1223L51.0628 89.8761L50.2956 92.6571L49.912 93.8079Z" fill="#E63600"/>
<path d="M30.0611 52.2849C30.0611 52.2849 27.8554 53.8193 24.1155 63.6007C20.2796 73.478 14.2381 85.9446 16.8273 88.2461C21.0468 91.986 45.0209 90.4517 45.0209 90.4517L45.7881 85.2733C45.7881 85.2733 30.3487 83.7389 27.4719 80.9579C26.6088 80.1908 34.3764 70.1216 35.1436 64.5597C35.9107 59.0936 31.4036 53.0521 30.0611 52.2849Z" fill="#132B56"/>
<path d="M45.6923 86.2323C45.6923 86.2323 28.431 83.6431 27.0884 83.3554C25.7459 83.0677 26.4171 81.8211 26.4171 81.8211C26.4171 81.8211 20.6634 84.6979 21.4305 83.6431C22.1977 82.5882 26.1295 81.0539 26.1295 81.0539C26.1295 81.0539 21.2387 81.1498 21.7182 80.4785C22.1977 79.8072 26.8966 79.9031 26.8966 79.9031L23.0608 77.8893L26.4171 76.8344C26.4171 76.8344 32.1709 68.9709 33.6094 66.8612C35.5273 64.1761 35.1437 61.5869 35.1437 61.5869C35.1437 61.5869 35.815 62.8336 35.5273 65.7105C35.2396 68.012 30.0612 76.4509 27.8556 79.7113C27.472 80.2867 27.3761 81.2457 28.1433 81.3416L46.0759 85.0815L45.6923 86.2323Z" fill="#132B56"/>
<path d="M16.3477 87.191C16.4436 87.3828 22.0056 69.4502 27.184 63.5046C32.2665 57.559 34.4722 57.3672 34.4722 57.3672C34.4722 57.3672 31.6912 51.7094 30.0609 52.2847C27.4717 53.1478 14.6216 83.3552 16.3477 87.191Z" fill="#0D1E43"/>
<path d="M35.5271 63.0253C35.4312 63.0253 35.3353 62.9294 35.3353 62.8335C35.3353 62.8335 34.9517 59.6689 33.3215 56.4085C31.6912 53.148 30.1569 52.7644 30.1569 52.7644C30.061 52.7644 29.9651 52.5726 29.9651 52.4767C29.9651 52.3808 30.1569 52.2849 30.2528 52.2849C30.3487 52.2849 31.9789 52.7644 33.705 56.2167C35.4312 59.573 35.7189 62.7376 35.7189 62.8335C35.8148 62.9294 35.7189 63.0253 35.5271 63.0253Z" fill="#020023"/>
<path d="M17.4988 88.7254C17.4029 88.7254 17.4029 88.6295 17.307 88.6295C17.1152 88.5336 16.5399 88.246 17.307 84.8896C17.9783 81.725 29.39 53.5315 30.7325 52.7643C31.9792 51.9971 34.4725 51.6135 34.5684 51.6135C34.6643 51.6135 34.8561 51.7094 34.8561 51.8053C34.8561 51.9012 34.7602 52.093 34.6643 52.093C34.6643 52.093 32.171 52.4766 31.0202 53.1479C29.9654 54.0109 18.7455 81.0537 17.7865 84.9855C17.1152 87.9583 17.6906 88.5337 17.6906 88.5337C17.7865 88.7254 17.8824 88.7254 17.7865 88.9172C17.7865 88.9172 17.5947 88.8213 17.4988 88.7254Z" fill="#020023"/>
<path d="M45.7882 85.2732L46.8431 85.5609L46.2677 90.4516H44.9252C45.0211 90.5475 45.5005 86.424 45.7882 85.2732Z" fill="white"/>
<path d="M46.8431 86.7115C46.8431 86.7115 48.6652 85.6566 50.1036 85.0812C51.5421 84.4099 52.9805 84.3141 52.9805 84.7935C52.8846 85.273 50.8708 86.5197 51.2544 86.6156C51.6379 86.6156 53.6518 85.9443 54.0354 85.3689C54.5148 84.7935 54.6107 84.314 54.8984 84.5058C55.282 84.6976 54.8984 86.7115 54.6107 86.9991C54.323 87.2868 55.4738 87.8622 54.8984 88.4376C54.3231 89.013 54.6107 88.9171 54.5148 89.6843C54.4189 90.4514 53.6518 90.3555 53.7477 90.835C53.8436 91.3145 53.3641 91.6981 52.9805 91.8899C52.5969 92.0817 48.9529 91.5063 47.8021 91.2186C46.6513 90.9309 46.3636 90.835 46.3636 90.835L46.8431 86.7115Z" fill="#FFB68E"/>
<path d="M46.6511 30.1328L51.1583 31.7631V33.0097L47.0347 31.0918L46.4594 30.1328H46.6511Z" fill="#020023"/>
<path d="M50.9666 34.0644V31.6669L54.8024 31.571V33.8726L50.9666 34.0644ZM51.446 32.1464V33.5849L54.3229 33.489V32.1464H51.446Z" fill="#020023"/>
<path d="M97.0921 86.3279C96.9962 86.3279 96.9003 86.3279 96.9003 86.232C96.8044 86.1361 96.9003 85.9443 96.9962 85.9443C96.9962 85.9443 98.6265 84.9853 99.2977 83.5469C99.8731 82.3002 99.5854 81.7249 99.5854 81.7249C99.4895 81.629 99.5854 81.4372 99.6813 81.4372C99.7772 81.3413 99.969 81.4372 99.969 81.5331C99.969 81.5331 100.353 82.3003 99.6813 83.7387C98.9141 85.4648 97.2839 86.3279 97.188 86.4238C97.188 86.3279 97.0921 86.3279 97.0921 86.3279Z" fill="#020023"/>
</g>
</g>
<rect x="0.323129" y="0.323129" width="189.354" height="149.354" rx="7.67687" stroke="#F0AD99" stroke-width="0.646259"/>
<defs>
<linearGradient id="paint0_linear_1924_2135" x1="184.965" y1="56.6423" x2="138.51" y2="75.2064" gradientUnits="userSpaceOnUse">
<stop offset="0.2401" stop-color="#0C5A58"/>
<stop offset="0.4901" stop-color="#046865"/>
<stop offset="0.7877" stop-color="#0B817E"/>
<stop offset="1" stop-color="#2AA3A0"/>
</linearGradient>
<clipPath id="clip0_1924_2135">
<rect width="190" height="150" rx="8" fill="white"/>
</clipPath>
<clipPath id="clip1_1924_2135">
<rect width="157.558" height="193.231" fill="white" transform="translate(16.1566 16.803)"/>
</clipPath>
</defs>
</svg>
