<svg width="190" height="150" viewBox="0 0 190 150" fill="none" xmlns="http://www.w3.org/2000/svg">
<g clip-path="url(#clip0_1924_2057)">
<rect width="190" height="150" rx="8" fill="#FCEDE9"/>
<g clip-path="url(#clip1_1924_2057)">
<path d="M49.9433 68.5347L53.4961 106.004H47.561L49.2273 68.5347H49.9433Z" fill="#FF3C00"/>
<path d="M52.866 51.1136C54.4178 50.8983 55.5013 49.4658 55.2861 47.914C55.0708 46.3622 53.6383 45.2788 52.0865 45.494C50.5347 45.7093 49.4512 47.1418 49.6665 48.6936C49.8818 50.2454 51.3142 51.3288 52.866 51.1136Z" fill="#132B56"/>
<path d="M40.1938 66.4419L36.4207 77.2793L32.8128 78.0917L26.4095 79.5239L18.5741 81.2727L16.9354 108.249L14.677 108.414L10.9452 75.8747C10.9177 75.5993 11.0692 75.3376 11.3308 75.2275L33.9558 66.1114L40.1663 65.5605V65.5743L40.1938 66.4419Z" fill="white"/>
<path d="M33.4737 68.8652L32.8127 78.0915L26.4232 79.5099L33.4737 68.8652Z" fill="#EAF0FA"/>
<path d="M88.0053 193.475L85.3338 195.292L29.1088 120.353L44.518 107.23L88.0053 193.475Z" fill="#0E1F3F"/>
<path d="M53.854 51.2526L52.3117 58.3995L52.1878 59.0054L51.2238 62.2415L50.2048 65.7117L42.2317 64.8717L44.2009 60.1484L45.2474 51.831L48.9104 51.2251L53.854 51.2526Z" fill="#FFB68E"/>
<path d="M52.3116 58.3996L52.1739 59.0193L51.21 62.2554C48.8965 60.0934 50.8657 57.1465 50.8657 57.1465L52.3116 58.3996Z" fill="#FF965C"/>
<path d="M48.5799 47.7688L51.3891 47.4658L52.8212 48.1406C52.8212 48.1406 53.193 48.6776 53.7025 49.3937C53.7989 49.5176 53.8953 49.6553 53.9917 49.793C55.0245 51.2665 56.374 53.2081 56.3878 53.2494C56.4153 53.4422 56.2776 53.6488 56.1124 53.7314L55.4376 54.0481L55.6304 54.4612L53.5235 56.1137L51.2238 55.6042L49.2684 53.4285L46.4592 49.3799L48.5799 47.7688Z" fill="#FFB68E"/>
<path d="M56.9115 57.2703L56.1816 55.6867L55.438 54.0756L53.221 55.1084C52.7528 55.3562 52.2157 55.3975 51.72 55.2461C51.2242 55.0946 50.7974 54.7503 50.5633 54.2821C50.5495 54.2546 50.5357 54.227 50.5219 54.1995C50.5082 54.172 50.4944 54.1582 50.4806 54.1306C50.4806 54.1306 49.861 53.0428 50.3429 51.528C50.3429 51.528 50.756 50.5641 49.8747 49.9169C49.7646 49.8342 49.6406 49.7654 49.5029 49.7241C49.1862 49.6139 48.8695 49.5313 48.5528 49.4624L52.8216 48.168C53.3174 47.6998 53.6203 47.0251 53.6065 46.2814C53.579 44.8769 52.4223 43.7752 51.0177 43.8028C50.3705 43.8165 49.7783 44.0782 49.3377 44.4913H49.3515C48.8833 44.4224 48.4151 44.4087 47.9882 44.45C45.8813 44.6428 43.6505 45.6893 42.2046 47.2178C41.1029 48.3883 40.4419 50.2198 40.5521 51.9274C40.6072 52.85 40.8964 53.7175 41.4609 54.4336C41.6813 54.709 41.9291 54.9293 42.1908 55.1359C42.1219 55.5215 42.1082 55.907 42.0944 56.3064C42.0531 57.9175 42.659 58.9503 44.1875 60.1621L47.6439 56.1274C47.3134 55.8933 47.0931 55.6729 47.0931 55.6729C46.8865 55.4802 46.7488 55.3011 46.6387 55.1084C46.4183 54.7228 46.3908 54.3785 46.4734 54.0756C46.5147 53.9241 46.5698 53.7864 46.6387 53.6624C46.6524 53.6487 46.6662 53.6211 46.6662 53.6074C46.7351 53.511 46.8039 53.4284 46.8865 53.3457C46.9967 53.2493 47.1206 53.1667 47.2583 53.1116C47.4236 53.0428 47.5888 53.0015 47.7816 53.0015C47.9882 53.0015 48.1947 53.0428 48.3875 53.1529C48.5252 53.2218 48.6629 53.3182 48.7731 53.4008C48.9934 53.5798 49.1724 53.8277 49.2826 54.0893L49.9436 55.7143C49.9574 55.7418 49.9574 55.7693 49.9711 55.7969L51.2931 59.0192C51.9954 60.8782 55.3967 61.1261 56.5534 59.5975C57.0767 58.9503 57.2144 58.0415 56.9115 57.2703Z" fill="#132B56"/>
<path d="M75.0469 60.9062L51.0311 66.6485L52.2705 78.5187C52.2705 78.5325 52.2842 78.5463 52.298 78.56C52.3118 78.5738 52.3256 78.5738 52.3393 78.56L80.2109 67.5298L85.003 40.3331L82.7446 39.7134L75.0469 60.9062Z" fill="white"/>
<path d="M74.7856 60.5891C74.8958 60.4927 75.0748 60.5065 75.1712 60.6305L76.8925 62.7236C76.9889 62.8337 76.9751 63.0128 76.8512 63.1091C76.741 63.2055 76.562 63.1918 76.4656 63.0678L74.7443 60.9747C74.6617 60.8508 74.6754 60.6855 74.7856 60.5891Z" fill="#D9CDFF"/>
<path d="M16.4536 79.634C16.55 79.5101 16.7152 79.4963 16.8391 79.5789L19.0011 81.2176C19.125 81.314 19.1388 81.4793 19.0562 81.6032C18.9598 81.7271 18.7946 81.7409 18.6706 81.6583L16.5086 80.0196C16.3847 79.9232 16.3709 79.7442 16.4536 79.634Z" fill="#EAF0FA"/>
<path d="M58.6187 67.6537L44.5177 107.23L23.5039 105.192L30.4305 79.5239L33.6252 67.7088L40.18 65.5192V65.533L40.1938 65.4917L58.6187 67.6537Z" fill="white"/>
<path d="M51.0313 64.789C51.472 64.8303 51.8025 65.2297 51.7474 65.6841L51.5408 67.6533L39.8083 66.4139L40.1664 65.5464L40.1802 65.5051L40.6759 64.2933C40.8136 63.9628 41.1579 63.7425 41.5159 63.7838L51.0313 64.789Z" fill="white"/>
<path d="M53.2347 77.9816C51.4858 77.9816 49.8196 76.9213 49.1449 75.2C49.1035 75.0898 49.0622 74.9797 49.0209 74.8695C48.9796 74.7456 49.0485 74.6216 49.1724 74.5803C49.2963 74.539 49.4203 74.6079 49.4616 74.7318C49.4891 74.8282 49.5304 74.9383 49.5717 75.0347C50.3567 77.0452 52.6426 78.0505 54.6531 77.2656L79.9908 67.3921L80.6931 63.4675C80.7207 63.3436 80.8446 63.2609 80.9685 63.3023C81.0925 63.3298 81.1751 63.4537 81.1338 63.5777L80.3764 67.7364L80.2662 67.7777L54.8183 77.6925C54.3088 77.8852 53.7718 77.9816 53.2347 77.9816Z" fill="#132B56"/>
<path d="M18.6016 110.136L16.9629 108.593L16.9354 108.222L14.677 108.387L14.7183 108.8L14.1124 112.408C14.1675 113.275 15.0488 113.179 15.0488 113.179C15.2141 114.391 16.536 114.171 16.536 114.171C17.2934 114.735 17.6377 114.515 18.1885 114.239C19.3315 114.57 19.4416 113.578 19.4416 113.578C19.4554 113.193 19.18 111.237 19.18 111.237C19.1249 110.824 18.9183 110.439 18.6016 110.136Z" fill="#FFB68E"/>
<path d="M85.0033 40.3328L85.2512 39.3414C86.6833 37.8817 86.2702 36.0777 86.2702 36.0777L85.8708 34.3977L86.1738 32.0705C86.284 31.203 85.6781 30.9689 85.6781 30.9689L85.8295 30.3217C85.9122 29.3577 85.0584 29.6469 85.0584 29.6469C84.4938 28.7518 84.0118 29.8535 84.0118 29.8535C83.1305 28.504 82.2354 31.6987 81.8912 33.1171L81.5056 32.2633C81.5056 32.2633 81.0649 31.3958 80.3764 31.7263C80.3076 31.7538 80.28 31.8364 80.3076 31.9053L81.7672 35.8574L81.781 35.8436L82.9102 38.9971L82.7449 39.7269L85.0033 40.3328Z" fill="#FFB68E"/>
<path d="M50.921 160.921C50.3426 161.596 49.4889 161.982 48.6075 161.982L-6.08899 162.188V159.283L38.197 150.883L28.4062 120.422C23.2147 115.782 22.416 111.375 22.6639 108.497C22.8291 106.445 23.5176 105.178 23.5176 105.178L33.5564 106.142L44.5315 107.202L51.6646 158.456C51.7748 159.365 51.5131 160.247 50.921 160.921Z" fill="#132B56"/>
<path d="M33.5291 106.156L22.6366 108.497C22.8018 106.445 23.4904 105.178 23.4904 105.178L33.5291 106.156Z" fill="#0E1F3F"/>
<path d="M120.504 76.4392L123.368 117.641L131.906 116.374L125.723 73.8228L120.504 76.4392Z" fill="#FF3C00"/>
<path d="M140.692 175.174C141.353 178.369 139.535 181.55 136.437 182.582L132.87 183.78C131.231 184.331 129.441 184.193 127.913 183.395C126.384 182.61 125.227 181.233 124.718 179.58L113.894 144.7C113.564 143.639 113.591 142.496 113.949 141.45L125.103 109.199L127.885 101.157L131.245 101.46L146.888 102.823L134.371 145.03L140.692 175.174Z" fill="#FF3C00"/>
<path d="M133.503 180.117L123.864 143.543L123.891 143.474L134.316 114.308L134.742 114.46L124.346 143.57L133.944 180.007L133.503 180.117Z" fill="#CC3000"/>
<path d="M135.83 136.713L125.089 109.199L127.871 101.157L131.231 101.446L135.83 136.713Z" fill="#CC3000"/>
<path d="M181.48 161.155C180.763 162.725 179.455 163.937 177.844 164.543C176.233 165.149 174.457 165.08 172.887 164.364L139.066 148.927C138.447 148.652 137.992 148.101 137.841 147.44L127.169 102.314L146.874 102.837L153.457 137.387L179.841 148.913C181.438 149.602 182.678 150.91 183.297 152.535C183.917 154.16 183.862 155.964 183.146 157.534L181.48 161.155Z" fill="#FF3C00"/>
<path d="M178.01 157.727L146.31 143.254L146.296 143.144L137.249 103.678L137.69 103.567L146.709 142.924L178.203 157.314L178.01 157.727Z" fill="#CC3000"/>
<path d="M111.938 60.5068L108.138 70.8072L125.406 80.4741L129.606 67.158L111.938 60.5068Z" fill="#FF3C00"/>
<path d="M150.014 103.953H124.924L125.489 84.7156L124.346 76.6186L129.606 67.1582L132.622 68.0533L136.271 68.6454L142.743 70.7248L150.014 103.953Z" fill="white"/>
<path d="M126.494 54.3791C126.494 54.3791 125.723 57.9181 123.492 58.1797C122.776 58.2624 122.294 58.5929 121.95 58.9922C121.289 59.7771 121.22 60.9063 121.771 61.7739C122.349 62.6827 122.253 63.8394 121.537 64.6519C121.069 65.1889 120.724 65.8362 120.545 66.5798C120.022 68.9208 121.495 71.248 123.836 71.785C126.177 72.3221 129.248 70.8899 129.771 68.549C129.785 68.4939 129.799 68.4388 129.799 68.3837C130.914 67.9844 131.3 67.4198 131.424 67.0067L136.808 48.7745C136.808 48.7745 129.634 45.6623 126.494 54.3791Z" fill="#020023"/>
<path d="M134.881 63.8254C133.118 63.7153 131.521 63.0405 130.281 61.9527C128.532 60.4379 127.472 58.1382 127.623 55.6458C127.665 55.0398 127.761 54.4615 127.926 53.8969C128.023 53.6353 128.105 53.3736 128.202 53.1257C128.216 53.0844 128.229 53.0569 128.257 53.0156C128.463 52.5474 128.711 52.1067 129.001 51.7074C129.386 51.1428 129.827 50.6471 130.35 50.2064C130.983 49.6831 131.7 49.2425 132.471 48.9257C133.503 48.5126 134.633 48.3198 135.817 48.3887C140.072 48.6366 143.336 52.2995 143.074 56.5684C142.812 60.8235 139.149 64.0733 134.881 63.8254Z" fill="#020023"/>
<path d="M136.285 68.6452L129.606 75.6406L129.372 64.7206L129.317 62.0215L129.303 61.8838V61.5396L129.317 61.154L133.875 57.312L136.285 68.6452Z" fill="#FFB68E"/>
<path d="M140.457 51.6109C141.986 51.6109 143.225 50.3717 143.225 48.8431C143.225 47.3144 141.986 46.0752 140.457 46.0752C138.929 46.0752 137.689 47.3144 137.689 48.8431C137.689 50.3717 138.929 51.6109 140.457 51.6109Z" fill="#020023"/>
<path d="M146.888 102.824C146.888 102.824 151.336 109.447 148.83 116.594L144.423 109.709L146.888 102.824Z" fill="#483193"/>
<path d="M124.346 76.6182L123.037 79.207C123.037 79.207 122.294 83.6687 126.053 85.8444L124.346 76.6182Z" fill="white"/>
<path d="M158.855 88.0894L161.691 77.1418L144.891 71.3857L144.588 84.5228L158.855 88.0894Z" fill="#FF3C00"/>
<path d="M149.876 119.651L144.506 117.09L149.339 116.594L149.876 119.651Z" fill="#CC3000"/>
<path d="M136.271 68.645L143.239 117.09H154.724L144.892 71.3854L136.271 68.645Z" fill="#FF3C00"/>
<path d="M120.325 78.147C120.27 78.147 120.215 78.1332 120.16 78.1057C120.022 78.023 119.981 77.8303 120.077 77.6926L121.592 75.3378C121.674 75.2001 121.867 75.1588 122.005 75.2552C122.143 75.3378 122.184 75.5306 122.087 75.6683L120.573 78.023C120.518 78.0919 120.421 78.147 120.325 78.147Z" fill="#CC3000"/>
<path d="M158.855 88.3095C158.841 88.3095 158.813 88.3095 158.8 88.2957L147.384 85.4452C143.693 84.5226 141.16 81.2177 141.228 77.417C141.228 77.3344 141.228 77.238 141.242 77.1554C141.242 77.0315 141.352 76.9351 141.476 76.9351C141.6 76.9351 141.697 77.0452 141.697 77.1692C141.697 77.2518 141.697 77.3344 141.683 77.417C141.614 80.9974 144.01 84.1095 147.494 84.9908L158.91 87.8413C159.034 87.8689 159.103 87.9928 159.075 88.1167C159.047 88.2407 158.951 88.3095 158.855 88.3095Z" fill="#CC3000"/>
<path d="M134.55 145.319C134.536 145.319 134.522 145.319 134.508 145.319L130.997 144.851C130.832 144.824 130.721 144.686 130.735 144.521C130.763 144.355 130.914 144.245 131.066 144.259L134.577 144.727C134.742 144.755 134.853 144.892 134.839 145.058C134.825 145.209 134.701 145.319 134.55 145.319Z" fill="#CC3000"/>
<path d="M129.372 64.7208L129.317 62.008L131.575 60.8926C131.575 60.9063 131.961 63.6329 129.372 64.7208Z" fill="#FF965C"/>
<path d="M132.98 58.5927C132.787 58.7442 132.663 58.992 132.622 59.2399C132.333 60.5619 131.369 61.5258 130.294 61.9527C129.84 62.1317 129.372 62.2281 128.931 62.2006C127.802 62.173 126.811 61.4707 126.618 59.9284C126.59 59.7494 126.783 57.7114 126.811 57.7114C126.659 57.6701 126.439 57.6012 126.273 57.5737C126.136 57.5461 126.053 57.4222 126.067 57.2983V57.2707C126.067 57.1606 126.136 57.0642 126.205 56.9953L127.444 55.5632L127.719 54.6406C127.788 54.3927 127.871 54.1448 127.94 53.9107C128.036 53.6353 128.119 53.3874 128.215 53.1396C128.229 53.0983 128.243 53.0707 128.27 53.0294C128.752 51.9278 129.468 50.9776 130.363 50.2202C131.024 53.4838 131.506 56.1002 131.506 56.1002L132.167 56.2242C132.277 55.7973 132.484 55.2878 132.663 55.0812C132.925 54.7645 133.283 54.5992 133.627 54.6268C134.494 54.7232 134.687 55.9488 134.508 56.6235C134.26 57.4222 133.627 58.097 132.98 58.5927Z" fill="#FFB68E"/>
<path d="M134.44 58.083L133.682 57.9453C133.545 58.0968 133.407 58.2345 133.255 58.3584L134.109 58.5236L133.765 60.4102L131.878 60.0659L132.223 58.1794L132.594 58.2482C132.732 58.2758 132.856 58.1794 132.884 58.0554C132.911 57.9177 132.815 57.7938 132.691 57.7663L132.071 57.6561C131.933 57.6286 131.809 57.725 131.782 57.8489L131.341 60.2174C131.314 60.3551 131.41 60.4791 131.534 60.5066L133.903 60.9473C134.04 60.9748 134.164 60.8784 134.192 60.7545L134.632 58.3859C134.66 58.2345 134.577 58.1105 134.44 58.083Z" fill="#FFDD79"/>
<path d="M131.148 52.2031L128.174 51.611C128.174 51.611 129.579 47.1631 136.629 48.4713L131.148 52.2031Z" fill="#0A073C"/>
<path d="M150.95 139.605C150.868 139.605 150.771 139.563 150.716 139.495C150.62 139.371 150.634 139.178 150.771 139.081L153.539 136.933C153.663 136.837 153.856 136.851 153.952 136.988C154.049 137.112 154.035 137.305 153.897 137.401L151.129 139.55C151.074 139.577 151.005 139.605 150.95 139.605Z" fill="#CC3000"/>
<path d="M175.958 107.203L174.002 104.545L166.979 79.4964C166.897 79.1934 166.663 78.9318 166.36 78.8354L161.691 77.1416L159.846 84.261C160.149 84.3436 162.463 84.9495 162.463 84.9495L172.102 105.151H172.116L171.358 107.037C171.207 107.409 171.193 107.809 171.276 108.18C171.276 108.18 171.799 109.915 171.964 110.232C171.964 110.232 172.446 111.017 173.259 110.301C173.823 110.301 174.195 110.356 174.608 109.599C174.608 109.599 175.792 109.268 175.476 108.208C175.476 108.208 176.233 107.946 175.958 107.203Z" fill="#FFB68E"/>
<path d="M131.341 85.6933H124.924C124.8 85.6933 124.69 85.5969 124.69 85.4592C124.69 85.3353 124.787 85.2251 124.924 85.2251H131.341C131.465 85.2251 131.576 85.3215 131.576 85.4592C131.576 85.5969 131.465 85.6933 131.341 85.6933Z" fill="#FF3C00"/>
<path d="M109.363 59.5566L101.9 38.7218L103.001 35.6647L103.015 35.6785L104.434 31.8365C104.461 31.7676 104.434 31.6988 104.365 31.6575C103.69 31.3408 103.263 32.1808 103.263 32.1808L102.891 33.0208C102.561 31.6437 101.679 28.5316 100.826 29.8535C100.826 29.8535 100.357 28.7794 99.8066 29.6608C99.8066 29.6608 98.9804 29.3853 99.0493 30.3217L99.2007 30.9552C99.2007 30.9552 98.6224 31.1755 98.7188 32.0293L99.0217 34.2877L98.6361 35.9126C98.6361 35.9126 98.2368 37.6752 99.6276 39.0798L104.337 64.4451C104.406 64.8307 104.654 65.1612 105.012 65.3264L107.518 66.5107L109.418 67.4058L111.098 62.8615L111.966 60.5205L109.363 59.5566Z" fill="#FFB68E"/>
<path d="M111.085 62.8477L109.391 67.4057L107.504 66.4968L111.085 62.8477Z" fill="#FF965C"/>
<path d="M159.543 58.6476V49.8895C157.134 51.5007 153.099 53.0843 150.386 48.2508C146.296 40.9662 140.981 46.4744 140.981 46.4744L141.752 48.5262C146.558 49.0908 145.305 53.6626 148.265 56.5958C150.703 59.0194 154.545 59.9282 157.877 59.2259C158.084 59.1984 158.731 58.9781 159.543 58.6476Z" fill="#020023"/>
</g>
</g>
<rect x="0.323129" y="0.323129" width="189.354" height="149.354" rx="7.67687" stroke="#F0AD99" stroke-width="0.646259"/>
<defs>
<clipPath id="clip0_1924_2057">
<rect width="190" height="150" rx="8" fill="white"/>
</clipPath>
<clipPath id="clip1_1924_2057">
<rect width="204.506" height="180.366" fill="white" transform="translate(-10 16)"/>
</clipPath>
</defs>
</svg>
