<svg width="190" height="150" viewBox="0 0 190 150" fill="none" xmlns="http://www.w3.org/2000/svg">
<g clip-path="url(#clip0_1924_1833)">
<rect width="190" height="150" rx="8" fill="#FCEDE9"/>
<g clip-path="url(#clip1_1924_1833)">
<path d="M121.694 81.7517H94.4963V220.863H121.694V81.7517Z" fill="#FF5F2E"/>
<path d="M101.387 49.225L79.9787 14.2175L57.0999 49.5006L65.3693 49.4087V220.862H94.4962V49.225H101.387Z" fill="#FF3C00"/>
<path d="M78.4169 31.9511C73.3633 31.9511 67.6665 31.4916 67.299 29.7459C67.2071 29.1946 67.299 28.6433 67.6665 28.2757C68.7691 26.9894 71.8013 26.8975 71.8932 26.8975V27.4488C71.8932 27.4488 68.9529 27.4488 68.126 28.6433C67.9422 28.9189 67.8503 29.2864 67.9422 29.654C68.0341 30.0215 68.7691 31.1241 75.6604 31.3998C79.6113 31.5835 84.1136 31.3998 85.8594 31.1241C88.1565 30.7566 89.7185 30.1134 90.2698 29.1946C90.4535 28.827 90.4535 28.5514 90.3616 28.1839C89.8103 26.8975 87.6052 26.8975 87.6052 26.8975V26.3462C87.697 26.3462 90.2698 26.3462 90.9129 28.0001C91.0967 28.5514 91.0967 29.0108 90.8211 29.5621C90.2698 30.5728 88.524 31.3998 86.0431 31.7673C84.7568 31.7673 81.7246 31.9511 78.4169 31.9511Z" fill="url(#paint0_linear_1924_1833)"/>
<path d="M80.0706 23.406C76.7628 23.406 73.8226 22.6709 73.5469 21.4764C73.455 21.2008 73.5469 20.9251 73.7307 20.6495C74.282 19.9144 76.3034 19.7307 76.3034 19.7307L76.1196 20.1901C75.7521 20.1901 74.4657 20.4657 74.0063 20.9251C73.9144 21.1089 73.8226 21.2008 73.9144 21.3845C74.0982 22.3953 78.6005 23.3141 82.919 22.6709C84.1135 22.4871 84.9404 22.1196 85.2161 21.6602C85.3079 21.4764 85.3998 21.2927 85.3079 21.1089C85.2161 19.7307 83.2865 19.7307 83.2865 19.7307L83.1027 19.2712C83.9297 19.2712 85.5836 19.6388 85.9511 21.017C86.043 21.3845 85.9511 21.6602 85.7674 21.9358C85.3079 22.6709 84.1135 22.9466 83.1946 23.1303C82.1839 23.3141 81.0813 23.406 80.0706 23.406Z" fill="url(#paint1_linear_1924_1833)"/>
<path d="M148.248 114.462H121.693V220.862H148.248V114.462Z" fill="#FF8A66"/>
<path d="M112.781 81.5677C112.597 81.5677 112.505 81.4758 112.413 81.292L93.3015 29.2862C93.2097 29.1025 93.3015 28.9187 93.4853 28.8268C93.6691 28.7349 93.8528 28.8268 93.9447 29.0106L113.056 81.0164C113.148 81.2001 113.056 81.3839 112.873 81.4758C112.873 81.5677 112.781 81.5677 112.781 81.5677Z" fill="#DE5F12"/>
<path d="M117.742 81.5677C117.559 81.5677 117.467 81.4758 117.375 81.292L98.3551 29.2862C98.2633 29.1025 98.3551 28.9187 98.5389 28.8268C98.7227 28.7349 98.9064 28.8268 98.9983 29.0106L118.11 81.0164C118.202 81.2001 118.11 81.3839 117.926 81.4758C117.834 81.5677 117.834 81.5677 117.742 81.5677Z" fill="#DE5F12"/>
<path d="M100.377 34.156H95.415C95.2313 34.156 95.0475 33.9722 95.0475 33.7884C95.0475 33.6047 95.2313 33.4209 95.415 33.4209H100.377C100.56 33.4209 100.744 33.6047 100.744 33.7884C100.744 33.9722 100.56 34.156 100.377 34.156Z" fill="#DE5F12"/>
<path d="M102.398 39.8527H97.4364C97.2526 39.8527 97.0688 39.669 97.0688 39.4852C97.0688 39.3014 97.2526 39.1177 97.4364 39.1177H102.398C102.582 39.1177 102.766 39.3014 102.766 39.4852C102.766 39.669 102.582 39.8527 102.398 39.8527Z" fill="#DE5F12"/>
<path d="M104.512 45.5495H99.6418C99.4581 45.5495 99.2743 45.3658 99.2743 45.182C99.2743 44.9982 99.4581 44.8145 99.6418 44.8145H104.512C104.695 44.8145 104.879 44.9982 104.879 45.182C104.879 45.3658 104.695 45.5495 104.512 45.5495Z" fill="#DE5F12"/>
<path d="M106.533 51.2463H101.755C101.571 51.2463 101.387 51.0625 101.387 50.8788C101.387 50.695 101.571 50.5112 101.755 50.5112H106.533C106.717 50.5112 106.9 50.695 106.9 50.8788C106.9 51.0625 106.717 51.2463 106.533 51.2463Z" fill="#DE5F12"/>
<path d="M108.646 56.9431H103.776C103.593 56.9431 103.409 56.7593 103.409 56.5755C103.409 56.3918 103.593 56.208 103.776 56.208H108.646C108.83 56.208 109.014 56.3918 109.014 56.5755C109.014 56.7593 108.83 56.9431 108.646 56.9431Z" fill="#DE5F12"/>
<path d="M110.668 62.6396H105.798C105.614 62.6396 105.43 62.4558 105.43 62.2721C105.43 62.0883 105.614 61.9045 105.798 61.9045H110.668C110.851 61.9045 111.035 62.0883 111.035 62.2721C111.035 62.4558 110.851 62.6396 110.668 62.6396Z" fill="#DE5F12"/>
<path d="M112.689 68.4284H107.819C107.635 68.4284 107.452 68.2447 107.452 68.0609C107.452 67.8771 107.635 67.6934 107.819 67.6934H112.689C112.873 67.6934 113.057 67.8771 113.057 68.0609C113.057 68.2447 112.965 68.4284 112.689 68.4284Z" fill="#DE5F12"/>
<path d="M114.894 74.1252H110.116C109.932 74.1252 109.749 73.9414 109.749 73.7577C109.749 73.5739 109.932 73.3901 110.116 73.3901H114.894C115.078 73.3901 115.262 73.5739 115.262 73.7577C115.262 73.9414 115.078 74.1252 114.894 74.1252Z" fill="#DE5F12"/>
<path d="M31.7401 110.787L41.0203 100.955L43.8686 92.5018V65.0288H43.1336V92.4099L40.3771 100.496L31.005 110.511V174.186H31.7401V110.787Z" fill="url(#paint2_linear_1924_1833)"/>
<path d="M43.6849 76.2385C43.6849 76.2385 44.7875 76.4223 44.9713 77.9843C45.0632 78.8113 43.6849 80.0976 43.6849 80.0976C43.6849 80.0976 46.9927 87.3564 46.6252 89.3778C46.4414 90.2966 38.7233 93.7882 38.7233 93.7882L37.4369 91.8586C37.4369 91.8586 44.0525 89.1021 44.6038 88.7346C45.1551 88.3671 42.4905 80.9246 42.4905 79.4544C42.4905 78.0762 42.858 76.9736 42.9499 77.2492C43.1336 77.5249 43.2255 78.995 43.2255 78.995C43.2255 78.995 43.9606 77.2492 43.6849 76.2385Z" fill="#FFB68E"/>
<path d="M63.3477 120.985L63.8071 119.883L64.7259 119.24C64.7259 119.24 64.9097 118.045 65.2772 117.861C65.6447 117.678 65.3691 120.067 65.3691 120.067L64.1746 121.537L63.3477 120.985Z" fill="#000538"/>
<path d="M64.4502 108.03C64.4502 108.03 63.8989 105.641 64.3583 104.998C64.5421 104.814 64.9096 104.079 65.0015 103.987C65.0015 103.987 65.4609 103.987 65.4609 104.355C65.4609 104.446 65.4609 104.814 65.4609 104.814L65.3691 108.214L64.4502 108.03Z" fill="#000538"/>
<path d="M62.9804 106.927L54.8028 99.3011C51.7706 101.598 46.0739 112.257 46.0739 112.257L42.3986 106.1C42.3986 106.1 51.2193 96.6365 54.5271 95.8096L64.083 106.284L62.9804 106.927Z" fill="#005E7E"/>
<path d="M32.6587 87.2644C32.6587 87.2644 34.7721 87.4482 35.6909 88.5508C36.1503 89.1021 35.3234 90.0209 35.3234 90.0209C36.2422 91.3991 38.2636 92.1342 38.2636 92.1342C38.2636 92.1342 37.7123 92.5017 37.5285 93.6962C37.4367 94.3394 35.7828 93.9719 35.7828 93.7881C35.0477 91.7667 31.648 90.9397 31.5562 89.1939C31.5562 87.4482 32.6587 87.2644 32.6587 87.2644Z" fill="#FFB68E"/>
<path d="M32.5669 88.0912C32.5669 88.0912 33.0263 88.0912 33.302 87.448C33.6695 86.7129 33.1182 85.7941 32.0156 85.9779C31.74 86.0698 30.913 86.2535 31.2806 87.6318C31.4643 88.275 30.7293 89.2857 31.74 90.4801C32.7507 91.6746 34.6802 92.0422 34.6802 92.0422C34.6802 92.0422 34.7721 91.3071 34.5884 91.1233C34.4046 90.8477 33.4858 90.9396 33.3939 90.6639C33.2101 90.3883 33.7614 90.2964 33.8533 90.2045C33.9452 90.0207 32.5669 89.6532 32.5669 88.0912Z" fill="#172755"/>
<path d="M63.8073 119.883L55.1703 115.105L42.1229 103.987C42.1229 103.987 37.5287 104.355 39.8258 109.133C42.1229 113.91 51.6787 116.299 52.1381 116.667C52.7813 117.126 63.4397 121.169 63.4397 121.169L63.8073 119.883Z" fill="#0072A2"/>
<path d="M38.815 106.652C38.815 106.652 41.3878 107.754 42.4904 107.754C46.3494 107.571 46.6251 103.344 46.6251 103.344C46.6251 103.344 45.5225 95.7177 39.2744 91.7667C37.4368 90.5722 35.5991 91.6748 34.9559 92.2261C34.2209 92.7774 33.7615 93.5125 33.4858 94.1556C33.1183 94.9826 33.3939 95.9933 34.129 96.5446C36.2423 97.9229 40.4689 102.793 38.815 106.652Z" fill="white"/>
<path d="M63.5315 105.641L62.9802 106.927L64.4504 107.938L64.1747 106.376L63.5315 105.641Z" fill="#FFB68E"/>
<path d="M62.9801 119.423L62.4288 120.618L63.5314 121.077L63.8071 119.883L62.9801 119.423Z" fill="#FFB68E"/>
<path d="M35.0479 92.2261L42.1229 97.831L36.7937 91.3073C36.7937 91.3073 37.1612 91.2154 37.7125 91.1235C38.08 91.1235 38.6313 91.1235 39.1826 91.3073C40.469 91.6748 43.5011 95.0745 45.0631 97.831C46.6252 100.587 46.9927 102.609 46.9927 102.609L46.0739 107.387L44.6037 105.274L44.42 108.122L37.9882 108.489C37.9882 108.489 39.5502 104.079 38.5395 101.598C37.5287 99.1174 33.5778 96.1771 33.394 95.5339C33.2102 94.8907 33.3021 93.145 35.0479 92.2261Z" fill="#132B56"/>
<path d="M35.8748 91.6749L36.5179 92.2262L38.2637 94.7989L42.0309 97.6473L39.1825 94.2476L36.7936 92.0424L36.6098 91.3074L35.8748 91.6749Z" fill="url(#paint3_linear_1924_1833)"/>
<path d="M42.858 81.4758L44.3282 88.4589L37.8964 91.3073L41.1123 93.2368C41.1123 93.2368 46.3496 90.5722 46.6252 89.6534C46.9009 88.7345 45.8902 85.7943 45.1551 83.7728C44.6957 82.4865 44.0525 81.0164 44.0525 81.0164L42.858 81.4758Z" fill="#132B56"/>
<path d="M42.6742 80.8326L42.858 81.4758L44.2362 81.2002L43.8687 80.4651L42.6742 80.8326Z" fill="white"/>
<path d="M33.7615 93.4207L27.7891 103.16L31.1887 109.592L32.6589 108.489C32.6589 108.489 30.6374 105.09 31.1887 102.793C31.74 100.404 36.5179 97.7392 36.5179 97.7392L33.7615 93.4207Z" fill="#132B56"/>
<path d="M43.7768 67.5098H43.0417V88.551H43.7768V67.5098Z" fill="url(#paint4_linear_1924_1833)"/>
<path d="M31.5565 111.338C31.5565 111.338 32.1078 111.338 32.4753 110.97C32.8428 110.603 32.9347 110.327 32.9347 110.327C32.9347 110.327 32.1997 110.419 32.2915 110.051C32.3834 109.684 32.6591 109.133 32.6591 109.133L33.1185 108.581L32.3834 108.765L31.1889 109.684C31.1889 109.684 31.0052 110.603 31.5565 111.154V111.338Z" fill="#FFB68E"/>
<path d="M38.1718 102.609C37.8043 102.609 37.6205 102.425 37.4367 102.333C36.9773 101.874 36.9773 100.955 37.4367 100.128L38.0799 100.496C37.7124 101.047 37.7124 101.598 37.8961 101.782C38.0799 101.966 38.5393 101.874 39.2744 101.323C41.2958 99.6687 44.0523 96.7285 43.7767 95.534C43.5929 94.8908 42.6741 94.8908 42.6741 94.8908V94.1558C43.2254 94.1558 44.328 94.3395 44.5117 95.3502C44.9711 97.2798 41.112 100.771 39.7338 101.874C39.0906 102.425 38.5393 102.609 38.1718 102.609Z" fill="url(#paint5_linear_1924_1833)"/>
<path d="M39.3663 103.987C38.9069 103.987 38.5394 103.804 38.2637 103.528C37.8043 103.069 37.8962 102.425 37.8962 102.333L38.6312 102.425H38.3556L38.7231 102.517C38.7231 102.609 38.7231 102.977 38.9069 103.16C38.9988 103.252 39.2744 103.344 39.5501 103.344C40.7445 103.252 43.2254 101.139 44.6955 99.3013C45.3387 98.5663 45.4306 97.7393 45.1549 97.188C44.9712 96.8205 44.6036 96.6367 44.2361 96.6367L44.1442 95.9017C44.7874 95.8098 45.4306 96.1773 45.7981 96.8205C45.9819 97.188 46.4413 98.2906 45.2468 99.7608C43.9605 101.415 41.204 103.987 39.6419 104.079C39.4582 103.987 39.3663 103.987 39.3663 103.987Z" fill="url(#paint6_linear_1924_1833)"/>
<path d="M144.573 113.635L152.567 113.911L159.274 123.099L159.825 121.445C159.825 121.445 155.966 111.889 153.761 110.511C152.842 109.96 142.368 108.857 142.368 108.857C142.368 108.857 140.806 112.9 144.573 113.635Z" fill="#FFA600"/>
<path d="M151.096 97.8311C151.096 97.8311 147.881 99.1174 145.032 102.977C142.643 106.192 142.368 108.765 142.368 108.765L149.902 109.684C149.902 109.684 153.394 105.365 155.782 103.344C158.631 101.139 151.096 97.8311 151.096 97.8311Z" fill="#003D68"/>
<path d="M155.323 123.007C155.323 123.007 157.988 111.246 157.528 109.96C157.161 108.673 149.902 109.776 149.902 109.776L153.393 111.338L153.669 122.64L155.323 123.007Z" fill="url(#paint7_linear_1924_1833)"/>
<path d="M157.528 92.8694C157.528 92.8694 155.415 93.4207 154.68 94.707C154.312 95.2583 155.323 96.1772 155.323 96.1772C154.588 97.7392 152.291 98.3824 152.291 98.3824C152.291 98.3824 152.75 99.485 153.669 100.22C155.139 101.323 155.323 100.588 155.415 100.404C155.874 98.1986 159.274 96.3609 158.998 94.6152C158.631 92.8694 157.528 92.8694 157.528 92.8694Z" fill="#FFB68E"/>
<path d="M157.804 93.5127C157.804 93.5127 157.62 92.7776 157.161 92.1344C156.701 91.4913 158.171 90.0211 158.355 90.113C158.539 90.2968 158.539 91.5831 158.723 92.4101C158.906 93.1451 159.825 94.5234 158.906 95.9016C158.08 97.2799 156.242 98.0149 156.242 98.0149C156.242 98.0149 156.058 97.2799 156.15 97.0042C156.242 96.7286 157.253 96.6367 157.344 96.2692C157.436 95.9016 156.885 95.9935 156.793 95.8098C156.701 95.7179 157.988 95.1666 157.804 93.5127Z" fill="#172755"/>
<path d="M152.383 102.058L152.199 98.3824L151.739 98.1067L152.934 97.8311C152.934 97.8311 153.577 98.7499 153.853 99.3931C154.036 100.036 154.128 100.496 154.128 100.496L155.415 99.9444L156.15 100.679V101.139L152.383 102.058Z" fill="#132B56"/>
<path d="M154.129 104.998C154.129 104.998 156.793 109.225 157.804 108.765C158.723 108.398 159.458 103.252 158.355 99.1175C157.988 97.6474 157.528 96.9124 157.528 96.9124L156.61 97.3718L156.885 103.436C156.885 103.436 156.701 102.333 156.61 102.058C156.334 101.782 154.404 103.436 154.129 104.998Z" fill="#132B56"/>
<path d="M156.425 97.3718L155.782 96.453L158.079 94.5234L158.998 95.7179L156.425 97.3718Z" fill="#63717D"/>
<path d="M156.701 97.3718C156.701 97.3718 156.334 96.8206 156.701 96.453C157.069 95.9936 157.528 95.5342 157.712 95.3504C157.896 95.1667 158.08 95.3504 157.988 95.6261C157.896 95.8098 157.62 96.1774 157.62 96.1774C157.62 96.1774 158.172 95.9017 158.355 95.6261C158.539 95.2585 158.631 94.6154 158.907 94.891C159.09 95.0748 158.815 96.5449 158.539 96.9124C158.263 97.28 157.528 97.4637 157.528 97.4637L156.701 97.3718Z" fill="#FFB68E"/>
<path d="M155.047 124.385C155.047 124.385 154.772 124.11 154.772 123.926C154.772 123.742 154.956 122.915 154.956 122.915L153.761 122.64V123.742L154.864 124.937L155.047 124.385Z" fill="#FFB68E"/>
<path d="M153.761 123.375C153.761 123.375 153.577 124.11 153.577 124.385C153.577 124.569 155.782 126.315 155.782 126.315L156.058 125.947C156.058 125.947 155.691 125.396 155.507 125.029C155.323 124.661 155.323 124.294 155.323 124.294L154.956 124.477L153.761 123.375Z" fill="#000538"/>
<path d="M160.928 122.456C160.928 122.456 160.652 122.639 160.468 122.639C160.285 122.639 159.733 121.537 159.733 121.537L159.366 122.731L160.193 123.65L161.387 122.639L160.928 122.456Z" fill="#FFB68E"/>
<path d="M159.825 123.742C159.825 123.742 160.56 124.018 160.836 124.018C161.02 124.018 162.949 121.996 162.949 121.996L162.582 121.629C162.582 121.629 162.031 121.904 161.663 122.18C161.295 122.364 160.928 122.272 160.928 122.272L161.112 122.731L159.825 123.742Z" fill="#000538"/>
<path d="M139.703 108.031H130.607V114.462H139.703V108.031Z" fill="#FF3C00"/>
<path d="M138.6 110.879H131.617L130.515 108.03L130.699 107.938L131.801 110.603H138.417L139.611 107.938L139.795 108.03L138.6 110.879Z" fill="black"/>
<path d="M140.714 114.462H139.703V108.122H140.071L140.714 114.462Z" fill="#003B64"/>
<path d="M135.66 109.96H134.098V111.154H135.66V109.96Z" fill="#FFA600"/>
<path d="M137.682 109.133H133.179V106.101H137.682V109.133ZM133.639 108.582H137.13V106.56H133.639V108.582Z" fill="#FF3C00"/>
<path d="M148.248 99.9445C148.248 99.9445 145.4 96.5448 143.47 94.5234C141.541 92.502 139.06 86.989 139.06 86.989L139.887 86.2539C139.887 86.2539 145.951 93.7883 150.637 97.0961C152.842 98.75 150.913 100.128 148.248 99.9445Z" fill="#132B56"/>
<path d="M139.795 86.2539C139.795 86.2539 137.498 82.8543 137.13 83.1299C136.763 83.3137 137.865 84.6919 137.865 84.6919C137.865 84.6919 137.222 85.0595 137.406 85.5189C137.59 85.9783 138.968 86.989 138.968 86.989L139.795 86.2539Z" fill="#FFB68E"/>
<path d="M43.8687 57.6782C43.8687 46.9279 52.5976 38.1071 63.3479 38.1071H64.9099V37.3721H63.3479C52.1382 37.3721 43.0417 46.4685 43.0417 57.6782V76.2386H43.7768V57.6782H43.8687Z" fill="url(#paint8_linear_1924_1833)"/>
<path d="M114.435 49.0411C114.435 49.0411 109.841 48.1222 109.014 48.0304C108.187 47.9385 104.328 44.8144 104.328 44.8144H102.031C102.031 44.8144 103.593 44.0794 104.144 43.9875C104.695 43.8956 104.695 44.1713 104.695 44.1713C104.695 44.1713 108.463 46.6521 108.922 46.6521C110.484 46.744 114.986 47.0196 114.986 47.0196C115.354 47.3872 114.435 49.0411 114.435 49.0411Z" fill="#FFB68E"/>
<path d="M114.343 57.1267C114.343 57.1267 115.078 71.9199 116.548 73.2063C117.559 74.0332 122.061 79.3624 122.061 79.3624C122.061 79.3624 121.969 81.1082 121.326 81.3838C120.867 81.5676 122.061 81.4757 122.061 81.4757C122.061 81.4757 123.256 79.3624 122.704 78.9949C122.153 78.5355 119.121 72.7468 118.753 72.0118C118.386 71.2767 118.57 56.5754 118.57 56.5754L114.343 57.1267Z" fill="#132B56"/>
<path d="M113.884 55.8403C113.884 55.8403 118.845 68.6121 122.888 72.5631C123.532 73.2062 132.169 78.6273 132.169 78.6273L133.087 79.7299C133.087 79.7299 134.006 79.1786 132.536 77.5247C131.893 76.6978 131.617 77.2491 131.617 77.2491L124.45 71.001C124.45 71.001 119.948 57.4024 119.305 56.8511C116.365 54.2783 113.884 55.8403 113.884 55.8403Z" fill="#132B56"/>
<path d="M114.159 56.943L115.078 67.6933C115.078 67.6933 117.192 68.3365 118.478 68.2446C119.764 68.2446 120.499 67.969 120.499 67.969L119.672 62.0885L121.418 67.8771L123.164 67.4177C123.164 67.4177 120.316 57.4943 119.121 56.3917C118.019 55.2891 117.375 55.381 117.375 55.381L114.159 56.943Z" fill="#172755"/>
<path d="M114.16 56.943L118.294 55.5648C118.294 55.5648 117.375 53.9109 115.997 51.6138C115.813 51.2463 115.813 50.6031 115.813 50.0518C115.905 49.0411 116.273 47.2953 114.619 46.9278C114.251 46.8359 113.884 46.8359 113.7 47.2034C112.781 49.1329 112.23 50.0518 111.954 50.7868C112.138 51.3381 112.781 51.7057 112.781 51.7057C113.149 52.9002 114.068 56.3917 114.16 56.943Z" fill="#132B56"/>
<path d="M134.189 78.8113L132.719 77.5249V76.9736L134.281 78.7194L134.189 78.8113Z" fill="#DE5F12"/>
<path d="M131.709 77.0654C131.709 77.0654 132.076 76.7898 132.444 76.7898C132.72 76.8817 132.995 77.3411 132.995 77.3411C132.995 77.3411 132.72 77.7086 133.179 78.2599C133.638 78.7193 133.822 78.995 133.822 79.2706C133.822 79.5463 132.903 80.2814 132.903 80.2814C132.903 80.2814 132.811 80.2813 132.811 80.0057C132.903 79.7301 132.995 79.4544 132.995 79.4544C132.995 79.4544 133.179 79.6382 133.271 79.1788C133.179 78.9031 131.709 77.0654 131.709 77.0654Z" fill="#DE5F12"/>
<path d="M122.98 81.7514V79.8219L123.347 79.4543L123.164 81.7514H122.98Z" fill="#DE5F12"/>
<path d="M122.704 78.9949C122.704 78.9949 123.256 79.0868 123.348 79.3624C123.439 79.5462 123.256 80.1894 123.256 80.1894C123.256 80.1894 122.704 80.2812 122.612 80.6488C122.429 81.292 122.337 81.4757 122.153 81.6595C121.969 81.8432 120.775 81.6595 120.775 81.6595C120.775 81.6595 120.683 81.5676 120.959 81.3838C121.142 81.2001 121.418 81.1082 121.418 81.1082C121.418 81.1082 121.418 81.3838 121.786 81.1082C122.245 81.0163 122.704 78.9949 122.704 78.9949Z" fill="#DE5F12"/>
<path d="M126.288 58.505L123.348 60.3426L122.612 59.1482C122.153 58.4131 122.337 57.4024 123.164 56.943L123.348 56.8511C124.083 56.3917 125.093 56.5754 125.553 57.4024L126.288 58.505ZM123.439 59.6995L125.553 58.4131L125.001 57.5862C124.634 57.0349 123.991 56.8511 123.439 57.2186L123.256 57.3105C122.704 57.678 122.521 58.3212 122.888 58.8725L123.439 59.6995Z" fill="#DE5F12"/>
<path d="M126.563 57.0349L121.602 60.0671L123.439 64.7531L129.779 60.8021L126.563 57.0349Z" fill="#FFA600"/>
<path d="M122.429 61.9965L122.337 61.8128L124.266 60.6183L124.634 61.2615L126.196 60.2507L125.828 59.6994L127.758 58.4131L127.85 58.5969L126.104 59.6994L126.471 60.3426L124.634 61.5371L124.266 60.8939L122.429 61.9965Z" fill="#DE5F12"/>
<path d="M125.185 59.7913C125.277 59.8832 125.185 60.067 125.093 60.1589C125.001 60.2507 124.818 60.1589 124.726 60.067C124.634 59.9751 124.726 59.7913 124.818 59.6994C125.001 59.6076 125.093 59.6994 125.185 59.7913Z" fill="#001ABD"/>
<path d="M125.02 59.7978L124.786 59.9434L125.271 60.7237L125.505 60.5782L125.02 59.7978Z" fill="#001ABD"/>
<path d="M129.779 60.802L130.147 60.0669L126.839 56.9429L126.471 57.1266L129.779 60.802Z" fill="#DE5F12"/>
<path d="M114.711 48.6735C116.089 49.7761 120.04 52.9001 120.04 52.9001L122.704 56.6673C122.704 56.6673 122.337 57.678 122.704 57.9537C123.439 58.4131 123.899 57.1267 123.899 57.1267C123.531 57.1267 123.348 57.4024 123.256 57.2186C123.164 57.1267 123.348 56.4835 123.348 56.4835L121.234 51.9813C121.234 51.9813 115.721 46.9277 115.078 47.2952C114.894 47.3871 114.711 47.5709 114.619 47.7547C114.343 48.0303 114.435 48.3978 114.711 48.6735Z" fill="#FFB68E"/>
<path d="M115.721 41.2312C115.721 41.2312 114.251 42.4257 114.068 43.8958C113.976 44.3552 115.078 44.8146 115.078 44.8146C114.986 45.9172 113.792 47.0198 113.792 47.0198C113.792 47.0198 114.343 46.7442 114.803 47.2955C115.078 47.663 115.538 47.5711 115.538 47.3874C115.262 46.0091 117.375 43.1607 116.824 42.15C116.273 41.2312 115.721 41.2312 115.721 41.2312Z" fill="#FFB68E"/>
<path d="M115.813 41.7824C115.721 41.6905 115.354 41.5067 114.803 41.7824C114.343 42.058 114.803 42.3337 114.803 42.3337C114.803 42.3337 113.516 42.058 113.792 41.2311C113.976 40.4042 114.986 40.0366 115.813 40.496C116.64 40.9554 116.457 41.5067 116.457 41.5067C116.457 41.5067 118.202 41.7824 118.662 42.7931C119.305 44.1714 118.845 45.3658 117.927 45.8252C117.1 46.1928 115.721 45.9171 115.721 45.9171L115.078 44.0795C115.078 44.0795 116.457 43.9876 116.457 43.6201C116.457 43.3444 116.089 43.4363 116.089 43.4363C116.089 43.4363 116.365 42.2418 115.813 41.7824Z" fill="#172755"/>
</g>
</g>
<rect x="0.323129" y="0.323129" width="189.354" height="149.354" rx="7.67687" stroke="#F0AD99" stroke-width="0.646259"/>
<defs>
<linearGradient id="paint0_linear_1924_1833" x1="67.1895" y1="29.0889" x2="90.8629" y2="29.0889" gradientUnits="userSpaceOnUse">
<stop offset="0.1885" stop-color="#FFD234"/>
<stop offset="0.9861" stop-color="#FFB000"/>
</linearGradient>
<linearGradient id="paint1_linear_1924_1833" x1="73.5671" y1="21.3563" x2="85.9983" y2="21.3563" gradientUnits="userSpaceOnUse">
<stop offset="0.1885" stop-color="#FFD234"/>
<stop offset="0.9861" stop-color="#FFB000"/>
</linearGradient>
<linearGradient id="paint2_linear_1924_1833" x1="30.9757" y1="119.629" x2="249.993" y2="119.629" gradientUnits="userSpaceOnUse">
<stop offset="0.1885" stop-color="#FFD234"/>
<stop offset="0.9861" stop-color="#FFB000"/>
</linearGradient>
<linearGradient id="paint3_linear_1924_1833" x1="35.8721" y1="94.5012" x2="42.0527" y2="94.5012" gradientUnits="userSpaceOnUse">
<stop offset="0.1885" stop-color="#FFD234"/>
<stop offset="0.9861" stop-color="#FFB000"/>
</linearGradient>
<linearGradient id="paint4_linear_1924_1833" x1="43.0738" y1="78.0184" x2="43.8106" y2="78.0184" gradientUnits="userSpaceOnUse">
<stop offset="0.1885" stop-color="#FFD234"/>
<stop offset="0.9861" stop-color="#FFB000"/>
</linearGradient>
<linearGradient id="paint5_linear_1924_1833" x1="37.1142" y1="98.3467" x2="44.5842" y2="98.3467" gradientUnits="userSpaceOnUse">
<stop offset="0.1885" stop-color="#FFD234"/>
<stop offset="0.9861" stop-color="#FFB000"/>
</linearGradient>
<linearGradient id="paint6_linear_1924_1833" x1="37.9508" y1="99.9391" x2="45.9297" y2="99.9391" gradientUnits="userSpaceOnUse">
<stop offset="0.1885" stop-color="#FFD234"/>
<stop offset="0.9861" stop-color="#FFB000"/>
</linearGradient>
<linearGradient id="paint7_linear_1924_1833" x1="149.94" y1="116.14" x2="157.646" y2="116.14" gradientUnits="userSpaceOnUse">
<stop offset="0.1885" stop-color="#FFD234"/>
<stop offset="0.9861" stop-color="#FFB000"/>
</linearGradient>
<linearGradient id="paint8_linear_1924_1833" x1="30.9758" y1="56.8263" x2="249.993" y2="56.8263" gradientUnits="userSpaceOnUse">
<stop offset="0.1885" stop-color="#FFD234"/>
<stop offset="0.9861" stop-color="#FFB000"/>
</linearGradient>
<clipPath id="clip0_1924_1833">
<rect width="190" height="150" rx="8" fill="white"/>
</clipPath>
<clipPath id="clip1_1924_1833">
<rect width="135.068" height="206.645" fill="white" transform="translate(27.7891 14.2175)"/>
</clipPath>
</defs>
</svg>
