<svg width="167" height="44" viewBox="0 0 167 44" fill="none" xmlns="http://www.w3.org/2000/svg">
<path d="M67.6959 28.1666L62.0803 43.3949H57.3513L51.9046 28.1666H56.0846L58.7447 36.6815C58.8197 36.9161 58.937 37.3289 59.0965 37.9201C59.2654 38.5018 59.4812 39.2618 59.7439 40.2001C59.7815 40.0687 59.8565 39.806 59.9691 39.4119C60.0911 39.0178 60.2225 38.5862 60.3632 38.1171C60.5039 37.648 60.6259 37.2539 60.7291 36.9349L63.558 28.1666H67.6959ZM72.2497 36.5408C72.2497 38.0233 72.5218 39.1445 73.066 39.9045C73.6196 40.6551 74.4031 41.0305 75.4164 41.0305C76.1107 41.0305 76.6784 40.8803 77.1194 40.5801C77.5698 40.2705 77.8841 39.8154 78.0624 39.2149L81.792 39.5386C80.713 42.2971 78.5221 43.6764 75.2194 43.6764C72.93 43.6764 71.1707 43.0008 69.9415 41.6497C68.7124 40.2892 68.0978 38.3094 68.0978 35.7104C68.0978 33.1958 68.7218 31.263 69.9697 29.9118C71.2176 28.5607 72.9863 27.8851 75.2757 27.8851C77.4619 27.8851 79.132 28.6123 80.2861 30.0666C81.4402 31.5116 82.0172 33.6321 82.0172 36.4282V36.5408H72.2497ZM78.189 34.0637C78.114 32.8346 77.8184 31.9151 77.3024 31.3052C76.7863 30.6859 76.092 30.3763 75.2194 30.3763C74.2905 30.3763 73.5727 30.7 73.066 31.3474C72.5687 31.9948 72.306 32.9003 72.2779 34.0637H78.189ZM88.1192 35.2319V43.3949H84.1644V31.5726C84.1644 30.7563 84.1503 30.0901 84.1222 29.574C84.1034 29.0486 84.0799 28.5795 84.0518 28.1666H87.8237C87.8424 28.2792 87.8659 28.5466 87.8941 28.9689C87.9222 29.3817 87.9457 29.8086 87.9644 30.2496C87.9926 30.6812 88.0066 30.9955 88.0066 31.1926H88.0629C88.5978 30.0291 89.2686 29.1847 90.0756 28.6592C90.8825 28.1338 91.8442 27.8711 92.9608 27.8711C94.5746 27.8711 95.8131 28.3684 96.6764 29.3629C97.5396 30.3575 97.9712 31.8118 97.9712 33.7259V43.3949H94.0304V34.8519C94.0304 33.5101 93.8052 32.5062 93.3548 31.84C92.9045 31.1738 92.2242 30.8407 91.3141 30.8407C90.357 30.8407 89.583 31.2536 88.9918 32.0793C88.4101 32.8956 88.1192 33.9464 88.1192 35.2319ZM108.155 43.1697C107.198 43.4888 106.086 43.6483 104.819 43.6483C103.656 43.6483 102.76 43.3339 102.131 42.7053C101.502 42.0673 101.188 41.1055 101.188 39.8201V30.8407H99.2598V28.1666H101.385L102.624 24.5918H105.101V28.1666H107.986V30.8407H105.101V38.7504C105.101 39.4917 105.241 40.0406 105.523 40.3971C105.804 40.7443 106.241 40.9179 106.832 40.9179C107.113 40.9179 107.554 40.8522 108.155 40.7208V43.1697ZM119.338 40.369C118.812 41.5231 118.141 42.3628 117.325 42.8883C116.518 43.4137 115.556 43.6764 114.44 43.6764C112.826 43.6764 111.587 43.1838 110.724 42.1986C109.861 41.204 109.429 39.7497 109.429 37.8356V28.1666H113.384V36.7097C113.384 38.042 113.609 39.046 114.06 39.7216C114.51 40.3877 115.186 40.7208 116.086 40.7208C117.043 40.7208 117.813 40.3127 118.395 39.4964C118.986 38.6707 119.281 37.6151 119.281 36.3297V28.1666H123.236V39.989C123.236 40.6364 123.245 41.2463 123.264 41.8186C123.283 42.3816 123.311 42.907 123.349 43.3949H119.577C119.521 42.7194 119.478 42.1282 119.45 41.6216C119.422 41.1149 119.408 40.6974 119.408 40.369H119.338ZM130.366 35.9215V43.3949H126.411V31.7415C126.411 30.9064 126.397 30.2121 126.368 29.6585C126.35 29.0955 126.326 28.5982 126.298 28.1666H130.07C130.089 28.2511 130.108 28.4387 130.126 28.7296C130.145 29.0205 130.164 29.3489 130.183 29.7148C130.201 30.0713 130.215 30.4091 130.225 30.7281C130.244 31.0471 130.253 31.277 130.253 31.4178H130.309C130.685 30.3669 131.027 29.6116 131.337 29.1518C131.637 28.7108 131.993 28.3871 132.406 28.1807C132.819 27.9743 133.335 27.8711 133.954 27.8711C134.461 27.8711 134.869 27.9414 135.179 28.0822V31.3896C134.55 31.2489 133.987 31.1785 133.49 31.1785C132.505 31.1785 131.735 31.5773 131.182 32.3748C130.638 33.1724 130.366 34.3546 130.366 35.9215ZM140.042 36.5408C140.042 38.0233 140.314 39.1445 140.859 39.9045C141.412 40.6551 142.196 41.0305 143.209 41.0305C143.903 41.0305 144.471 40.8803 144.912 40.5801C145.362 40.2705 145.677 39.8154 145.855 39.2149L149.585 39.5386C148.506 42.2971 146.315 43.6764 143.012 43.6764C140.723 43.6764 138.963 43.0008 137.734 41.6497C136.505 40.2892 135.891 38.3094 135.891 35.7104C135.891 33.1958 136.514 31.263 137.762 29.9118C139.01 28.5607 140.779 27.8851 143.068 27.8851C145.255 27.8851 146.925 28.6123 148.079 30.0666C149.233 31.5116 149.81 33.6321 149.81 36.4282V36.5408H140.042ZM145.982 34.0637C145.907 32.8346 145.611 31.9151 145.095 31.3052C144.579 30.6859 143.885 30.3763 143.012 30.3763C142.083 30.3763 141.365 30.7 140.859 31.3474C140.361 31.9948 140.099 32.9003 140.071 34.0637H145.982ZM164.793 38.9475C164.793 40.4206 164.188 41.5794 162.977 42.4238C161.776 43.2589 160.111 43.6764 157.981 43.6764C155.888 43.6764 154.284 43.348 153.167 42.6912C152.06 42.025 151.324 40.9929 150.958 39.5949L154.434 39.0741C154.631 39.7966 154.969 40.308 155.447 40.6082C155.935 40.9085 156.78 41.0586 157.981 41.0586C159.088 41.0586 159.895 40.9179 160.402 40.6364C160.908 40.3549 161.162 39.9139 161.162 39.3134C161.162 38.8255 160.955 38.4408 160.542 38.1593C160.139 37.8685 159.449 37.6245 158.473 37.4275C157.732 37.2773 157.066 37.1319 156.475 36.9912C155.893 36.8504 155.391 36.7144 154.969 36.583C154.556 36.4423 154.218 36.3109 153.956 36.1889C153.177 35.8042 152.581 35.3116 152.168 34.7111C151.765 34.1106 151.563 33.3694 151.563 32.4874C151.563 31.0331 152.121 29.9024 153.238 29.0955C154.364 28.2792 155.954 27.8711 158.009 27.8711C159.82 27.8711 161.274 28.2229 162.372 28.9266C163.479 29.6303 164.169 30.6484 164.441 31.9807L160.936 32.3467C160.824 31.7274 160.547 31.2676 160.106 30.9674C159.665 30.6578 158.966 30.5029 158.009 30.5029C157.071 30.5029 156.367 30.6249 155.898 30.8689C155.429 31.1034 155.194 31.5022 155.194 32.0652C155.194 32.5062 155.372 32.858 155.729 33.1208C156.095 33.3741 156.705 33.5852 157.559 33.7541C158.75 33.998 159.806 34.2514 160.725 34.5141C161.654 34.7674 162.4 35.0724 162.963 35.4289C163.517 35.7855 163.958 36.2452 164.286 36.8082C164.624 37.3618 164.793 38.0749 164.793 38.9475Z" fill="white"/>
<path d="M65.4101 17.8269V20.7655H52.9675V17.9129L60.2639 8.16517H53.5552V5.2552H64.7077V8.1365L57.4543 17.8269H65.4101ZM80.7421 17.4542V20.7655H66.6079V17.9702C66.9615 17.1961 67.4107 16.4412 67.9554 15.7053C68.5001 14.9599 69.15 14.2145 69.9049 13.4691C70.6695 12.7141 71.5391 11.94 72.5139 11.1468C73.2211 10.5734 73.8231 10.0526 74.3201 9.58432C74.817 9.10649 75.2041 8.68123 75.4812 8.30852C75.7679 7.93581 75.9829 7.56789 76.1263 7.20474C76.2696 6.83203 76.3413 6.46888 76.3413 6.11529C76.3413 5.23608 76.1167 4.57668 75.6676 4.13708C75.2279 3.69748 74.5685 3.47767 73.6893 3.47767C72.8293 3.47767 72.1698 3.71181 71.7111 4.18008C71.262 4.6388 70.9705 5.33165 70.8367 6.25864L66.7799 6.02928C67.0093 4.15619 67.7069 2.72748 68.8728 1.74316C70.0483 0.758832 71.6442 0.266669 73.6607 0.266669C75.8396 0.266669 77.512 0.76361 78.6779 1.75749C79.8438 2.75138 80.4267 4.14663 80.4267 5.94327C80.4267 6.95626 80.2165 7.86414 79.796 8.66689C79.3755 9.46964 78.8403 10.2103 78.1905 10.8888C77.6553 11.4717 77.0485 12.026 76.37 12.5516C75.701 13.0772 75.0512 13.5885 74.4204 14.0855C73.7515 14.6206 73.1398 15.1606 72.5856 15.7053C72.0408 16.25 71.6347 16.833 71.3671 17.4542H80.7421ZM96.5615 17.7695V20.7655H82.9003V17.7695H87.9032V3.99373L83.058 7.01838V3.85038L88.1182 0.567701H91.9313V17.7695H96.5615Z" fill="white"/>
<rect y="0.765503" width="42.496" height="42.496" fill="#DE5126"/>
<g clip-path="url(#clip0_1704_8)">
<path d="M21.248 29.9815C23.4525 29.9815 25.232 31.761 25.232 33.9655H33.2C33.2 27.3609 27.8526 22.0135 21.248 22.0135C14.6434 22.0135 9.296 27.3609 9.296 33.9655H17.264C17.264 31.761 19.0435 29.9815 21.248 29.9815Z" fill="white"/>
<path d="M9.296 10.0615V18.0295H21.248V22.0135L25.232 18.0295L33.2 10.0615H9.296Z" fill="white"/>
</g>
<defs>
<clipPath id="clip0_1704_8">
<rect width="23.904" height="23.904" fill="white" transform="translate(9.296 10.0615)"/>
</clipPath>
</defs>
</svg>
